<svg width="18" height="20" viewBox="0 0 18 20" fill="none" xmlns="http://www.w3.org/2000/svg">
<path d="M10.25 0H12.725C12.905 0.89375 13.4 2.02125 14.2688 3.14C15.1188 4.23625 16.2463 5 17.75 5V7.5C15.5588 7.5 13.9125 6.4825 12.75 5.21375V13.75C12.75 14.9861 12.3834 16.1945 11.6967 17.2223C11.0099 18.2501 10.0338 19.0512 8.89178 19.5243C7.74974 19.9973 6.49307 20.1211 5.28069 19.8799C4.06831 19.6388 2.95466 19.0435 2.08059 18.1694C1.20651 17.2953 0.611252 16.1817 0.370095 14.9693C0.128937 13.7569 0.252708 12.5003 0.725756 11.3582C1.1988 10.2162 1.99988 9.24007 3.02769 8.55332C4.0555 7.86656 5.26387 7.5 6.5 7.5V10C5.75832 10 5.0333 10.2199 4.41661 10.632C3.79993 11.044 3.31928 11.6297 3.03545 12.3149C2.75163 13.0002 2.67736 13.7542 2.82206 14.4816C2.96675 15.209 3.32391 15.8772 3.84835 16.4017C4.3728 16.9261 5.04099 17.2833 5.76841 17.4279C6.49584 17.5726 7.24984 17.4984 7.93507 17.2146C8.62029 16.9307 9.20596 16.4501 9.61801 15.8334C10.0301 15.2167 10.25 14.4917 10.25 13.75V0Z" fill="#1C2737"/>
</svg>
