			<svg width="384" height="384" viewBox="0 0 384 384" fill="none"
						xmlns="http://www.w3.org/2000/svg">
						<path
							d="M191.998 324.103C276.829 324.103 345.598 255.334 345.598 170.503C345.598 85.6724 276.829 16.9033 191.998 16.9033C107.167 16.9033 38.3984 85.6724 38.3984 170.503C38.3984 255.334 107.167 324.103 191.998 324.103Z"
							fill="#D9EDFF" />
						<path
							d="M258.873 20.2061H87.4592C78.777 20.2061 71.7383 27.2446 71.7383 35.927V166.103C71.7383 174.785 78.777 181.824 87.4592 181.824H258.873C267.556 181.824 274.594 174.785 274.594 166.103V35.927C274.594 27.2446 267.556 20.2061 258.873 20.2061Z"
							fill="#B0D9FF" />
						<path
							d="M258.873 20.2061H87.4592C78.777 20.2061 71.7383 27.2446 71.7383 35.927V166.103C71.7383 174.785 78.777 181.824 87.4592 181.824H258.873C267.556 181.824 274.594 174.785 274.594 166.103V35.927C274.594 27.2446 267.556 20.2061 258.873 20.2061Z"
							stroke="#020064" stroke-width="3.84" stroke-linecap="round" stroke-linejoin="round" />
						<path
							d="M258.873 20.2061H87.4628C83.2914 20.2061 79.2901 21.8616 76.3383 24.8092C73.3865 27.7568 71.7249 31.7555 71.7188 35.927V57.6001H274.597V35.927C274.591 31.7588 272.932 27.7631 269.985 24.816C267.037 21.869 263.041 20.2112 258.873 20.2061Z"
							fill="white" />
						<path
							d="M258.873 20.2061H87.4628C83.2914 20.2061 79.2901 21.8616 76.3383 24.8092C73.3865 27.7568 71.7249 31.7555 71.7188 35.927V57.6001H274.597V35.927C274.591 31.7588 272.932 27.7631 269.985 24.816C267.037 21.869 263.041 20.2112 258.873 20.2061Z"
							stroke="#020064" stroke-width="3.84" stroke-linecap="round" stroke-linejoin="round" />
						<path
							d="M95.3253 46.6674C99.6664 46.6674 103.186 43.148 103.186 38.8069C103.186 34.4655 99.6664 30.9463 95.3253 30.9463C90.9838 30.9463 87.4648 34.4655 87.4648 38.8069C87.4648 43.148 90.9838 46.6674 95.3253 46.6674Z"
							fill="#B0D9FF" />
						<path
							d="M122.884 46.6674C127.225 46.6674 130.744 43.148 130.744 38.8069C130.744 34.4655 127.225 30.9463 122.884 30.9463C118.543 30.9463 115.023 34.4655 115.023 38.8069C115.023 43.148 118.543 46.6674 122.884 46.6674Z"
							fill="#B0D9FF" />
						<path
							d="M150.443 46.6674C154.784 46.6674 158.303 43.148 158.303 38.8069C158.303 34.4655 154.784 30.9463 150.443 30.9463C146.101 30.9463 142.582 34.4655 142.582 38.8069C142.582 43.148 146.101 46.6674 150.443 46.6674Z"
							fill="#B0D9FF" />
						<path
							d="M184.319 132.096L173.183 120.921L162.005 132.096C161.188 132.993 160.197 133.715 159.093 134.218C157.99 134.722 156.795 134.996 155.582 135.024C154.369 135.052 153.163 134.834 152.037 134.383C150.911 133.932 149.888 133.257 149.03 132.399C148.172 131.541 147.497 130.518 147.046 129.392C146.595 128.266 146.376 127.06 146.405 125.847C146.433 124.634 146.707 123.439 147.21 122.335C147.714 121.231 148.436 120.241 149.333 119.424L160.496 108.261L149.321 97.0751C147.768 95.3697 146.932 93.1318 146.985 90.8259C147.04 88.52 147.98 86.3235 149.61 84.6926C151.241 83.0614 153.438 82.1214 155.744 82.0676C158.05 82.0138 160.288 82.8502 161.993 84.4031L173.183 95.5544L184.319 84.3877C186.024 82.8348 188.262 81.9985 190.568 82.0522C192.874 82.106 195.071 83.046 196.702 84.6773C198.333 86.3081 199.273 88.5046 199.327 90.8105C199.38 93.1164 198.544 95.3544 196.991 97.0597L185.855 108.234L197.014 119.397C198.698 121.08 199.644 123.364 199.644 125.745C199.645 128.126 198.699 130.41 197.016 132.094C195.333 133.778 193.049 134.724 190.668 134.725C188.287 134.725 186.003 133.779 184.319 132.096Z"
							fill="white" stroke="#020064" stroke-width="3.84" stroke-linecap="round" stroke-linejoin="round" />
						<path
							d="M260.203 367.096C285.72 367.096 306.406 363.993 306.406 360.165C306.406 356.337 285.72 353.233 260.203 353.233C234.686 353.233 214 356.337 214 360.165C214 363.993 234.686 367.096 260.203 367.096Z"
							fill="#B0D9FF" />
						<path d="M235.027 275.447L244.182 360.165H276.223L285.377 275.447H235.027Z" fill="white" />
						<path d="M260.203 293.799V360.166" stroke="#020064" stroke-width="3.84" stroke-linecap="round"
							stroke-linejoin="round" />
						<path d="M235.027 275.447L244.182 360.165H276.223L285.377 275.447H235.027Z" stroke="#020064"
							stroke-width="3.84" stroke-linecap="round" stroke-linejoin="round" />
						<path
							d="M260.202 360.165C260.202 356.448 258.726 352.884 256.098 350.257C253.471 347.629 249.906 346.152 246.19 346.152H243.84C241.38 346.151 238.962 346.798 236.831 348.027C234.699 349.257 232.929 351.026 231.698 353.157C231.286 353.869 231.069 354.678 231.07 355.501C231.071 356.324 231.29 357.132 231.704 357.844C232.118 358.555 232.712 359.145 233.428 359.552C234.143 359.96 234.953 360.171 235.776 360.165H260.202Z"
							fill="#B0D9FF" stroke="#020064" stroke-width="3.84" stroke-linecap="round" stroke-linejoin="round" />
						<path
							d="M260.203 360.165C260.203 356.448 261.68 352.884 264.307 350.257C266.935 347.629 270.499 346.152 274.215 346.152H276.55C279.011 346.151 281.428 346.798 283.56 348.027C285.691 349.257 287.461 351.026 288.692 353.157C289.103 353.867 289.32 354.673 289.32 355.493C289.32 356.314 289.105 357.12 288.694 357.831C288.284 358.541 287.693 359.131 286.983 359.541C286.272 359.95 285.465 360.166 284.645 360.165H260.203Z"
							fill="#B0D9FF" stroke="#020064" stroke-width="3.84" stroke-linecap="round" stroke-linejoin="round" />
						<path
							d="M235.027 275.447L237.224 313.662C237.271 314.48 237.629 315.248 238.224 315.81C238.82 316.372 239.608 316.685 240.426 316.685H280.128C280.949 316.685 281.739 316.37 282.335 315.804C282.931 315.239 283.287 314.467 283.331 313.647L285.377 275.447L285.458 268.627H235.112L235.027 275.447Z"
							fill="#B0D9FF" stroke="#020064" stroke-width="3.84" stroke-linecap="round" stroke-linejoin="round" />
						<path
							d="M230.561 216.326L221.184 203.239C232.66 195.227 246.302 190.895 260.298 190.816C271.22 190.821 281.693 195.162 289.415 202.887C297.136 210.611 301.474 221.086 301.474 232.008V236.585H285.457V277.781L264.86 280.085L260.282 266.353L255.705 280.07L235.107 277.766V233.855C234.078 225.108 230.561 225.937 230.561 216.326Z"
							fill="#B0D9FF" />
						<path
							d="M274.114 193.198L260.202 238.894L247.891 201.865L245.203 193.72C250.008 191.803 255.136 190.824 260.31 190.837C265.015 190.794 269.691 191.593 274.114 193.198Z"
							fill="white" stroke="#020064" stroke-width="3.84" stroke-linecap="round" stroke-linejoin="round" />
						<path d="M260.203 238.874V266.338" stroke="#020064" stroke-width="3.84" stroke-linecap="round"
							stroke-linejoin="round" />
						<path
							d="M285.477 231.989C285.753 229.737 286.584 227.589 287.896 225.738C289.289 223.487 290.002 220.881 289.95 218.234"
							stroke="#020064" stroke-width="3.84" stroke-linecap="round" stroke-linejoin="round" />
						<path
							d="M242.443 222.674L243.269 210.317L234.344 210.862L233.703 200.613C237.104 197.664 240.99 195.325 245.189 193.701L260.203 238.875L242.443 222.674Z"
							stroke="#020064" stroke-width="3.84" stroke-linecap="round" stroke-linejoin="round" />
						<path
							d="M285.466 199.469L284.929 208.128L284.745 210.923L275.824 210.37L276.681 222.72L260.203 238.875L274.115 193.179C278.222 194.631 282.058 196.757 285.466 199.469Z"
							stroke="#020064" stroke-width="3.84" stroke-linecap="round" stroke-linejoin="round" />
						<path d="M259.641 200.479L251.593 212.986L245.188 193.701" stroke="#020064" stroke-width="3.84"
							stroke-linecap="round" stroke-linejoin="round" />
						<path d="M274.114 193.197L267.701 214.252L259.641 200.478" stroke="#020064" stroke-width="3.84"
							stroke-linecap="round" stroke-linejoin="round" />
						<path
							d="M221.184 203.239C209.126 211.968 198.182 226.878 194.984 252.241C194.72 254.363 195.309 256.502 196.621 258.189C197.934 259.876 199.863 260.973 201.984 261.239C202.322 261.28 202.661 261.3 203.002 261.3C204.959 261.294 206.848 260.577 208.316 259.281C209.783 257.985 210.729 256.199 210.977 254.257C213.477 234.455 221.629 222.973 230.561 216.326L221.184 203.239Z"
							fill="white" stroke="#020064" stroke-width="3.84" stroke-linejoin="round" />
						<path
							d="M230.561 216.326L221.184 203.239C232.66 195.227 246.302 190.895 260.298 190.816C271.22 190.821 281.693 195.162 289.415 202.887C297.136 210.611 301.474 221.086 301.474 232.008V236.585H285.457V277.781L264.86 280.085L260.282 266.353L255.705 280.07L235.107 277.766V233.855C234.078 225.108 230.561 225.937 230.561 216.326Z"
							stroke="#020064" stroke-width="3.84" stroke-linejoin="round" />
						<path
							d="M269.526 270.785C268.605 268.958 268.404 266.853 268.962 264.886C269.519 262.919 270.795 261.232 272.536 260.16C276.44 258.004 279.698 254.845 281.973 251.01C284.248 247.174 285.457 242.8 285.477 238.341V231.989H301.475V238.341C301.581 245.632 299.682 252.811 295.983 259.095C292.285 265.38 286.93 270.526 280.504 273.972C279.583 274.523 278.559 274.877 277.495 275.015C276.432 275.152 275.351 275.068 274.321 274.769C273.29 274.47 272.333 273.962 271.508 273.277C270.683 272.591 270.008 271.743 269.526 270.785Z"
							fill="white" stroke="#020064" stroke-width="3.84" stroke-linejoin="round" />
						<path d="M268.049 191.689L259.643 200.479L250.945 191.689L250.965 173.165H268.068L268.049 191.689Z"
							fill="white" stroke="#020064" stroke-width="3.84" stroke-linecap="round" stroke-linejoin="round" />
						<path
							d="M260.854 186.455C266.635 185.61 271.996 182.943 276.156 178.841C280.316 174.739 283.059 169.418 283.986 163.649H284.009C292.626 162.409 291.194 148.704 283.414 149.825L282.623 144.384C281.584 137.153 277.716 130.63 271.869 126.252C266.022 121.873 258.675 119.996 251.444 121.035C244.213 122.073 237.691 125.941 233.312 131.788C228.933 137.635 227.056 144.982 228.095 152.214L228.863 157.666C221.083 158.784 223.564 172.339 232.184 171.106H232.204C234.723 176.382 238.86 180.716 244.013 183.476C249.166 186.237 255.066 187.28 260.854 186.455Z"
							fill="white" stroke="#020064" stroke-width="3.84" stroke-linecap="round" stroke-linejoin="round" />
						<path
							d="M243.694 163.88C243.771 164.419 243.687 164.969 243.451 165.46C243.216 165.951 242.841 166.361 242.372 166.639C241.904 166.916 241.364 167.049 240.82 167.02C240.277 166.99 239.754 166.801 239.318 166.474C238.882 166.148 238.553 165.7 238.372 165.186C238.19 164.673 238.166 164.117 238.3 163.59C238.435 163.062 238.723 162.586 239.128 162.222C239.533 161.859 240.037 161.623 240.575 161.545C241.299 161.442 242.033 161.63 242.618 162.068C243.202 162.505 243.589 163.157 243.694 163.88Z"
							fill="#B0D9FF" />
						<path
							d="M276.405 159.18C276.482 159.719 276.397 160.268 276.162 160.76C275.927 161.25 275.552 161.661 275.083 161.938C274.615 162.216 274.075 162.349 273.531 162.319C272.987 162.29 272.465 162.101 272.029 161.774C271.593 161.448 271.264 161 271.083 160.486C270.902 159.973 270.877 159.417 271.011 158.89C271.146 158.362 271.434 157.886 271.839 157.522C272.244 157.158 272.748 156.923 273.287 156.845C274.01 156.742 274.744 156.93 275.328 157.367C275.913 157.805 276.3 158.457 276.405 159.18Z"
							fill="#B0D9FF" />
						<path
							d="M265.343 170.58C263.132 169.525 260.658 169.148 258.232 169.496C255.808 169.845 253.54 170.903 251.715 172.538"
							stroke="#020064" stroke-width="3.84" stroke-linecap="round" stroke-linejoin="round" />
						<path
							d="M240.884 136.65C240.884 136.65 253.498 127.903 261.27 133.72L276.815 145.359C276.815 145.359 284.587 151.181 292.347 140.816L287.49 139.204L293.634 133.697C293.634 133.697 289.103 134.346 283.596 128.202C278.089 122.058 269.342 109.444 253.487 111.721C230.831 114.973 230.52 128.893 230.52 128.893L240.884 136.65Z"
							fill="white" />
						<path
							d="M240.884 136.65C240.884 136.65 253.498 127.903 261.27 133.72L276.815 145.359C276.815 145.359 284.587 151.181 292.347 140.816L287.49 139.204L293.634 133.697C293.634 133.697 289.103 134.346 283.596 128.202C278.089 122.058 269.342 109.444 253.487 111.721C230.831 114.973 230.52 128.893 230.52 128.893L240.884 136.65Z"
							stroke="#020064" stroke-width="3.84" stroke-linecap="round" stroke-linejoin="round" />
						<path
							d="M288.48 166.76C291.008 166.76 293.057 164.711 293.057 162.183C293.057 159.654 291.008 157.605 288.48 157.605C285.952 157.605 283.902 159.654 283.902 162.183C283.902 164.711 285.952 166.76 288.48 166.76Z"
							fill="#B0D9FF" stroke="#020064" stroke-width="3.84" stroke-linecap="round" stroke-linejoin="round" />
						<path
							d="M227.316 175.545C229.843 175.545 231.893 173.496 231.893 170.968C231.893 168.44 229.843 166.391 227.316 166.391C224.788 166.391 222.738 168.44 222.738 170.968C222.738 173.496 224.788 175.545 227.316 175.545Z"
							fill="#B0D9FF" stroke="#020064" stroke-width="3.84" stroke-linecap="round" stroke-linejoin="round" />
						<path
							d="M230.521 128.893C230.521 128.893 219.197 130.517 221.148 144.111C222.776 155.435 229.899 156.725 229.899 156.725C229.899 156.725 232.476 142.482 240.885 136.649L230.521 128.893Z"
							fill="white" />
						<path
							d="M230.521 128.893C230.521 128.893 219.197 130.517 221.148 144.111C222.776 155.435 229.899 156.725 229.899 156.725C229.899 156.725 232.476 142.482 240.885 136.649L230.521 128.893Z"
							stroke="#020064" stroke-width="3.84" stroke-linecap="round" stroke-linejoin="round" />
						<path
							d="M268.735 151.488C268.437 151.896 268.061 152.24 267.629 152.502C267.197 152.764 266.717 152.938 266.218 153.015C265.719 153.091 265.209 153.068 264.718 152.947C264.228 152.826 263.766 152.61 263.359 152.31"
							stroke="#020064" stroke-width="3.84" stroke-linecap="round" stroke-linejoin="round" />
						<path
							d="M249.411 154.426C249.112 154.833 248.736 155.177 248.304 155.439C247.872 155.7 247.392 155.874 246.893 155.95C246.394 156.026 245.884 156.003 245.394 155.882C244.903 155.76 244.442 155.544 244.035 155.244"
							stroke="#020064" stroke-width="3.84" stroke-linecap="round" stroke-linejoin="round" />
						<path
							d="M164.024 229.41C192.951 211.709 202.051 173.909 184.35 144.982C166.648 116.055 128.848 106.955 99.9215 124.656C70.9944 142.358 61.8944 180.158 79.596 209.085C97.2973 238.012 135.097 247.112 164.024 229.41Z"
							fill="white" stroke="#020064" stroke-width="3.84" stroke-linecap="round" stroke-linejoin="round" />
						<path
							d="M131.973 226.161C159.104 226.161 181.098 204.167 181.098 177.036C181.098 149.905 159.104 127.911 131.973 127.911C104.842 127.911 82.8477 149.905 82.8477 177.036C82.8477 204.167 104.842 226.161 131.973 226.161Z"
							fill="#B0D9FF" />
						<path
							d="M237.912 279.552L237.36 280.105C235.123 282.324 232.1 283.569 228.95 283.569C225.799 283.569 222.776 282.324 220.54 280.105L183.98 243.544C183.24 242.799 182.824 241.791 182.824 240.741C182.824 239.691 183.24 238.683 183.98 237.938L195.745 226.176C196.491 225.436 197.498 225.021 198.549 225.021C199.599 225.021 200.606 225.436 201.352 226.176L237.912 262.737C239.019 263.839 239.897 265.15 240.496 266.592C241.095 268.035 241.404 269.582 241.404 271.144C241.404 272.706 241.095 274.254 240.496 275.696C239.897 277.139 239.019 278.449 237.912 279.552Z"
							fill="#B0D9FF" />
						<path
							d="M195.657 226.245L182.018 212.621C180.028 215.413 177.808 218.035 175.382 220.459C173.915 221.925 172.396 223.301 170.824 224.587L184.065 237.827L195.657 226.245Z"
							fill="white" stroke="#020064" stroke-width="3.84" stroke-linecap="round" stroke-linejoin="round" />
						<path
							d="M237.912 279.552L237.36 280.105C235.123 282.324 232.1 283.569 228.95 283.569C225.799 283.569 222.776 282.324 220.54 280.105L183.98 243.544C183.24 242.799 182.824 241.791 182.824 240.741C182.824 239.691 183.24 238.683 183.98 237.938L195.745 226.176C196.491 225.436 197.498 225.021 198.549 225.021C199.599 225.021 200.606 225.436 201.352 226.176L237.912 262.737C239.019 263.839 239.897 265.15 240.496 266.592C241.095 268.035 241.404 269.582 241.404 271.144C241.404 272.706 241.095 274.254 240.496 275.696C239.897 277.139 239.019 278.449 237.912 279.552Z"
							stroke="#020064" stroke-width="3.84" stroke-linecap="round" stroke-linejoin="round" />
						<path
							d="M131.973 226.161C159.104 226.161 181.098 204.167 181.098 177.036C181.098 149.905 159.104 127.911 131.973 127.911C104.842 127.911 82.8477 149.905 82.8477 177.036C82.8477 204.167 104.842 226.161 131.973 226.161Z"
							stroke="#020064" stroke-width="3.84" stroke-linecap="round" stroke-linejoin="round" />
						<path
							d="M199.63 265.885L193.839 259.511C193.081 258.627 192.664 257.5 192.664 256.335C192.664 255.17 193.081 254.044 193.839 253.159L197.084 249.135C197.517 248.56 198.068 248.084 198.7 247.74C199.332 247.397 200.031 247.193 200.749 247.144C201.467 247.094 202.188 247.2 202.861 247.453C203.535 247.707 204.146 248.102 204.653 248.613L211.511 256.162C211.971 256.716 212.307 257.362 212.495 258.057C212.683 258.751 212.72 259.478 212.602 260.188C212.485 260.898 212.215 261.574 211.813 262.171C211.411 262.768 210.885 263.271 210.271 263.647L205.955 266.492C205.002 267.162 203.84 267.47 202.68 267.359C201.52 267.247 200.439 266.725 199.63 265.885Z"
							fill="white" stroke="#020064" stroke-width="3.84" stroke-linejoin="round" />
					</svg>