<svg width="1440" height="175" viewBox="0 0 1440 175" fill="none" xmlns="http://www.w3.org/2000/svg">
<g clip-path="url(#clip0_1762_43285)">
<path fill-rule="evenodd" clip-rule="evenodd" d="M-9.17969 133.426L51.8567 137.278C112.893 141.131 234.966 148.837 356.916 154.459C478.866 160.08 600.693 163.619 722.029 158.824C843.364 154.028 964.209 140.899 1085.42 134.02C1206.64 127.142 1328.22 126.513 1450.04 130.052C1571.87 133.59 1693.94 141.296 1754.98 145.148L1816.02 149.001L1821.17 236.506L1760.38 236.82C1699.59 237.134 1578.01 237.763 1456.43 238.391C1334.85 239.02 1213.27 239.648 1091.69 240.276C970.104 240.905 848.522 241.533 726.941 242.162C605.36 242.79 483.778 243.419 362.197 244.047C240.615 244.675 119.034 245.304 58.243 245.618L-2.54777 245.932L-9.17969 133.426Z" fill="#FBFDFF" fill-opacity="0.2"/>
<path fill-rule="evenodd" clip-rule="evenodd" d="M-6 139L54.8 143.148C115.6 147.296 237.2 155.593 358.8 161.815C480.4 168.037 602 172.185 723.6 168.037C845.2 163.889 966.8 151.444 1088.4 145.222C1210 139 1331.6 139 1453.2 143.148C1574.8 147.296 1696.4 155.593 1757.2 159.741L1818 163.889V251H1757.2C1696.4 251 1574.8 251 1453.2 251C1331.6 251 1210 251 1088.4 251C966.8 251 845.2 251 723.6 251C602 251 480.4 251 358.8 251C237.2 251 115.6 251 54.8 251H-6L-6 139Z" fill="#FBFDFF"/>
<path fill-rule="evenodd" clip-rule="evenodd" d="M-6 125L54.8 129.148C115.6 133.296 237.2 141.593 358.8 147.815C480.4 154.037 602 158.185 723.6 154.037C845.2 149.889 966.8 137.444 1088.4 131.222C1210 125 1331.6 125 1453.2 129.148C1574.8 133.296 1696.4 141.593 1757.2 145.741L1818 149.889V237H1757.2C1696.4 237 1574.8 237 1453.2 237C1331.6 237 1210 237 1088.4 237C966.8 237 845.2 237 723.6 237C602 237 480.4 237 358.8 237C237.2 237 115.6 237 54.8 237H-6V125Z" fill="#FBFDFF" fill-opacity="0.1"/>
</g>
<defs>
<clipPath id="clip0_1762_43285">
<rect width="1440" height="175" fill="white"/>
</clipPath>
</defs>
</svg>
