<svg width="256" height="256" viewBox="0 0 256 256" fill="none" xmlns="http://www.w3.org/2000/svg">
<path d="M25.9971 128.4C25.9971 155.558 36.7856 181.604 55.9893 200.808C75.1931 220.011 101.239 230.8 128.397 230.8C155.555 230.8 181.601 220.011 200.805 200.808C220.009 181.604 230.797 155.558 230.797 128.4C230.797 101.242 220.009 75.196 200.805 55.9923C181.601 36.7885 155.555 26 128.397 26C101.239 26 75.1931 36.7885 55.9893 55.9923C36.7856 75.196 25.9971 101.242 25.9971 128.4Z" fill="#D1E7FF"/>
<path d="M115.69 78.5186H139.344V195.354H115.69V78.5186Z" fill="#D1E7FF" stroke="#537599" stroke-width="2.56" stroke-linecap="round" stroke-linejoin="round"/>
<path d="M139.344 195.355L208.669 178.671C209.972 178.371 211.135 177.639 211.968 176.592C212.801 175.546 213.254 174.248 213.254 172.911V68.207C213.254 67.3177 213.053 66.4399 212.666 65.6389C212.28 64.8379 211.717 64.1344 211.021 63.5806C210.326 63.0269 209.514 62.6372 208.646 62.4405C207.779 62.2438 206.879 62.2451 206.012 62.4445L139.344 78.5187V195.355Z" fill="#D1E7FF" stroke="#537599" stroke-width="2.56" stroke-linecap="round" stroke-linejoin="round"/>
<path d="M115.69 195.355L46.3647 178.671C45.0615 178.371 43.8983 177.639 43.0655 176.592C42.2327 175.546 41.7794 174.248 41.7798 172.911V68.207C41.7802 67.3177 41.9812 66.4399 42.3677 65.6389C42.7543 64.8379 43.3164 64.1344 44.0123 63.5806C44.7083 63.0269 45.5201 62.6372 46.3874 62.4405C47.2548 62.2438 48.1553 62.2451 49.022 62.4445L115.69 78.5187V195.355Z" fill="#D1E7FF" stroke="#537599" stroke-width="2.56" stroke-linecap="round" stroke-linejoin="round"/>
<path d="M48.7993 170.18C48.7995 170.844 49.0233 171.489 49.4348 172.011C49.8463 172.532 50.4214 172.9 51.0675 173.055L115.69 188.507V92.5352L52.4576 77.4107C52.0231 77.3072 51.5708 77.3033 51.1346 77.3994C50.6984 77.4955 50.2897 77.6891 49.9389 77.9657C49.5882 78.2423 49.3047 78.5947 49.1095 78.9964C48.9144 79.3982 48.8127 79.8389 48.8121 80.2856L48.7993 170.18Z" fill="#F3F9FF" stroke="#537599" stroke-width="2.56" stroke-linecap="round" stroke-linejoin="round"/>
<path d="M77.2515 203.191C77.2515 203.832 78.5134 204.466 80.9653 205.058C83.4171 205.65 87.0108 206.188 91.5413 206.641C96.0717 207.094 101.45 207.454 107.369 207.699C113.289 207.944 119.633 208.07 126.04 208.07C132.447 208.07 138.791 207.944 144.71 207.699C150.63 207.454 156.008 207.094 160.539 206.641C165.069 206.188 168.663 205.65 171.115 205.058C173.566 204.466 174.828 203.832 174.828 203.191C174.828 202.55 173.566 201.916 171.115 201.324C168.663 200.732 165.069 200.194 160.539 199.741C156.008 199.288 150.63 198.928 144.71 198.683C138.791 198.438 132.447 198.312 126.04 198.312C119.633 198.312 113.289 198.438 107.369 198.683C101.45 198.928 96.0717 199.288 91.5413 199.741C87.0108 200.194 83.4171 200.732 80.9653 201.324C78.5134 201.916 77.2515 202.55 77.2515 203.191Z" fill="#D1E7FF"/>
<path d="M56.605 164.829C56.6051 165.493 56.829 166.138 57.2405 166.66C57.652 167.181 58.2271 167.549 58.8732 167.704L118.301 181.92C118.735 182.024 119.188 182.029 119.624 181.933C120.061 181.837 120.47 181.644 120.821 181.367C121.172 181.09 121.455 180.737 121.649 180.335C121.844 179.933 121.945 179.492 121.944 179.045V89.8671C121.944 89.2026 121.721 88.5575 121.309 88.0358C120.897 87.5142 120.322 87.1465 119.676 86.9922L60.2376 72.7765C59.8029 72.6745 59.3508 72.6722 58.915 72.7698C58.4793 72.8675 58.0714 73.0626 57.7219 73.3405C57.3723 73.6183 57.0902 73.9717 56.8968 74.3742C56.7034 74.7766 56.6036 75.2177 56.605 75.6642V164.829Z" fill="#F3F9FF" stroke="#537599" stroke-width="2.56" stroke-linecap="round" stroke-linejoin="round"/>
<path d="M206.234 170.18C206.234 170.844 206.01 171.489 205.599 172.011C205.188 172.532 204.612 172.9 203.966 173.055L139.344 188.507V92.5352L202.589 77.4107C203.024 77.3072 203.476 77.3033 203.912 77.3994C204.348 77.4955 204.757 77.6891 205.108 77.9657C205.458 78.2423 205.742 78.5947 205.937 78.9964C206.132 79.3982 206.234 79.8389 206.234 80.2856V170.18Z" fill="#F3F9FF" stroke="#537599" stroke-width="2.56" stroke-linecap="round" stroke-linejoin="round"/>
<path d="M198.442 164.829C198.442 165.494 198.218 166.138 197.807 166.66C197.395 167.182 196.82 167.549 196.174 167.704L136.733 181.92C136.299 182.024 135.846 182.029 135.41 181.933C134.973 181.838 134.564 181.644 134.213 181.367C133.863 181.09 133.579 180.738 133.385 180.335C133.19 179.933 133.09 179.492 133.09 179.045V89.8673C133.09 89.2029 133.314 88.5577 133.725 88.0361C134.137 87.5144 134.712 87.1467 135.359 86.9924L194.804 72.7768C195.239 72.6738 195.692 72.6708 196.128 72.7681C196.565 72.8653 196.973 73.0603 197.324 73.3382C197.674 73.6162 197.956 73.9699 198.15 74.3728C198.344 74.7758 198.444 75.2174 198.442 75.6644V164.829Z" fill="#F3F9FF" stroke="#537599" stroke-width="2.56" stroke-linecap="round" stroke-linejoin="round"/>
<path d="M71.3379 85.9531V112.564L106.819 121.435" stroke="#537599" stroke-width="2.56" stroke-linecap="round" stroke-linejoin="round"/>
<path d="M77.2515 103.694L86.1219 94.8232L92.0355 106.65L94.9923 103.694L99.4287 112.564L106.08 101.477" stroke="#537599" stroke-width="2.56" stroke-linecap="round" stroke-linejoin="round"/>
<path d="M83.165 130.305L106.819 136.218" stroke="#537599" stroke-width="2.56" stroke-linecap="round" stroke-linejoin="round"/>
<path d="M71.3379 139.176L106.819 148.046" stroke="#537599" stroke-width="2.56" stroke-linecap="round" stroke-linejoin="round"/>
<path d="M71.3379 151.003L106.819 159.873" stroke="#537599" stroke-width="2.56" stroke-linecap="round" stroke-linejoin="round"/>
<path d="M136.656 102.081C135.992 102.437 135.215 102.522 134.49 102.317C133.765 102.112 133.147 101.634 132.767 100.983C132.27 100.02 131.518 99.2123 130.592 98.6484C129.666 98.0845 128.603 97.7862 127.519 97.7862C126.436 97.7862 125.373 98.0845 124.447 98.6484C123.521 99.2123 122.769 100.02 122.271 100.983C122.126 101.298 121.92 101.58 121.664 101.815C121.409 102.05 121.11 102.232 120.785 102.351C120.459 102.47 120.113 102.523 119.767 102.508C119.421 102.493 119.081 102.41 118.767 102.263L118.383 102.071C118.032 101.894 117.721 101.647 117.468 101.347C117.215 101.046 117.024 100.698 116.908 100.322C116.793 99.9469 116.754 99.5519 116.794 99.161C116.834 98.77 116.952 98.3912 117.141 98.0469C118.153 96.1749 119.651 94.6113 121.479 93.5216C123.306 92.4318 125.394 91.8564 127.522 91.8564C129.65 91.8564 131.738 92.4318 133.565 93.5216C135.393 94.6113 136.891 96.1749 137.903 98.0469C138.094 98.3919 138.213 98.772 138.254 99.1642C138.294 99.5565 138.255 99.9529 138.139 100.33C138.022 100.706 137.831 101.056 137.576 101.357C137.321 101.658 137.008 101.904 136.656 102.081Z" fill="#F3F9FF"/>
<path d="M136.656 102.081C135.992 102.437 135.215 102.522 134.49 102.317C133.765 102.112 133.147 101.634 132.767 100.983C132.27 100.02 131.518 99.2123 130.592 98.6484C129.666 98.0845 128.603 97.7862 127.519 97.7862C126.436 97.7862 125.373 98.0845 124.447 98.6484C123.521 99.2123 122.769 100.02 122.271 100.983C122.126 101.298 121.92 101.58 121.664 101.815C121.409 102.05 121.11 102.232 120.785 102.351C120.459 102.47 120.113 102.523 119.767 102.508C119.421 102.493 119.081 102.41 118.767 102.263L118.383 102.071C118.032 101.894 117.721 101.647 117.468 101.347C117.215 101.046 117.024 100.698 116.908 100.322C116.793 99.9469 116.754 99.5519 116.794 99.161C116.834 98.77 116.952 98.3912 117.141 98.0469C118.153 96.1749 119.651 94.6113 121.479 93.5216C123.306 92.4318 125.394 91.8564 127.522 91.8564C129.65 91.8564 131.738 92.4318 133.565 93.5216C135.393 94.6113 136.891 96.1749 137.903 98.0469C138.094 98.3919 138.213 98.772 138.254 99.1642C138.294 99.5565 138.255 99.9529 138.139 100.33C138.022 100.706 137.831 101.056 137.576 101.357C137.321 101.658 137.008 101.904 136.656 102.081Z" stroke="#537599" stroke-width="2.56" stroke-linecap="round" stroke-linejoin="round"/>
<path d="M137.657 121.289C136.591 119.496 135.068 118.017 133.244 117.005C131.42 115.992 129.36 115.481 127.274 115.524C125.188 115.567 123.151 116.162 121.37 117.249C119.589 118.336 118.128 119.876 117.136 121.711C116.947 122.055 116.829 122.434 116.789 122.825C116.749 123.216 116.788 123.611 116.904 123.986C117.019 124.362 117.21 124.71 117.463 125.011C117.716 125.311 118.027 125.558 118.378 125.735L118.762 125.927C118.869 125.98 118.979 126.027 119.092 126.066C119.034 125.517 119.147 124.963 119.415 124.481C120.426 122.608 121.924 121.043 123.751 119.951C125.577 118.858 127.665 118.278 129.793 118.273C132.698 118.267 135.501 119.342 137.657 121.289Z" fill="#F3F9FF"/>
<path d="M136.656 125.736C135.992 126.092 135.215 126.176 134.49 125.971C133.765 125.767 133.147 125.288 132.767 124.637C132.27 123.674 131.518 122.867 130.592 122.303C129.666 121.739 128.603 121.441 127.519 121.441C126.436 121.441 125.373 121.739 124.447 122.303C123.521 122.867 122.769 123.674 122.271 124.637C122.126 124.952 121.92 125.235 121.664 125.469C121.409 125.704 121.11 125.886 120.785 126.005C120.459 126.124 120.113 126.177 119.767 126.162C119.421 126.147 119.081 126.064 118.767 125.917L118.383 125.726C118.032 125.548 117.721 125.301 117.468 125.001C117.215 124.701 117.024 124.352 116.908 123.977C116.793 123.601 116.754 123.206 116.794 122.815C116.834 122.424 116.952 122.045 117.141 121.701C118.153 119.829 119.651 118.266 121.479 117.176C123.306 116.086 125.394 115.511 127.522 115.511C129.65 115.511 131.738 116.086 133.565 117.176C135.393 118.266 136.891 119.829 137.903 121.701C138.094 122.046 138.213 122.426 138.254 122.819C138.294 123.211 138.255 123.607 138.139 123.984C138.022 124.361 137.831 124.71 137.576 125.011C137.321 125.312 137.008 125.559 136.656 125.736Z" stroke="#537599" stroke-width="2.56" stroke-linecap="round" stroke-linejoin="round"/>
<path d="M136.656 149.392C135.992 149.748 135.215 149.832 134.49 149.628C133.765 149.423 133.147 148.945 132.767 148.294C132.27 147.331 131.518 146.523 130.592 145.959C129.666 145.395 128.603 145.097 127.519 145.097C126.436 145.097 125.373 145.395 124.447 145.959C123.521 146.523 122.769 147.331 122.271 148.294C122.126 148.608 121.92 148.891 121.664 149.126C121.409 149.36 121.11 149.542 120.785 149.661C120.459 149.78 120.113 149.834 119.767 149.819C119.421 149.804 119.081 149.72 118.767 149.574L118.383 149.382C118.032 149.204 117.721 148.958 117.468 148.657C117.215 148.357 117.024 148.008 116.908 147.633C116.793 147.257 116.754 146.862 116.794 146.472C116.834 146.081 116.952 145.702 117.141 145.357C118.153 143.485 119.651 141.922 121.479 140.832C123.306 139.742 125.394 139.167 127.522 139.167C129.65 139.167 131.738 139.742 133.565 140.832C135.393 141.922 136.891 143.485 137.903 145.357C138.094 145.702 138.213 146.082 138.254 146.475C138.294 146.867 138.255 147.263 138.139 147.64C138.022 148.017 137.831 148.366 137.576 148.667C137.321 148.968 137.008 149.215 136.656 149.392Z" fill="#F3F9FF"/>
<path d="M136.656 149.392C135.992 149.748 135.215 149.832 134.49 149.628C133.765 149.423 133.147 148.945 132.767 148.294C132.27 147.331 131.518 146.523 130.592 145.959C129.666 145.395 128.603 145.097 127.519 145.097C126.436 145.097 125.373 145.395 124.447 145.959C123.521 146.523 122.769 147.331 122.271 148.294C122.126 148.608 121.92 148.891 121.664 149.126C121.409 149.36 121.11 149.542 120.785 149.661C120.459 149.78 120.113 149.834 119.767 149.819C119.421 149.804 119.081 149.72 118.767 149.574L118.383 149.382C118.032 149.204 117.721 148.958 117.468 148.657C117.215 148.357 117.024 148.008 116.908 147.633C116.793 147.257 116.754 146.862 116.794 146.472C116.834 146.081 116.952 145.702 117.141 145.357C118.153 143.485 119.651 141.922 121.479 140.832C123.306 139.742 125.394 139.167 127.522 139.167C129.65 139.167 131.738 139.742 133.565 140.832C135.393 141.922 136.891 143.485 137.903 145.357C138.094 145.702 138.213 146.083 138.254 146.475C138.294 146.867 138.255 147.263 138.139 147.64C138.022 148.017 137.831 148.366 137.576 148.667C137.321 148.968 137.008 149.215 136.656 149.392Z" stroke="#537599" stroke-width="2.56" stroke-linecap="round" stroke-linejoin="round"/>
<path d="M137.657 168.592C136.591 166.799 135.068 165.321 133.244 164.308C131.42 163.296 129.36 162.785 127.274 162.828C125.188 162.871 123.151 163.466 121.37 164.553C119.589 165.64 118.128 167.179 117.136 169.015C116.947 169.359 116.829 169.738 116.789 170.129C116.749 170.52 116.788 170.915 116.904 171.29C117.019 171.666 117.21 172.014 117.463 172.315C117.716 172.615 118.027 172.861 118.378 173.039L118.762 173.231C118.869 173.284 118.979 173.33 119.092 173.369C119.034 172.82 119.147 172.267 119.415 171.785C120.426 169.912 121.924 168.347 123.751 167.254C125.577 166.162 127.665 165.582 129.793 165.577C132.698 165.571 135.501 166.646 137.657 168.592Z" fill="#F3F9FF"/>
<path d="M136.656 173.044C135.992 173.4 135.215 173.485 134.49 173.28C133.765 173.075 133.147 172.597 132.767 171.946C132.27 170.983 131.518 170.175 130.592 169.611C129.666 169.047 128.603 168.749 127.519 168.749C126.436 168.749 125.373 169.047 124.447 169.611C123.521 170.175 122.769 170.983 122.271 171.946C122.126 172.261 121.92 172.543 121.664 172.778C121.409 173.013 121.11 173.195 120.785 173.314C120.459 173.432 120.113 173.486 119.767 173.471C119.421 173.456 119.081 173.373 118.767 173.226L118.383 173.034C118.032 172.856 117.721 172.61 117.468 172.31C117.215 172.009 117.024 171.661 116.908 171.285C116.793 170.91 116.754 170.515 116.794 170.124C116.834 169.733 116.952 169.354 117.141 169.01C118.153 167.138 119.651 165.574 121.479 164.484C123.306 163.395 125.394 162.819 127.522 162.819C129.65 162.819 131.738 163.395 133.565 164.484C135.393 165.574 136.891 167.138 137.903 169.01C138.094 169.355 138.213 169.735 138.254 170.127C138.294 170.519 138.255 170.916 138.139 171.293C138.022 171.669 137.831 172.019 137.576 172.32C137.321 172.621 137.008 172.867 136.656 173.044Z" stroke="#537599" stroke-width="2.56" stroke-linecap="round" stroke-linejoin="round"/>
<path d="M136.656 125.736C135.992 126.092 135.215 126.176 134.49 125.971C133.765 125.767 133.147 125.288 132.767 124.637C132.27 123.674 131.518 122.867 130.592 122.303C129.666 121.739 128.603 121.441 127.519 121.441C126.436 121.441 125.373 121.739 124.447 122.303C123.521 122.867 122.769 123.674 122.271 124.637C122.126 124.952 121.92 125.235 121.664 125.469C121.409 125.704 121.11 125.886 120.785 126.005C120.459 126.124 120.113 126.177 119.767 126.162C119.421 126.147 119.081 126.064 118.767 125.917L118.383 125.726C118.032 125.548 117.721 125.301 117.468 125.001C117.215 124.701 117.024 124.352 116.908 123.977C116.793 123.601 116.754 123.206 116.794 122.815C116.834 122.424 116.952 122.045 117.141 121.701C118.153 119.829 119.651 118.266 121.479 117.176C123.306 116.086 125.394 115.511 127.522 115.511C129.65 115.511 131.738 116.086 133.565 117.176C135.393 118.266 136.891 119.829 137.903 121.701C138.094 122.046 138.213 122.426 138.254 122.819C138.294 123.211 138.255 123.607 138.139 123.984C138.022 124.361 137.831 124.71 137.576 125.011C137.321 125.312 137.008 125.559 136.656 125.736Z" fill="#F3F9FF" stroke="#537599" stroke-width="2.56" stroke-linecap="round" stroke-linejoin="round"/>
<path d="M136.656 173.044C135.992 173.4 135.215 173.485 134.49 173.28C133.765 173.075 133.147 172.597 132.767 171.946C132.27 170.983 131.518 170.175 130.592 169.611C129.666 169.047 128.603 168.749 127.519 168.749C126.436 168.749 125.373 169.047 124.447 169.611C123.521 170.175 122.769 170.983 122.271 171.946C122.126 172.261 121.92 172.543 121.664 172.778C121.409 173.013 121.11 173.195 120.785 173.314C120.459 173.432 120.113 173.486 119.767 173.471C119.421 173.456 119.081 173.373 118.767 173.226L118.383 173.034C118.032 172.856 117.721 172.61 117.468 172.31C117.215 172.009 117.024 171.661 116.908 171.285C116.793 170.91 116.754 170.515 116.794 170.124C116.834 169.733 116.952 169.354 117.141 169.01C118.153 167.138 119.651 165.574 121.479 164.484C123.306 163.395 125.394 162.819 127.522 162.819C129.65 162.819 131.738 163.395 133.565 164.484C135.393 165.574 136.891 167.138 137.903 169.01C138.094 169.355 138.213 169.735 138.254 170.127C138.294 170.519 138.255 170.916 138.139 171.293C138.022 171.669 137.831 172.019 137.576 172.32C137.321 172.621 137.008 172.867 136.656 173.044Z" fill="#F3F9FF"/>
<path d="M136.656 173.044C135.992 173.4 135.215 173.485 134.49 173.28C133.765 173.075 133.147 172.597 132.767 171.946C132.27 170.983 131.518 170.175 130.592 169.611C129.666 169.047 128.603 168.749 127.519 168.749C126.436 168.749 125.373 169.047 124.447 169.611C123.521 170.175 122.769 170.983 122.271 171.946C122.126 172.261 121.92 172.543 121.664 172.778C121.409 173.013 121.11 173.195 120.785 173.314C120.459 173.432 120.113 173.486 119.767 173.471C119.421 173.456 119.081 173.373 118.767 173.226L118.383 173.034C118.032 172.856 117.721 172.61 117.468 172.31C117.215 172.009 117.024 171.661 116.908 171.285C116.793 170.91 116.754 170.515 116.794 170.124C116.834 169.733 116.952 169.354 117.141 169.01C118.153 167.138 119.651 165.574 121.479 164.484C123.306 163.395 125.394 162.819 127.522 162.819C129.65 162.819 131.738 163.395 133.565 164.484C135.393 165.574 136.891 167.138 137.903 169.01C138.094 169.355 138.213 169.735 138.254 170.127C138.294 170.519 138.255 170.916 138.139 171.293C138.022 171.669 137.831 172.019 137.576 172.32C137.321 172.621 137.008 172.867 136.656 173.044Z" stroke="#537599" stroke-width="2.56" stroke-linecap="round" stroke-linejoin="round"/>
<path d="M171.869 116.168C171.869 116.828 171.648 117.468 171.242 117.988C170.836 118.508 170.269 118.878 169.629 119.038L151.888 123.472C151.452 123.581 150.997 123.589 150.558 123.496C150.118 123.403 149.706 123.211 149.352 122.934C148.998 122.658 148.711 122.304 148.514 121.901C148.317 121.497 148.215 121.054 148.214 120.605V97.1321C148.214 96.4728 148.435 95.8323 148.841 95.3128C149.247 94.7932 149.815 94.4243 150.454 94.2649L168.195 89.8284C168.631 89.7195 169.086 89.7114 169.526 89.8047C169.965 89.898 170.378 90.0903 170.732 90.3669C171.086 90.6436 171.373 90.9973 171.57 91.4013C171.767 91.8052 171.869 92.2488 171.869 92.6982V116.168Z" fill="#D1E7FF" stroke="#537599" stroke-width="2.56" stroke-linecap="round" stroke-linejoin="round"/>
<path d="M189.61 153.778C189.61 154.437 189.389 155.078 188.983 155.598C188.578 156.118 188.01 156.487 187.37 156.647L169.629 161.081C169.193 161.19 168.739 161.198 168.299 161.105C167.86 161.012 167.447 160.82 167.093 160.544C166.739 160.267 166.453 159.914 166.255 159.51C166.058 159.107 165.956 158.663 165.956 158.214V134.741C165.956 134.082 166.176 133.441 166.582 132.921C166.988 132.402 167.556 132.032 168.196 131.872L185.936 127.438C186.372 127.329 186.827 127.321 187.266 127.414C187.706 127.507 188.118 127.699 188.472 127.976C188.827 128.252 189.113 128.605 189.31 129.009C189.507 129.413 189.61 129.856 189.61 130.305V153.778Z" fill="#D1E7FF" stroke="#537599" stroke-width="2.56" stroke-linecap="round" stroke-linejoin="round"/>
</svg>
