<svg width="1120" height="374" viewBox="0 0 1120 374" fill="none" xmlns="http://www.w3.org/2000/svg">
<rect opacity="0.5" width="1120" height="374" fill="#1888FF"/>
<g opacity="0.8">
<mask id="path-2-inside-1_435_111015" fill="white">
<path fill-rule="evenodd" clip-rule="evenodd" d="M956 286C1062.04 286 1148 200.039 1148 94C1148 -12.0387 1062.04 -98 956 -98C849.961 -98 764 -12.0387 764 94C764 200.039 849.961 286 956 286ZM894.943 22C927.967 22 940.639 41.968 943.711 57.328L919.903 64.624C918.559 57.136 912.415 45.424 895.135 45.424C882.271 45.424 873.823 53.68 873.823 62.704C873.823 70.192 878.623 76.144 888.607 78.064L907.615 81.712C932.383 86.512 945.631 102.64 945.631 121.84C945.631 142.768 928.159 163.888 896.479 163.888C860.383 163.888 844.447 140.656 842.335 121.264L866.911 114.736C868.063 128.176 877.471 140.272 896.671 140.272C910.879 140.272 918.751 133.168 918.751 123.568C918.751 115.696 912.799 109.552 902.239 107.44L883.231 103.6C861.535 99.184 847.519 85.168 847.519 64.624C847.519 40.432 869.215 22 894.943 22ZM973.236 24.88L1008.76 126.064L1044.28 24.88H1072.31L1021.81 161.008H994.548L944.244 24.88H973.236Z"/>
</mask>
<path d="M943.711 57.328L943.858 57.8061L944.29 57.6735L944.202 57.2299L943.711 57.328ZM919.903 64.624L919.411 64.7123L919.511 65.2672L920.05 65.1021L919.903 64.624ZM888.607 78.064L888.513 78.555L888.513 78.555L888.607 78.064ZM907.615 81.712L907.711 81.2211L907.71 81.221L907.615 81.712ZM842.335 121.264L842.207 120.781L841.792 120.891L841.838 121.318L842.335 121.264ZM866.911 114.736L867.41 114.693L867.359 114.1L866.783 114.253L866.911 114.736ZM902.239 107.44L902.14 107.93L902.141 107.93L902.239 107.44ZM883.231 103.6L883.132 104.09L883.132 104.09L883.231 103.6ZM1008.76 126.064L1008.28 126.23L1008.76 127.574L1009.23 126.23L1008.76 126.064ZM973.236 24.88L973.708 24.7144L973.59 24.38H973.236V24.88ZM1044.28 24.88V24.38H1043.92L1043.8 24.7144L1044.28 24.88ZM1072.31 24.88L1072.78 25.0539L1073.03 24.38H1072.31V24.88ZM1021.81 161.008V161.508H1022.16L1022.28 161.182L1021.81 161.008ZM994.548 161.008L994.079 161.181L994.2 161.508H994.548V161.008ZM944.244 24.88V24.38H943.526L943.775 25.0533L944.244 24.88ZM1147.5 94C1147.5 199.763 1061.76 285.5 956 285.5V286.5C1062.31 286.5 1148.5 200.315 1148.5 94H1147.5ZM956 -97.5C1061.76 -97.5 1147.5 -11.7625 1147.5 94H1148.5C1148.5 -12.3148 1062.31 -98.5 956 -98.5V-97.5ZM764.5 94C764.5 -11.7625 850.237 -97.5 956 -97.5V-98.5C849.685 -98.5 763.5 -12.3148 763.5 94H764.5ZM956 285.5C850.237 285.5 764.5 199.763 764.5 94H763.5C763.5 200.315 849.685 286.5 956 286.5V285.5ZM944.202 57.2299C942.649 49.4663 938.669 40.5301 930.894 33.5323C923.111 26.5277 911.563 21.5 894.943 21.5V22.5C911.348 22.5 922.648 27.4563 930.225 34.2757C937.81 41.1019 941.702 49.8297 943.221 57.4261L944.202 57.2299ZM920.05 65.1021L943.858 57.8061L943.565 56.8499L919.757 64.1459L920.05 65.1021ZM895.135 45.924C903.651 45.924 909.377 48.8049 913.142 52.5695C916.918 56.3459 918.753 61.0449 919.411 64.7123L920.396 64.5357C919.71 60.7151 917.801 55.8141 913.849 51.8624C909.886 47.8991 903.9 44.924 895.135 44.924V45.924ZM874.323 62.704C874.323 54.0252 882.473 45.924 895.135 45.924V44.924C882.07 44.924 873.323 53.3348 873.323 62.704H874.323ZM888.702 77.573C883.788 76.628 880.198 74.7005 877.84 72.1337C875.485 69.5711 874.323 66.3358 874.323 62.704H873.323C873.323 66.5603 874.562 70.0449 877.103 72.8103C879.641 75.5715 883.443 77.58 888.513 78.555L888.702 77.573ZM907.71 81.221L888.702 77.573L888.513 78.555L907.521 82.203L907.71 81.221ZM946.131 121.84C946.131 102.359 932.671 86.0583 907.711 81.2211L907.52 82.2029C932.096 86.9657 945.131 102.921 945.131 121.84H946.131ZM896.479 164.388C928.41 164.388 946.131 143.069 946.131 121.84H945.131C945.131 142.467 927.909 163.388 896.479 163.388V164.388ZM841.838 121.318C842.906 131.122 847.467 141.892 856.321 150.212C865.183 158.54 878.317 164.388 896.479 164.388V163.388C878.546 163.388 865.664 157.62 857.006 149.484C848.34 141.34 843.877 130.798 842.832 121.21L841.838 121.318ZM866.783 114.253L842.207 120.781L842.464 121.747L867.04 115.219L866.783 114.253ZM896.671 139.772C887.182 139.772 880.16 136.786 875.37 132.183C870.575 127.576 867.977 121.312 867.41 114.693L866.413 114.779C866.998 121.6 869.68 128.104 874.677 132.905C879.679 137.71 886.961 140.772 896.671 140.772V139.772ZM918.251 123.568C918.251 128.219 916.35 132.25 912.728 135.129C909.096 138.015 903.697 139.772 896.671 139.772V140.772C903.854 140.772 909.494 138.977 913.351 135.911C917.217 132.838 919.251 128.517 919.251 123.568H918.251ZM902.141 107.93C912.56 110.014 918.251 116.017 918.251 123.568H919.251C919.251 115.375 913.039 109.09 902.337 106.95L902.141 107.93ZM883.132 104.09L902.14 107.93L902.338 106.95L883.33 103.11L883.132 104.09ZM847.019 64.624C847.019 75.0176 850.568 83.7815 856.875 90.5022C863.176 97.2171 872.205 101.866 883.132 104.09L883.331 103.11C872.562 100.918 863.735 96.3509 857.604 89.8179C851.479 83.2905 848.019 74.7744 848.019 64.624H847.019ZM894.943 21.5C868.999 21.5 847.019 40.0994 847.019 64.624H848.019C848.019 40.7646 869.431 22.5 894.943 22.5V21.5ZM1009.23 125.898L973.708 24.7144L972.764 25.0456L1008.28 126.23L1009.23 125.898ZM1043.8 24.7144L1008.28 125.898L1009.23 126.23L1044.75 25.0456L1043.8 24.7144ZM1072.31 24.38H1044.28V25.38H1072.31V24.38ZM1022.28 161.182L1072.78 25.0539L1071.84 24.7061L1021.34 160.834L1022.28 161.182ZM994.548 161.508H1021.81V160.508H994.548V161.508ZM943.775 25.0533L994.079 161.181L995.017 160.835L944.713 24.7067L943.775 25.0533ZM973.236 24.38H944.244V25.38H973.236V24.38Z" fill="white" mask="url(#path-2-inside-1_435_111015)"/>
</g>
</svg>
