<svg xmlns="http://www.w3.org/2000/svg" width="1440" height="51" viewBox="0 0 1440 51" fill="none">
<path fill-rule="evenodd" clip-rule="evenodd" d="M-9.17676 9.42578L51.7535 11.4778C112.684 13.5299 234.544 17.634 356.335 20.555C478.125 23.4759 599.846 25.2138 721.288 22.2191C842.73 19.2244 963.893 11.4972 1085.27 7.31941C1206.64 3.1416 1328.22 2.51318 1449.94 4.25102C1571.66 5.98887 1693.52 10.093 1754.45 12.145L1815.38 14.1971L1818.31 63.8886L1757.52 64.2028C1696.73 64.517 1575.15 65.1454 1453.57 65.7739C1331.99 66.4023 1210.4 67.0307 1088.82 67.6591C967.241 68.2875 845.66 68.9159 724.078 69.5444C602.497 70.1728 480.915 70.8012 359.334 71.4296C237.752 72.058 116.171 72.6865 55.38 73.0007L-5.41069 73.3149L-9.17676 9.42578Z" fill="#1888FF" fill-opacity="0.2"/>
<path fill-rule="evenodd" clip-rule="evenodd" d="M-6 15L54.8 17.3704C115.6 19.7407 237.2 24.4815 358.8 28.037C480.4 31.5926 602 33.963 723.6 31.5926C845.2 29.2222 966.8 22.1111 1088.4 18.5556C1210 15 1331.6 15 1453.2 17.3704C1574.8 19.7407 1696.4 24.4815 1757.2 26.8519L1818 29.2222V79H1757.2C1696.4 79 1574.8 79 1453.2 79C1331.6 79 1210 79 1088.4 79C966.8 79 845.2 79 723.6 79C602 79 480.4 79 358.8 79C237.2 79 115.6 79 54.8 79H-6L-6 15Z" fill="#1888FF"/>
<path fill-rule="evenodd" clip-rule="evenodd" d="M-6 1L54.8 3.37037C115.6 5.74074 237.2 10.4815 358.8 14.037C480.4 17.5926 602 19.963 723.6 17.5926C845.2 15.2222 966.8 8.11111 1088.4 4.55556C1210 1 1331.6 1 1453.2 3.37037C1574.8 5.74074 1696.4 10.4815 1757.2 12.8519L1818 15.2222V65H1757.2C1696.4 65 1574.8 65 1453.2 65C1331.6 65 1210 65 1088.4 65C966.8 65 845.2 65 723.6 65C602 65 480.4 65 358.8 65C237.2 65 115.6 65 54.8 65H-6V1Z" fill="#1888FF" fill-opacity="0.1"/>
</svg>