<svg width="161" height="40" viewBox="0 0 161 40" fill="none" xmlns="http://www.w3.org/2000/svg">
<path d="M49.6588 16.2808C49.375 14.8544 48.2045 13 45.1541 13C42.7777 13 40.7736 14.7117 40.7736 16.9584C40.7736 18.8663 42.0683 20.1679 44.0723 20.578L45.828 20.9346C46.8035 21.1307 47.3532 21.7013 47.3532 22.4324C47.3532 23.3239 46.6261 23.9836 45.3137 23.9836C43.5403 23.9836 42.6713 22.8603 42.5649 21.6122L40.2948 22.2184C40.4899 24.0193 41.9619 26.1768 45.296 26.1768C48.2222 26.1768 49.8361 24.2154 49.8361 22.2719C49.8361 20.4888 48.6124 18.9911 46.3246 18.5453L44.5689 18.2065C43.6467 18.0282 43.2033 17.4755 43.2033 16.7801C43.2033 15.942 43.9836 15.1753 45.1719 15.1753C46.768 15.1753 47.3355 16.263 47.4596 16.9584L49.6588 16.2808Z" fill="white"/>
<path d="M60.536 15.6033V13.2675H50.1257V15.6033H54.0983V25.9093H56.5634V15.6033H60.536Z" fill="white"/>
<path d="M68.8324 25.9093H71.4926L66.7042 13.2675H63.8667L59.0428 25.9093H61.6321L62.6784 23.0208H67.786L68.8324 25.9093ZM65.2322 15.9955L66.9702 20.7741H63.4942L65.2322 15.9955Z" fill="white"/>
<path d="M74.8924 25.9093V20.9881H79.7695V18.7236H74.8747V15.6033H80.3725V13.2675H72.4273V25.9093H74.8924Z" fill="white"/>
<path d="M84.2801 25.9093V20.9881H89.1571V18.7236H84.2623V15.6033H89.7601V13.2675H81.8149V25.9093H84.2801Z" fill="white"/>
<path d="M95.8846 22.6642L92.6036 13.2675H89.9257L94.5722 25.9093H97.0905L101.755 13.2675H99.1655L95.8846 22.6642Z" fill="white"/>
<path d="M105.203 25.9093V13.2675H102.72V25.9093H105.203Z" fill="white"/>
<path d="M113.639 25.9093H116.37L113.675 20.7385C115.324 20.257 116.353 18.9197 116.353 17.1545C116.353 14.9614 114.792 13.2675 112.345 13.2675H107.432V25.9093H109.897V21.0416H111.174L113.639 25.9093ZM109.897 18.9197V15.4071H111.883C113.125 15.4071 113.852 16.1025 113.852 17.1724C113.852 18.2065 113.125 18.9197 111.883 18.9197H109.897Z" fill="white"/>
<path d="M127.116 15.6033V13.2675H116.705V15.6033H120.678V25.9093H123.143V15.6033H127.116Z" fill="white"/>
<path d="M132.882 26.1946C135.577 26.1946 137.723 24.5364 137.723 21.4339V13.2675H135.276V21.2556C135.276 22.9138 134.372 23.7875 132.882 23.7875C131.428 23.7875 130.505 22.9138 130.505 21.2556V13.2675H128.058V21.4339C128.058 24.5364 130.204 26.1946 132.882 26.1946Z" fill="white"/>
<path d="M148.004 25.9093H150.664L145.875 13.2675H143.038L138.214 25.9093H140.803L141.85 23.0208H146.957L148.004 25.9093ZM144.403 15.9955L146.141 20.7741H142.665L144.403 15.9955Z" fill="white"/>
<path d="M159.65 25.9093V23.5557H154.046V13.2675H151.598V25.9093H159.65Z" fill="white"/>
<path fill-rule="evenodd" clip-rule="evenodd" d="M16.4237 36C25.2128 36 32.3378 28.8366 32.3378 20C32.3378 11.1634 25.2128 4 16.4237 4C7.63466 4 0.509705 11.1634 0.509705 20C0.509705 28.8366 7.63466 36 16.4237 36ZM11.363 14C14.1002 14 15.1506 15.664 15.4052 16.944L13.4319 17.552C13.3205 16.928 12.8112 15.952 11.3789 15.952C10.3127 15.952 9.61249 16.64 9.61249 17.392C9.61249 18.016 10.0103 18.512 10.8379 18.672L12.4134 18.976C14.4663 19.376 15.5643 20.72 15.5643 22.32C15.5643 24.064 14.1162 25.824 11.4903 25.824C8.49851 25.824 7.17764 23.888 7.00259 22.272L9.03958 21.728C9.13507 22.848 9.91486 23.856 11.5063 23.856C12.6839 23.856 13.3364 23.264 13.3364 22.464C13.3364 21.808 12.843 21.296 11.9678 21.12L10.3923 20.8C8.59399 20.432 7.43227 19.264 7.43227 17.552C7.43227 15.536 9.23055 14 11.363 14ZM17.8524 14.24L20.7965 22.672L23.7405 14.24H26.064L21.8786 25.584H19.6188L15.4493 14.24H17.8524Z" fill="white"/>
</svg>
