<svg width="39" height="40" viewBox="0 0 39 40" fill="none" xmlns="http://www.w3.org/2000/svg">
<path fill-rule="evenodd" clip-rule="evenodd" d="M19.2 39.2008C29.8039 39.2008 38.4 30.6047 38.4 20.0008C38.4 9.39691 29.8039 0.800781 19.2 0.800781C8.59613 0.800781 0 9.39691 0 20.0008C0 30.6047 8.59613 39.2008 19.2 39.2008ZM13.0943 12.8008C16.3967 12.8008 17.6639 14.7976 17.9711 16.3336L15.5903 17.0632C15.4559 16.3144 14.8415 15.1432 13.1135 15.1432C11.8271 15.1432 10.9823 15.9688 10.9823 16.8712C10.9823 17.62 11.4623 18.2152 12.4607 18.4072L14.3615 18.772C16.8383 19.252 18.1631 20.8648 18.1631 22.7848C18.1631 24.8776 16.4159 26.9896 13.2479 26.9896C9.63834 26.9896 8.04474 24.6664 7.83354 22.7272L10.2911 22.0744C10.4063 23.4184 11.3471 24.628 13.2671 24.628C14.6879 24.628 15.4751 23.9176 15.4751 22.9576C15.4751 22.1704 14.8799 21.556 13.8239 21.3448L11.9231 20.9608C9.75354 20.5192 8.35194 19.1176 8.35194 17.0632C8.35194 14.644 10.5215 12.8008 13.0943 12.8008ZM20.9236 13.0888L24.4756 23.2072L28.0276 13.0888H30.8308L25.7812 26.7016H23.0548L18.0244 13.0888H20.9236Z" fill="#1888FF"/>
</svg>
