<svg width="59" height="17" viewBox="0 0 59 17" fill="none" xmlns="http://www.w3.org/2000/svg">
<g clip-path="url(#clip0_1906_206878)">
<path d="M31.9441 8.42427L24.1592 0.648438V16.1818L31.9441 8.42427Z" fill="#F3F9FF"/>
<path d="M16.3742 8.42427L24.1591 0.648438H8.58936L16.3742 8.42427Z" fill="#F3F9FF"/>
<path d="M0.786133 8.42427L8.58934 16.1818V0.648438L0.786133 8.42427Z" fill="#F3F9FF"/>
<path d="M16.3742 8.42432L8.58936 16.1819H24.1591L16.3742 8.42432Z" fill="#F3F9FF"/>
<path d="M38.7762 8.88037H35.9554V11.6548H34.5449V5.15674H35.9554V7.82169H38.7762V5.15674H40.1867V11.6548H38.7762V8.88037Z" fill="#F3F9FF"/>
<path d="M43.594 11.7828C42.1835 11.7828 41.0295 11.2169 41.0112 9.6654H42.4217C42.44 10.359 42.843 10.7788 43.6123 10.7788C44.1801 10.7788 44.8396 10.4868 44.8396 9.84793C44.8396 9.33685 44.3999 9.19082 43.6673 8.97178L43.191 8.84401C42.1652 8.55196 41.1395 8.15039 41.1395 6.98219C41.1395 5.5402 42.4949 5.04736 43.7222 5.04736C44.9861 5.04736 46.0851 5.48544 46.1035 6.92743H44.693C44.6381 6.34334 44.29 5.99653 43.6306 5.99653C43.0994 5.99653 42.5865 6.27032 42.5865 6.85442C42.5865 7.329 43.0261 7.47503 43.942 7.76708L44.4915 7.93136C45.6089 8.27817 46.3233 8.66148 46.3233 9.75667C46.305 11.2169 44.8762 11.7828 43.594 11.7828Z" fill="#F3F9FF"/>
<path d="M47.1108 5.17504H49.3822C49.8035 5.15679 50.2431 5.17504 50.6644 5.24805C51.4521 5.43058 52.0565 5.94167 52.0565 6.81782C52.0565 7.65746 51.5253 8.07729 50.756 8.27807C51.6352 8.44235 52.2947 8.88042 52.2947 9.84784C52.2947 11.3263 50.8293 11.6549 49.6936 11.6549H47.1292L47.1108 5.17504ZM49.3822 7.8765C50.005 7.8765 50.6461 7.74873 50.6461 7.00035C50.6461 6.32499 50.0599 6.14246 49.4738 6.14246H48.4846V7.8765H49.3822ZM49.5104 10.6875C50.1698 10.6875 50.811 10.5415 50.811 9.73832C50.811 8.93518 50.2614 8.78916 49.5837 8.78916H48.4663V10.6875H49.5104Z" fill="#F3F9FF"/>
<path d="M55.9582 11.783C53.8517 11.783 52.9175 10.4505 52.9175 8.46088C52.9175 6.47129 53.9616 5.0293 56.0314 5.0293C57.332 5.0293 58.5959 5.6134 58.6325 7.07365H57.1671C57.0938 6.41653 56.6542 6.08798 56.0314 6.08798C54.7492 6.08798 54.3646 7.45696 54.3646 8.49739C54.3646 9.53782 54.7492 10.7425 55.9765 10.7425C56.6176 10.7425 57.0938 10.3957 57.1854 9.7386H58.6508C58.5043 11.2354 57.3137 11.783 55.9582 11.783Z" fill="#F3F9FF"/>
</g>
<defs>
<clipPath id="clip0_1906_206878">
<rect width="57.8646" height="15.5152" fill="white" transform="translate(0.786133 0.648438)"/>
</clipPath>
</defs>
</svg>
