<svg width="192" height="48" viewBox="0 0 192 48" fill="none" xmlns="http://www.w3.org/2000/svg">
<path d="M59.2974 19.537C58.9551 17.8253 57.5429 15.6 53.8627 15.6C50.9955 15.6 48.5777 17.6541 48.5777 20.3501C48.5777 22.6395 50.1397 24.2015 52.5575 24.6936L54.6758 25.1215C55.8526 25.3569 56.5159 26.0416 56.5159 26.9189C56.5159 27.9887 55.6386 28.7804 54.0553 28.7804C51.9156 28.7804 50.8672 27.4324 50.7388 25.9346L48 26.6621C48.2354 28.8232 50.0113 31.4122 54.0339 31.4122C57.5643 31.4122 59.5114 29.0585 59.5114 26.7263C59.5114 24.5866 58.035 22.7893 55.2749 22.2544L53.1566 21.8478C52.044 21.6339 51.5091 20.9706 51.5091 20.1361C51.5091 19.1305 52.4505 18.2104 53.8841 18.2104C55.8098 18.2104 56.4945 19.5156 56.6443 20.3501L59.2974 19.537Z" fill="#1C2737"/>
<path d="M72.4206 18.7239V15.921H59.8608V18.7239H64.6536V31.0912H67.6278V18.7239H72.4206Z" fill="#1C2737"/>
<path d="M82.4301 31.0912H85.6396L79.8625 15.921H76.439L70.6191 31.0912H73.743L75.0055 27.6249H81.1677L82.4301 31.0912ZM78.0866 19.1946L80.1834 24.929H75.9897L78.0866 19.1946Z" fill="#1C2737"/>
<path d="M89.7414 31.0912V25.1857H95.6255V22.4683H89.72V18.7239H96.353V15.921H86.7673V31.0912H89.7414Z" fill="#1C2737"/>
<path d="M101.067 31.0912V25.1857H106.952V22.4683H101.046V18.7239H107.679V15.921H98.0933V31.0912H101.067Z" fill="#1C2737"/>
<path d="M115.068 27.197L111.11 15.921H107.879L113.485 31.0912H116.523L122.15 15.921H119.026L115.068 27.197Z" fill="#1C2737"/>
<path d="M126.311 31.0912V15.921H123.315V31.0912H126.311Z" fill="#1C2737"/>
<path d="M136.489 31.0912H139.784L136.531 24.8862C138.521 24.3085 139.762 22.7037 139.762 20.5854C139.762 17.9536 137.879 15.921 134.927 15.921H129V31.0912H131.974V25.2499H133.515L136.489 31.0912ZM131.974 22.7037V18.4886H134.37C135.868 18.4886 136.745 19.323 136.745 20.6068C136.745 21.8478 135.868 22.7037 134.37 22.7037H131.974Z" fill="#1C2737"/>
<path d="M152.748 18.7239V15.921H140.188V18.7239H144.981V31.0912H147.955V18.7239H152.748Z" fill="#1C2737"/>
<path d="M159.705 31.4335C162.957 31.4335 165.546 29.4437 165.546 25.7206V15.921H162.593V25.5067C162.593 27.4966 161.502 28.545 159.705 28.545C157.95 28.545 156.837 27.4966 156.837 25.5067V15.921H153.885V25.7206C153.885 29.4437 156.474 31.4335 159.705 31.4335Z" fill="#1C2737"/>
<path d="M177.949 31.0912H181.158L175.381 15.921H171.958L166.138 31.0912H169.262L170.524 27.6249H176.686L177.949 31.0912ZM173.605 19.1946L175.702 24.929H171.508L173.605 19.1946Z" fill="#1C2737"/>
<path d="M192 31.0912V28.2668H185.239V15.921H182.286V31.0912H192Z" fill="#1C2737"/>
<path fill-rule="evenodd" clip-rule="evenodd" d="M19.2 43.2C29.8039 43.2 38.4 34.6039 38.4 24C38.4 13.3961 29.8039 4.79999 19.2 4.79999C8.59613 4.79999 0 13.3961 0 24C0 34.6039 8.59613 43.2 19.2 43.2ZM13.0943 16.8C16.3967 16.8 17.6639 18.7968 17.9711 20.3328L15.5903 21.0624C15.4559 20.3136 14.8415 19.1424 13.1135 19.1424C11.8271 19.1424 10.9823 19.968 10.9823 20.8704C10.9823 21.6192 11.4623 22.2144 12.4607 22.4064L14.3615 22.7712C16.8383 23.2512 18.1631 24.864 18.1631 26.784C18.1631 28.8768 16.4159 30.9888 13.2479 30.9888C9.63834 30.9888 8.04474 28.6656 7.83354 26.7264L10.2911 26.0736C10.4063 27.4176 11.3471 28.6272 13.2671 28.6272C14.6879 28.6272 15.4751 27.9168 15.4751 26.9568C15.4751 26.1696 14.8799 25.5552 13.8239 25.344L11.9231 24.96C9.75354 24.5184 8.35194 23.1168 8.35194 21.0624C8.35194 18.6432 10.5215 16.8 13.0943 16.8ZM20.9236 17.088L24.4756 27.2064L28.0276 17.088H30.8308L25.7812 30.7008H23.0548L18.0244 17.088H20.9236Z" fill="#1888FF"/>
</svg>
