<svg xmlns="http://www.w3.org/2000/svg" width="181" height="207" viewBox="0 0 181 207" fill="none">
<g opacity="0.8">
<mask id="path-1-inside-1_1933_153465" fill="white">
<path fill-rule="evenodd" clip-rule="evenodd" d="M128 206.5C198.692 206.5 256 149.192 256 78.5C256 7.80755 198.692 -49.5 128 -49.5C57.3076 -49.5 0 7.80755 0 78.5C0 149.192 57.3076 206.5 128 206.5ZM87.2956 30.5C109.312 30.5 117.76 43.812 119.808 54.052L103.936 58.916C103.04 53.924 98.9436 46.116 87.4236 46.116C78.8476 46.116 73.2156 51.62 73.2156 57.636C73.2156 62.628 76.4156 66.596 83.0716 67.876L95.7436 70.308C112.256 73.508 121.088 84.26 121.088 97.06C121.088 111.012 109.44 125.092 88.3196 125.092C64.2556 125.092 53.6316 109.604 52.2236 96.676L68.6076 92.324C69.3756 101.284 75.6476 109.348 88.4476 109.348C97.9196 109.348 103.168 104.612 103.168 98.212C103.168 92.964 99.1996 88.868 92.1596 87.46L79.4876 84.9C65.0236 81.956 55.6796 72.612 55.6796 58.916C55.6796 42.788 70.1436 30.5 87.2956 30.5ZM139.491 32.42L163.171 99.876L186.851 32.42H205.539L171.875 123.172H153.699L120.163 32.42H139.491Z"/>
</mask>
<path d="M119.808 54.052L119.954 54.5301L120.387 54.3975L120.298 53.9539L119.808 54.052ZM103.936 58.916L103.443 59.0043L103.543 59.5592L104.082 59.3941L103.936 58.916ZM83.0716 67.876L82.9772 68.367L82.9774 68.367L83.0716 67.876ZM95.7436 70.308L95.8388 69.8171L95.8379 69.817L95.7436 70.308ZM52.2236 96.676L52.0952 96.1927L51.68 96.303L51.7266 96.7301L52.2236 96.676ZM68.6076 92.324L69.1058 92.2813L69.0549 91.6879L68.4792 91.8408L68.6076 92.324ZM92.1596 87.46L92.0606 87.9501L92.0616 87.9503L92.1596 87.46ZM79.4876 84.9L79.3879 85.39L79.3886 85.3901L79.4876 84.9ZM163.171 99.876L162.699 100.042L163.171 101.386L163.642 100.042L163.171 99.876ZM139.491 32.42L139.962 32.2544L139.845 31.92H139.491V32.42ZM186.851 32.42V31.92H186.496L186.379 32.2544L186.851 32.42ZM205.539 32.42L206.007 32.5939L206.257 31.92H205.539V32.42ZM171.875 123.172V123.672H172.222L172.343 123.346L171.875 123.172ZM153.699 123.172L153.23 123.345L153.35 123.672H153.699V123.172ZM120.163 32.42V31.92H119.445L119.694 32.5933L120.163 32.42ZM255.5 78.5C255.5 148.916 198.416 206 128 206V207C198.969 207 256.5 149.469 256.5 78.5H255.5ZM128 -49C198.416 -49 255.5 8.08369 255.5 78.5H256.5C256.5 7.53141 198.969 -50 128 -50V-49ZM0.5 78.5C0.5 8.08369 57.5837 -49 128 -49V-50C57.0314 -50 -0.5 7.53141 -0.5 78.5H0.5ZM128 206C57.5837 206 0.5 148.916 0.5 78.5H-0.5C-0.5 149.469 57.0314 207 128 207V206ZM120.298 53.9539C119.257 48.7503 116.589 42.7581 111.374 38.0644C106.151 33.3637 98.4113 30 87.2956 30V31C98.1959 31 105.688 34.2923 110.705 38.8076C115.73 43.3299 118.31 49.1137 119.317 54.1501L120.298 53.9539ZM104.082 59.3941L119.954 54.5301L119.661 53.5739L103.789 58.4379L104.082 59.3941ZM87.4236 46.616C93.0591 46.616 96.8334 48.5209 99.3101 50.9976C101.798 53.4859 103.009 56.5849 103.443 59.0043L104.428 58.8277C103.966 56.2551 102.681 52.9541 100.017 50.2904C97.3419 47.6151 93.3082 45.616 87.4236 45.616V46.616ZM73.7156 57.636C73.7156 51.9652 79.0492 46.616 87.4236 46.616V45.616C78.646 45.616 72.7156 51.2748 72.7156 57.636H73.7156ZM83.166 67.385C79.916 66.76 77.5585 65.4885 76.0158 63.8097C74.477 62.1351 73.7156 60.0197 73.7156 57.636H72.7156C72.7156 60.2443 73.5542 62.6089 75.2794 64.4863C77.0007 66.3595 79.5712 67.712 82.9772 68.367L83.166 67.385ZM95.8379 69.817L83.1659 67.385L82.9774 68.367L95.6494 70.799L95.8379 69.817ZM121.588 97.06C121.588 83.9792 112.543 73.0544 95.8388 69.8171L95.6485 70.7989C111.968 73.9617 120.588 84.5408 120.588 97.06H121.588ZM88.3196 125.592C109.69 125.592 121.588 111.313 121.588 97.06H120.588C120.588 110.711 109.189 124.592 88.3196 124.592V125.592ZM51.7266 96.7301C52.4423 103.302 55.4988 110.52 61.4332 116.096C67.375 121.68 76.1734 125.592 88.3196 125.592V124.592C76.4018 124.592 67.8562 120.76 62.118 115.368C56.3724 109.968 53.4129 102.978 52.7207 96.6219L51.7266 96.7301ZM68.4792 91.8408L52.0952 96.1927L52.352 97.1592L68.736 92.8073L68.4792 91.8408ZM88.4476 108.848C82.1579 108.848 77.5202 106.87 74.362 103.835C71.199 100.796 69.4811 96.6605 69.1058 92.2813L68.1094 92.3667C68.5021 96.9475 70.3043 101.324 73.6692 104.557C77.0391 107.794 81.9373 109.848 88.4476 109.848V108.848ZM102.668 98.212C102.668 101.263 101.422 103.902 99.0485 105.789C96.6647 107.683 93.1052 108.848 88.4476 108.848V109.848C93.262 109.848 97.0626 108.645 99.6707 106.571C102.289 104.49 103.668 101.561 103.668 98.212H102.668ZM92.0616 87.9503C98.9602 89.33 102.668 93.2854 102.668 98.212H103.668C103.668 92.6426 99.439 88.406 92.2577 86.9697L92.0616 87.9503ZM79.3886 85.3901L92.0606 87.9501L92.2586 86.9699L79.5866 84.4099L79.3886 85.3901ZM55.1796 58.916C55.1796 65.8856 57.5603 71.7695 61.795 76.2821C66.0244 80.7891 72.0774 83.902 79.3879 85.39L79.5873 84.41C72.4338 82.954 66.5828 79.9229 62.5242 75.5978C58.4709 71.2785 56.1796 65.6424 56.1796 58.916H55.1796ZM87.2956 30C69.9276 30 55.1796 42.4554 55.1796 58.916H56.1796C56.1796 43.1206 70.3597 31 87.2956 31V30ZM163.642 99.7104L139.962 32.2544L139.019 32.5856L162.699 100.042L163.642 99.7104ZM186.379 32.2544L162.699 99.7104L163.642 100.042L187.322 32.5856L186.379 32.2544ZM205.539 31.92H186.851V32.92H205.539V31.92ZM172.343 123.346L206.007 32.5939L205.07 32.2461L171.406 122.998L172.343 123.346ZM153.699 123.672H171.875V122.672H153.699V123.672ZM119.694 32.5933L153.23 123.345L154.168 122.999L120.632 32.2467L119.694 32.5933ZM139.491 31.92H120.163V32.92H139.491V31.92Z" fill="white" mask="url(#path-1-inside-1_1933_153465)"/>
</g>
</svg>