<svg width="64" height="58" viewBox="0 0 64 58" fill="none" xmlns="http://www.w3.org/2000/svg">
<path d="M42.3516 0.0223336C42.3516 0.0716543 42.4338 0.827905 42.5324 1.69924C42.8941 5.03661 43.8805 6.91079 45.4588 7.33824C46.3465 7.5684 46.5109 7.50264 46.8397 6.79571C47.4809 5.46405 46.9055 3.96799 45.0642 2.15956C43.9463 1.07451 42.3516 -0.19139 42.3516 0.0223336Z" fill="#627D98"/>
<path d="M20.453 0.795699C18.0692 2.66989 16.7539 4.56051 16.9019 5.90861C16.9512 6.30318 17.1156 6.82927 17.28 7.07587C17.5431 7.47044 17.6581 7.51976 18.1678 7.42112C19.6803 7.14163 20.601 5.99081 21.1106 3.77138C21.5052 2.02872 21.7024 0.105208 21.4887 0.105208C21.4065 0.105208 20.9462 0.417573 20.453 0.795699Z" fill="#627D98"/>
<path d="M12.7154 4.6608C10.5288 7.96529 10.1178 9.90524 11.3509 11.2533C11.8605 11.8123 11.9263 11.8287 12.3866 11.6315C13.6525 11.1054 14.2443 9.92168 14.2443 7.93241C14.2443 6.55143 13.8498 3.92099 13.6032 3.67439C13.521 3.59218 13.1264 4.03607 12.7154 4.6608Z" fill="#627D98"/>
<path d="M50.3592 3.67439C50.2934 3.77303 50.1455 4.4964 49.9975 5.28553C49.718 6.96243 49.6852 8.80374 49.9318 9.69151C50.1455 10.4478 50.9017 11.3355 51.5758 11.6315C52.0854 11.8287 52.1183 11.8123 52.6444 11.2533C53.7295 10.0532 53.4993 8.26121 51.8881 5.61433C50.8524 3.95387 50.4743 3.4771 50.3592 3.67439Z" fill="#627D98"/>
<path d="M18.5298 7.7489C17.9873 7.9955 17.9873 8.01194 18.053 8.78464C18.1023 9.2614 18.2832 9.78749 18.5133 10.0834C19.2203 11.0534 21.1438 11.8096 23.4454 12.0234C24.0373 12.0727 24.6784 12.1549 24.8922 12.2042C25.4347 12.3193 25.336 12.0069 24.4318 10.8725C22.1631 8.02838 20.2396 7.00909 18.5298 7.7489Z" fill="#627D98"/>
<path d="M42.8773 7.86562C42.4828 8.0629 41.7594 8.57255 41.2662 9.01643C40.3291 9.88777 38.7344 11.7948 38.7344 12.0743C38.7344 12.2387 39.1947 12.2223 41.2004 11.9428C44.3405 11.4989 45.9681 10.3481 45.9681 8.57255C45.9681 8.04646 45.9023 7.94782 45.3927 7.73409C44.6035 7.40529 43.7158 7.45461 42.8773 7.86562Z" fill="#627D98"/>
<path d="M6.46646 10.5794C5.28277 14.1963 5.54581 16.6952 7.17339 17.3692C7.86388 17.6652 8.40641 17.3692 8.86674 16.4979C9.50791 15.2649 9.22842 13.6044 7.96253 11.0397C6.99255 9.06692 6.95967 9.05048 6.46646 10.5794Z" fill="#627D98"/>
<path d="M56.8521 9.51154C56.5562 9.88967 55.4711 12.1749 55.1423 13.0955C54.534 14.8875 54.8299 16.7124 55.8492 17.3207C56.2273 17.5508 56.3589 17.5508 56.8192 17.37C58.0029 16.8768 58.5619 15.0519 58.1509 12.8982C57.97 11.9283 57.1809 9.31426 57.0658 9.31426C57.0494 9.31426 56.9507 9.4129 56.8521 9.51154Z" fill="#627D98"/>
<path d="M13.7496 11.3688C12.5494 11.9113 12.3522 12.4046 12.9276 13.3252C13.4372 14.1472 14.4401 14.624 15.8868 14.7062C17.087 14.7719 18.9283 14.5747 20.227 14.2294L20.8682 14.065L19.9804 13.4074C19.4872 13.0622 18.4351 12.421 17.613 12.01C15.9033 11.1551 14.6867 10.9578 13.7496 11.3688Z" fill="#627D98"/>
<path d="M47.8279 11.3499C46.3483 11.8266 43.1753 13.8159 43.4548 14.0954C43.7343 14.3749 46.7264 14.7694 48.0417 14.7037C49.587 14.6215 50.4584 14.2433 51.0338 13.4213C51.5599 12.6486 51.4941 12.2048 50.8036 11.6787C50.1131 11.1361 48.8801 11.0046 47.8279 11.3499Z" fill="#627D98"/>
<path d="M10.6882 16.0373C9.86619 16.251 9.04418 16.8264 8.76469 17.4018C8.46877 18.0101 8.56741 18.2896 9.30722 18.8979C9.99771 19.4897 11.0334 19.6048 12.398 19.276C13.4995 19.013 16.8697 17.4511 16.8697 17.221C16.8697 17.1059 15.423 16.6291 13.8283 16.2346C12.8419 15.988 11.2636 15.8893 10.6882 16.0373Z" fill="#627D98"/>
<path d="M50.9885 16.0528C50.5446 16.135 49.5253 16.398 48.7197 16.6282C47.9306 16.8584 47.2565 17.0392 47.2072 17.0392C47.1579 17.0392 47.125 17.105 47.125 17.1872C47.125 17.4338 50.4624 19.012 51.5967 19.2751C53.1586 19.6532 54.0792 19.4888 54.8848 18.6832C55.5424 18.0256 55.5588 17.8777 55.0492 17.0721C54.4902 16.2008 52.6818 15.7569 50.9885 16.0528Z" fill="#627D98"/>
<path d="M2.25813 18.3544C2.24169 21.6589 2.86642 23.418 4.29672 24.1085C5.16805 24.536 5.46398 24.5031 5.90786 23.9277C6.91072 22.5796 6.15447 20.541 3.72131 18.0092L2.25813 16.4638V18.3544Z" fill="#627D98"/>
<path d="M60.2584 17.9917C58.4828 19.8823 57.743 21.1975 57.7266 22.4963C57.7266 23.1868 57.8088 23.5485 58.0718 23.8937C58.5321 24.502 58.8116 24.5349 59.7158 24.1075C61.1626 23.4005 61.8202 21.477 61.7215 18.2054L61.6722 16.4956L60.2584 17.9917Z" fill="#627D98"/>
<path d="M9.55718 21.4782C8.06112 21.7906 7.1569 22.3496 6.68014 23.2867C6.25269 24.1415 6.26913 24.5032 6.76234 24.8978C7.66655 25.6212 9.03109 25.5061 10.56 24.569C11.5136 24.01 14.0782 21.7248 14.0782 21.4618C14.0782 21.2809 10.4778 21.2974 9.55718 21.4782Z" fill="#627D98"/>
<path d="M49.9141 21.4446C49.9141 21.6583 51.7389 23.3352 52.9391 24.223C54.5995 25.4396 56.2929 25.7026 57.2628 24.8477C57.641 24.5354 57.6739 24.4203 57.5752 23.8449C57.4108 23.0393 56.4737 22.1187 55.3887 21.7241C54.468 21.3789 49.9141 21.1487 49.9141 21.4446Z" fill="#627D98"/>
<path d="M0.0369905 25.5392C0.316475 26.7064 1.28645 29.1396 1.76322 29.8794C2.50303 31.0467 3.2264 31.5563 4.27857 31.6385C5.26499 31.7207 5.49515 31.5399 5.64311 30.6192C5.88972 29.1231 4.34433 27.3147 1.61525 25.868C0.809682 25.4405 0.102752 25.0953 0.0369905 25.0953C-0.0123302 25.0953 -0.0123302 25.2926 0.0369905 25.5392Z" fill="#627D98"/>
<path d="M62.6611 25.7198C59.3073 27.4954 57.9099 29.2545 58.4853 30.9314C58.699 31.5561 58.7648 31.589 59.4388 31.6383C60.3759 31.7041 60.9678 31.4575 61.6747 30.6683C62.3652 29.8956 62.9406 28.7777 63.4667 27.1994C63.9763 25.6541 64.0914 25.0951 63.9435 25.0951C63.8613 25.0951 63.3023 25.3746 62.6611 25.7198Z" fill="#627D98"/>
<path d="M11.3616 26.4114C8.00779 27.4142 6.38021 28.565 6.08428 30.1433C5.90344 31.064 6.11716 31.475 6.84053 31.6722C8.10643 32.0175 9.38877 31.3599 10.5889 29.7652C11.6082 28.4006 12.8577 26.0826 12.5617 26.099C12.4467 26.099 11.9041 26.247 11.3616 26.4114Z" fill="#627D98"/>
<path d="M51.4422 26.4096C51.6559 27.2481 53.0369 29.3853 54.0233 30.3882C55.3056 31.7034 56.1276 32.0322 57.2291 31.6541C57.9525 31.4074 58.1005 31.0129 57.9032 29.9443C57.6237 28.4975 55.1248 26.9357 51.8203 26.1795C51.3928 26.0808 51.36 26.0972 51.4422 26.4096Z" fill="#627D98"/>
<path d="M11.3613 31.8512C8.23764 33.972 7.03751 35.8297 7.728 37.4737C7.95816 38.0327 8.02392 38.082 8.63221 38.082C8.9939 38.082 9.45422 38.0163 9.66795 37.9341C10.2598 37.7039 11.0818 36.7833 11.5093 35.8626C12.1997 34.3501 12.8902 31.1771 12.5285 31.1771C12.4299 31.1771 11.9038 31.4895 11.3613 31.8512Z" fill="#627D98"/>
<path d="M51.3984 31.6539C51.3984 32.3608 52.1382 35.1392 52.5493 35.9612C53.2562 37.3751 54.1933 38.082 55.3277 38.082C55.9031 38.082 56.0346 38.0163 56.2483 37.5888C57.0539 36.0434 55.8373 34.0213 52.8945 32.0156C52.2204 31.5553 51.6122 31.1771 51.53 31.1771C51.4642 31.1771 51.3984 31.3909 51.3984 31.6539Z" fill="#627D98"/>
<path d="M0.445765 34.1695C1.38286 35.9779 3.38857 38.2302 4.45718 38.6741C5.197 38.9864 6.51222 38.97 6.97254 38.6412C7.71235 38.1316 7.31779 36.7013 6.18341 35.7313C5.32852 35.0079 4.16126 34.5476 2.15555 34.1201C0.215602 33.7091 0.199161 33.7256 0.445765 34.1695Z" fill="#627D98"/>
<path d="M61.9997 34.0893C58.5472 34.8291 56.8868 35.9306 56.7059 37.6568C56.5909 38.5939 57.0019 38.9062 58.3006 38.9062C59.4021 38.9062 60.257 38.4295 61.4572 37.1307C62.1477 36.3909 63.7259 34.155 63.7259 33.9084C63.7259 33.7605 63.282 33.8098 61.9997 34.0893Z" fill="#627D98"/>
<path d="M13.0414 37.0961C11.496 39.036 10.7891 40.4828 10.7891 41.6994C10.7891 42.8173 11.2823 43.7215 11.9563 43.8037C12.466 43.8695 13.3702 43.2612 13.8469 42.5543C14.5374 41.535 14.7347 38.5428 14.258 36.2741L14.1429 35.6987L13.0414 37.0961Z" fill="#627D98"/>
<path d="M49.6506 36.8488C49.4369 38.5093 49.4862 40.8603 49.7328 41.6165C50.1439 42.8331 51.1631 43.8359 52.018 43.8359C52.429 43.8359 52.9551 43.2276 53.2017 42.455C53.6127 41.1726 52.5277 38.7723 50.522 36.52L49.7822 35.698L49.6506 36.8488Z" fill="#627D98"/>
<path d="M16.5424 40.8299C15.4573 43.2466 15.0299 45.4332 15.3916 46.5676C15.6382 47.3567 16.4931 48.2773 16.9698 48.2773C17.4466 48.2773 18.0878 47.7348 18.4166 47.0608C18.8112 46.2223 18.7618 44.5783 18.2851 43.0822C17.7919 41.5697 17.1671 40.0572 17.0027 40.0572C16.937 40.0572 16.7232 40.4025 16.5424 40.8299Z" fill="#627D98"/>
<path d="M46.4617 41.0915C44.9657 44.4124 44.9657 47.1744 46.4946 48.0951C47.0207 48.4239 47.0371 48.4239 47.5303 48.1115C48.6647 47.4046 49.0264 45.7605 48.5167 43.7877C48.2044 42.5711 47.3002 40.2531 47.1029 40.1215C47.0207 40.0722 46.7248 40.5161 46.4617 41.0915Z" fill="#627D98"/>
<path d="M4.87256 41.7984C4.64239 41.8313 4.13275 41.9135 3.73818 41.9628L3.03125 42.0614L3.40938 42.4724C4.08343 43.1794 5.92473 44.4617 7.02623 44.9714C8.32501 45.5961 9.59091 45.6618 10.4294 45.1522C11.1034 44.7412 11.2021 44.4946 10.9554 43.7712C10.7417 43.0807 9.87039 42.3245 9.0155 42.045C8.37433 41.8313 5.57949 41.6669 4.87256 41.7984Z" fill="#627D98"/>
<path d="M55.7072 41.8656C54.4907 42.1286 53.6687 42.6876 53.2412 43.5261C52.8138 44.3974 52.8795 44.6933 53.6193 45.1536C54.2605 45.5482 55.4935 45.5975 56.4799 45.2358C57.3348 44.9399 59.1268 43.7727 60.179 42.8356L60.9846 42.1286L60.5078 41.9971C59.7515 41.7834 56.4799 41.7012 55.7072 41.8656Z" fill="#627D98"/>
<path d="M20.7018 43.6239C20.6361 43.8705 20.5703 45.0378 20.5703 46.2215C20.5703 47.8984 20.6361 48.5231 20.8662 49.1314C21.3266 50.3151 22.6253 51.3015 23.3652 51.0056C23.8584 50.8247 24.2694 49.8712 24.2694 48.9341C24.2694 47.7668 23.6611 46.4681 22.3459 44.824C20.9978 43.1307 20.8662 43.0321 20.7018 43.6239Z" fill="#627D98"/>
<path d="M42.5872 43.7061C41.6008 44.7583 40.8774 45.7776 40.302 46.8626C39.8416 47.7504 39.7266 48.1614 39.7266 48.9012C39.7266 49.8712 40.1376 50.8247 40.6308 51.0056C41.3706 51.3015 42.6694 50.3151 43.1297 49.1314C43.3599 48.5067 43.4256 47.8984 43.4256 46.0571C43.4092 44.7912 43.3434 43.6239 43.2448 43.4595C43.0968 43.1965 43.0311 43.2293 42.5872 43.7061Z" fill="#627D98"/>
<path d="M25.505 45.6638C25.7187 46.9626 26.2612 48.8203 26.6558 49.6752C27.3627 51.1549 28.8424 52.207 29.8617 51.944C30.2891 51.8289 30.6837 51.0891 30.6837 50.3822C30.6672 49.0669 29.352 47.4229 27.1161 45.9269C25.4228 44.7925 25.357 44.7925 25.505 45.6638Z" fill="#627D98"/>
<path d="M37.0414 45.8273C34.0329 47.8001 32.7505 49.8387 33.5561 51.3841C33.8356 51.9595 34.2466 52.0746 35.1179 51.8609C36.0714 51.6143 37.1072 50.4141 37.6497 48.9016C38.0114 47.8659 38.5704 45.6136 38.5704 45.1368C38.5704 44.8738 38.3238 44.9724 37.0414 45.8273Z" fill="#627D98"/>
<path d="M11.1196 47.9289C10.3469 48.192 9.36046 48.5537 8.90014 48.7674L8.07812 49.1291L8.65353 49.425C9.77147 50.0004 12.1224 50.7402 13.1746 50.8389C14.4734 50.9704 15.4927 50.6416 16.1338 49.9018C16.6106 49.3099 16.6435 48.9811 16.2489 48.4879C15.3118 47.3206 13.5198 47.1234 11.1196 47.9289Z" fill="#627D98"/>
<path d="M48.8505 47.6659C48.3245 47.9125 47.4531 48.8168 47.4531 49.1291C47.4531 49.5566 48.3245 50.395 49.0149 50.6745C50.2808 51.1513 52.3688 50.7731 54.9334 49.5894L55.9199 49.1291L54.9828 48.7181C52.5332 47.6002 49.9685 47.1563 48.8505 47.6659Z" fill="#627D98"/>
<path d="M20.2382 51.0716C19.4162 51.2689 18.6435 51.6634 17.5914 52.4032C16.3583 53.2746 15.1582 54.3596 15.2733 54.4747C15.4706 54.672 18.1832 54.8693 19.334 54.7706C21.4055 54.5898 22.77 53.7678 23.0331 52.5348C23.181 51.8936 22.7207 51.3675 21.8165 51.088C21.126 50.8907 20.9616 50.8907 20.2382 51.0716Z" fill="#627D98"/>
<path d="M42.0731 51.121C41.2018 51.4498 40.8237 51.9266 40.9552 52.5349C41.2182 53.7679 42.5828 54.5899 44.6542 54.7707C45.8379 54.8694 48.5177 54.6721 48.715 54.4584C48.9451 54.2447 45.9037 51.9266 44.7036 51.4005C43.7829 50.9895 42.7143 50.8744 42.0731 51.121Z" fill="#627D98"/>
<path d="M27.919 52.4512C26.6696 52.8622 25.3872 54.1446 23.8583 56.5613L23.25 57.5312L24.2035 57.3997C24.7461 57.334 25.8476 57.0709 26.686 56.8079C29.0534 56.0516 30.3522 54.8515 30.3522 53.4541C30.3522 52.8458 30.2864 52.7307 29.9083 52.5827C29.1027 52.2539 28.6424 52.2375 27.919 52.4512Z" fill="#627D98"/>
<path d="M34.5777 52.3845C33.8872 52.5982 33.6406 52.8613 33.6406 53.4038C33.6406 55.1629 35.4326 56.4453 38.9344 57.2344C40.825 57.6454 40.8579 57.6125 39.9044 56.1493C37.948 53.1737 36.1395 51.8913 34.5777 52.3845Z" fill="#627D98"/>
<path d="M22.7488 35.3563H23.2941L21.5862 31.1073H20.9989L19.2969 35.3563H19.8422L20.3157 34.1158H22.2634L22.7488 35.3563ZM21.2865 31.6227L22.0836 33.6543H20.4955L21.2865 31.6227Z" fill="#627D98"/>
<path d="M26.5795 31.1073H26.0281L24.9554 34.5832L23.9426 31.1073H23.4272L24.6857 35.3563H25.1951L26.3038 31.7905L27.4125 35.3563H27.9219L29.1804 31.1073H28.665L27.6522 34.5832L26.5795 31.1073Z" fill="#627D98"/>
<path d="M32.7707 35.3563H33.3161L31.6081 31.1073H31.0208L29.3188 35.3563H29.8642L30.3376 34.1158H32.2853L32.7707 35.3563ZM31.3085 31.6227L32.1055 33.6543H30.5174L31.3085 31.6227Z" fill="#627D98"/>
<path d="M36.4327 35.3563H37.02L35.9892 33.5405C36.6305 33.4386 37.026 32.9651 37.026 32.3479C37.026 31.6587 36.5286 31.1073 35.7435 31.1073H34.1974V35.3563H34.7008V33.5764H35.4379L36.4327 35.3563ZM34.7008 33.1269V31.5568H35.6656C36.181 31.5568 36.5226 31.8684 36.5226 32.3479C36.5226 32.8213 36.181 33.1269 35.6656 33.1269H34.7008Z" fill="#627D98"/>
<path d="M38.6086 34.9128V31.5508H39.5135C40.3405 31.5508 41.0297 32.1201 41.0297 33.2408C41.0297 34.3555 40.3285 34.9128 39.5015 34.9128H38.6086ZM39.5015 35.3563C40.5802 35.3563 41.5331 34.6312 41.5331 33.2408C41.5331 31.8445 40.5922 31.1073 39.5135 31.1073H38.1052V35.3563H39.5015Z" fill="#627D98"/>
<path d="M45.211 32.0722C45.1031 31.5808 44.7135 31.0234 43.7966 31.0234C43.0295 31.0234 42.4183 31.5928 42.4183 32.258C42.4183 32.8812 42.8438 33.2648 43.4311 33.3966L44.0543 33.5345C44.5038 33.6363 44.7435 33.906 44.7435 34.2536C44.7435 34.6611 44.4139 34.9847 43.8026 34.9847C43.1314 34.9847 42.7658 34.5293 42.7179 34.0259L42.2445 34.1757C42.3224 34.799 42.8198 35.4402 43.8026 35.4402C44.6896 35.4402 45.2469 34.8649 45.2469 34.2117C45.2469 33.6124 44.8394 33.1869 44.1562 33.0371L43.5329 32.8992C43.1434 32.8153 42.9217 32.5696 42.9217 32.228C42.9217 31.7965 43.3112 31.4729 43.8026 31.4729C44.4139 31.4789 44.6956 31.8744 44.7615 32.234L45.211 32.0722Z" fill="#627D98"/>
<path d="M20.7969 20.8673V29.3652H24.081C25.6751 29.3652 26.7059 28.3704 26.7059 26.992C26.7059 25.9373 26.0347 25.1822 25.2076 24.9784C25.9148 24.7387 26.4422 24.0315 26.4422 23.1566C26.4422 21.8381 25.5073 20.8673 23.8533 20.8673H20.7969ZM22.4269 24.3791V22.2576H23.5896C24.3926 22.2576 24.8121 22.6652 24.8121 23.3124C24.8121 23.9596 24.3567 24.3791 23.6016 24.3791H22.4269ZM22.4269 27.9868V25.7455H23.7933C24.6203 25.7455 25.0518 26.2129 25.0518 26.8842C25.0518 27.5673 24.5724 27.9868 23.7694 27.9868H22.4269Z" fill="#627D98"/>
<path d="M30.2551 24.7387V22.3056H31.5615C32.3885 22.3056 32.8919 22.773 32.8919 23.5281C32.8919 24.2593 32.3885 24.7387 31.5615 24.7387H30.2551ZM31.7653 26.165C33.4433 26.165 34.558 25.0623 34.558 23.5161C34.558 21.982 33.4433 20.8673 31.7653 20.8673H28.589V29.3652H30.2431V26.165H31.7653Z" fill="#627D98"/>
<path d="M37.4162 25.1103C37.4162 23.1925 38.7586 22.2816 40.0651 22.2816C41.3835 22.2816 42.7259 23.1925 42.7259 25.1103C42.7259 27.028 41.3835 27.9389 40.0651 27.9389C38.7586 27.9389 37.4162 27.028 37.4162 25.1103ZM35.7022 25.1222C35.7022 27.855 37.7638 29.545 40.0651 29.545C42.3783 29.545 44.4399 27.855 44.4399 25.1222C44.4399 22.3775 42.3783 20.6875 40.0651 20.6875C37.7638 20.6875 35.7022 22.3775 35.7022 25.1222Z" fill="#627D98"/>
</svg>
