<svg width="160" height="40" viewBox="0 0 160 40" fill="none" xmlns="http://www.w3.org/2000/svg">
<path d="M49.7186 16.2808C49.4351 14.8544 48.2656 13 45.2178 13C42.8433 13 40.841 14.7117 40.841 16.9584C40.841 18.8663 42.1345 20.1679 44.1369 20.578L45.8911 20.9346C46.8657 21.1307 47.415 21.7013 47.415 22.4324C47.415 23.3239 46.6885 23.9836 45.3773 23.9836C43.6053 23.9836 42.737 22.8603 42.6307 21.6122L40.3625 22.2184C40.5575 24.0193 42.0282 26.1768 45.3595 26.1768C48.2833 26.1768 49.8958 24.2154 49.8958 22.2719C49.8958 20.4888 48.6731 18.9911 46.3873 18.5453L44.633 18.2065C43.7116 18.0282 43.2686 17.4755 43.2686 16.7801C43.2686 15.942 44.0483 15.1753 45.2355 15.1753C46.8303 15.1753 47.3973 16.263 47.5214 16.9584L49.7186 16.2808Z" fill="white"/>
<path d="M60.5867 15.6033V13.2675H50.1851V15.6033H54.1544V25.9093H56.6174V15.6033H60.5867Z" fill="white"/>
<path d="M68.8761 25.9093H71.5341L66.7497 13.2675H63.9145L59.0947 25.9093H61.6818L62.7273 23.0208H67.8306L68.8761 25.9093ZM65.279 15.9955L67.0155 20.7741H63.5424L65.279 15.9955Z" fill="white"/>
<path d="M74.931 25.9093V20.9881H79.804V18.7236H74.9133V15.6033H80.4064V13.2675H72.468V25.9093H74.931Z" fill="white"/>
<path d="M84.3107 25.9093V20.9881H89.1837V18.7236H84.293V15.6033H89.7862V13.2675H81.8477V25.9093H84.3107Z" fill="white"/>
<path d="M95.9055 22.6642L92.6273 13.2675H89.9516L94.5942 25.9093H97.1104L101.771 13.2675H99.1836L95.9055 22.6642Z" fill="white"/>
<path d="M105.216 25.9093V13.2675H102.736V25.9093H105.216Z" fill="white"/>
<path d="M113.645 25.9093H116.374L113.681 20.7385C115.328 20.257 116.356 18.9197 116.356 17.1545C116.356 14.9614 114.797 13.2675 112.352 13.2675H107.443V25.9093H109.906V21.0416H111.182L113.645 25.9093ZM109.906 18.9197V15.4071H111.891C113.131 15.4071 113.858 16.1025 113.858 17.1724C113.858 18.2065 113.131 18.9197 111.891 18.9197H109.906Z" fill="white"/>
<path d="M127.11 15.6033V13.2675H116.709V15.6033H120.678V25.9093H123.141V15.6033H127.11Z" fill="white"/>
<path d="M132.871 26.1946C135.565 26.1946 137.709 24.5364 137.709 21.4339V13.2675H135.264V21.2556C135.264 22.9138 134.36 23.7875 132.871 23.7875C131.418 23.7875 130.497 22.9138 130.497 21.2556V13.2675H128.052V21.4339C128.052 24.5364 130.196 26.1946 132.871 26.1946Z" fill="white"/>
<path d="M147.981 25.9093H150.639L145.854 13.2675H143.019L138.199 25.9093H140.786L141.832 23.0208H146.935L147.981 25.9093ZM144.383 15.9955L146.12 20.7741H142.647L144.383 15.9955Z" fill="white"/>
<path d="M159.617 25.9093V23.5557H154.018V13.2675H151.572V25.9093H159.617Z" fill="white"/>
<path fill-rule="evenodd" clip-rule="evenodd" d="M16.5116 36C25.2933 36 32.4123 28.8366 32.4123 20C32.4123 11.1634 25.2933 4 16.5116 4C7.72997 4 0.611023 11.1634 0.611023 20C0.611023 28.8366 7.72997 36 16.5116 36ZM11.4552 14C14.1901 14 15.2395 15.664 15.494 16.944L13.5223 17.552C13.411 16.928 12.9022 15.952 11.4711 15.952C10.4058 15.952 9.70613 16.64 9.70613 17.392C9.70613 18.016 10.1036 18.512 10.9305 18.672L12.5046 18.976C14.5558 19.376 15.653 20.72 15.653 22.32C15.653 24.064 14.206 25.824 11.5824 25.824C8.59309 25.824 7.27334 23.888 7.09843 22.272L9.13371 21.728C9.22911 22.848 10.0082 23.856 11.5983 23.856C12.775 23.856 13.4269 23.264 13.4269 22.464C13.4269 21.808 12.934 21.296 12.0594 21.12L10.4853 20.8C8.68849 20.432 7.52775 19.264 7.52775 17.552C7.52775 15.536 9.32452 14 11.4552 14ZM17.9391 14.24L20.8807 22.672L23.8223 14.24H26.1438L21.9619 25.584H19.704L15.5381 14.24H17.9391Z" fill="white"/>
</svg>
