<svg width="49" height="20" viewBox="0 0 49 20" fill="none" xmlns="http://www.w3.org/2000/svg">
<path d="M0.54541 18.104H9.94547V19.4496H0.54541V18.104Z" fill="#333D4C"/>
<path d="M0.54541 15.5229H9.94547V16.8733H0.54541V15.5229Z" fill="#333D4C"/>
<path d="M3.22705 12.9468H7.25906V14.2972H3.22705V12.9468Z" fill="#333D4C"/>
<path d="M3.22705 10.3706H7.25906V11.721H3.22705V10.3706Z" fill="#333D4C"/>
<path d="M3.22705 7.79395H7.25906V9.14434H3.22705V7.79395Z" fill="#333D4C"/>
<path d="M3.22705 5.21289H7.25906V6.56329H3.22705V5.21289Z" fill="#333D4C"/>
<path d="M9.94547 2.63672H0.54541V3.98712H9.94547V2.63672Z" fill="#333D4C"/>
<path d="M9.94547 0.0605469H0.54541V1.41095H9.94547V0.0605469Z" fill="#333D4C"/>
<path d="M11.2861 16.8733H25.743C25.9872 16.4568 26.1692 16.0018 26.2793 15.5229H11.2861V16.8733Z" fill="#333D4C"/>
<path d="M24.6178 10.3706H13.9727V11.721H25.7431C25.4366 11.2038 25.0583 10.7489 24.6178 10.3706Z" fill="#333D4C"/>
<path d="M13.9727 7.79395V9.14434H24.6178C25.0679 8.76604 25.4462 8.3111 25.7431 7.79395H13.9727Z" fill="#333D4C"/>
<path d="M25.743 2.63672H11.2861V3.98712H26.2793C26.1548 3.50825 25.9729 3.05336 25.743 2.63672Z" fill="#333D4C"/>
<path d="M21.2992 0.0605469H11.2861V1.41095H24.7517C23.8515 0.577704 22.6304 0.0605469 21.2992 0.0605469Z" fill="#333D4C"/>
<path d="M17.9999 5.21289H13.9727V6.56329H17.9999V5.21289Z" fill="#333D4C"/>
<path d="M22.0317 6.56329H26.2457C26.3654 6.13233 26.4277 5.6774 26.4277 5.21289H22.0317V6.56329Z" fill="#333D4C"/>
<path d="M13.9727 12.9468H17.9999V14.2972H13.9727V12.9468Z" fill="#333D4C"/>
<path d="M22.0317 12.9468V14.2972H26.4277C26.4277 13.8327 26.3654 13.3778 26.2457 12.9468H22.0317Z" fill="#333D4C"/>
<path d="M11.2861 19.44L21.2992 19.4544C22.64 19.4544 23.8515 18.9372 24.7565 18.104H11.2861V19.44Z" fill="#333D4C"/>
<path d="M27.4048 18.104H34.1184V19.4496H27.4048V18.104Z" fill="#333D4C"/>
<path d="M27.4048 15.5229H34.1184V16.8733H27.4048V15.5229Z" fill="#333D4C"/>
<path d="M30.0864 12.9468H34.1184V14.2972H30.0864V12.9468Z" fill="#333D4C"/>
<path d="M30.0864 10.3706H34.1184V11.721H30.0864V10.3706Z" fill="#333D4C"/>
<path d="M35.986 2.63672H27.4048V3.98712H36.4505L35.986 2.63672Z" fill="#333D4C"/>
<path d="M35.0953 0.0605469H27.4048V1.41095H35.5598L35.0953 0.0605469Z" fill="#333D4C"/>
<path d="M42.1729 18.104H48.8913V19.4496H42.1729V18.104Z" fill="#333D4C"/>
<path d="M42.1729 15.5229H48.8913V16.8733H42.1729V15.5229Z" fill="#333D4C"/>
<path d="M42.1729 12.9468H46.2049V14.2972H42.1729V12.9468Z" fill="#333D4C"/>
<path d="M42.1729 10.3706H46.2049V11.721H42.1729V10.3706Z" fill="#333D4C"/>
<path d="M42.1729 9.14434H46.2049V7.79395H42.1729H38.524L38.1457 8.88579L37.7674 7.79395H34.1184H30.0864V9.14434H34.1184V7.90408L34.5447 9.14434H41.7468L42.1729 7.90408V9.14434Z" fill="#333D4C"/>
<path d="M46.2049 5.21289H39.4147L38.9502 6.56329H46.2049V5.21289Z" fill="#333D4C"/>
<path d="M41.2008 0.0605469L40.7363 1.41095H48.8914V0.0605469H41.2008Z" fill="#333D4C"/>
<path d="M38.1457 19.44L38.6101 18.104H37.6812L38.1457 19.44Z" fill="#333D4C"/>
<path d="M37.2548 16.8733H39.0362L39.5151 15.5229H36.7808L37.2548 16.8733Z" fill="#333D4C"/>
<path d="M36.3501 14.2972H39.9415L40.4156 12.9468H35.876L36.3501 14.2972Z" fill="#333D4C"/>
<path d="M35.4499 11.721H40.8466L41.3063 10.3706H34.9854L35.4499 11.721Z" fill="#333D4C"/>
<path d="M30.0864 6.56329H37.3412L36.8767 5.21289H30.0864V6.56329Z" fill="#333D4C"/>
<path d="M39.8457 3.98712H48.8914V2.63672H40.3054L39.8457 3.98712Z" fill="#333D4C"/>
</svg>
