<svg width="1440" height="400" viewBox="0 0 1440 400" fill="none" xmlns="http://www.w3.org/2000/svg">
<g clip-path="url(#clip0_1884_44438)">
<rect width="1440" height="400" fill="#1888FF"/>
<g clip-path="url(#clip1_1884_44438)">
<path d="M-209 35.7461L972.769 -172.632L1024.86 122.811L77.862 587.651L-209 35.7461Z" fill="#1888FF"/>
<path d="M78.0803 586.987L-208.242 36.1202L972.364 -172.052L1024.31 122.527L78.0803 586.987Z" stroke="white" stroke-opacity="0.2"/>
<path d="M26.9245 298.773L1024.86 122.81L1076.96 418.252L-104.812 626.63L26.9245 298.773Z" fill="#1888FF"/>
<path d="M-104.012 625.981L27.2849 299.217L1024.46 123.389L1076.38 417.846L-104.012 625.981Z" stroke="white" stroke-opacity="0.2"/>
<path d="M354.814 240.959L-104.811 626.631L-209 35.7461L354.814 240.959Z" fill="#1888FF"/>
<path d="M-208.357 36.5121L353.829 241.132L-104.469 625.691L-208.357 36.5121Z" stroke="white" stroke-opacity="0.2"/>
<mask id="path-8-inside-1_1884_44438" fill="white">
<path fill-rule="evenodd" clip-rule="evenodd" d="M142.639 270.457L85.2076 284.512C84.8958 283.232 84.5443 281.971 84.1547 280.73L135.016 264.693L127.711 259.584L82.857 277.025C79.9561 269.541 75.6343 262.87 70.2703 257.278L105.037 223.994L103.494 215.214L67.4627 254.535C66.4965 253.651 65.5023 252.8 64.4819 251.981L101.492 205.869L99.5783 195.015L88.7243 196.929L58.0512 247.478C56.9332 246.799 55.7927 246.157 54.6316 245.551L79.2582 198.244L70.4802 199.796L51.0943 243.851C44.0043 240.723 36.2574 238.943 28.2326 238.777L29.281 190.663L21.9816 185.546L24.3078 238.825C23.0082 238.883 21.7031 238.984 20.394 239.129L13.958 180.354L4.9298 174.032L-1.39184 183.06L12.6626 240.492C11.383 240.804 10.122 241.155 8.88089 241.545L-7.15562 190.683L-12.2648 197.988L5.17651 242.842C-2.3075 245.743 -8.9785 250.065 -14.5711 255.429L-47.8553 220.662L-56.6349 222.205L-17.3136 258.237C-18.1976 259.203 -19.0494 260.197 -19.8678 261.218L-65.9799 224.207L-76.8339 226.121L-74.9201 236.975L-24.3706 267.648C-25.0496 268.766 -25.6925 269.907 -26.298 271.068L-73.6052 246.441L-72.0526 255.219L-27.9984 274.605C-31.1261 281.695 -32.9058 289.442 -33.072 297.467L-81.1863 296.418L-86.3031 303.718L-33.0244 301.392C-32.9661 302.691 -32.8651 303.996 -32.7204 305.305L-91.4954 311.741L-97.8171 320.77L-88.7888 327.091L-31.3572 313.037C-31.0454 314.317 -30.6939 315.577 -30.3043 316.819L-81.1655 332.855L-73.8606 337.964L-29.0066 320.523C-26.1058 328.007 -21.7839 334.678 -16.4199 340.271L-51.1868 373.555L-49.6435 382.334L-13.6122 343.013C-12.6461 343.897 -11.6519 344.749 -10.6314 345.567L-47.6415 391.679L-45.7277 402.533L-34.8737 400.62L-4.20071 350.07C-3.08273 350.749 -1.94223 351.392 -0.781056 351.998L-25.4075 399.305L-16.6295 397.752L2.75629 353.698C9.8462 356.826 17.5931 358.605 25.6179 358.772L24.5695 406.886L31.8689 412.003L29.5427 358.724C30.8423 358.666 32.1474 358.565 33.4565 358.42L39.8924 417.195L48.9207 423.517L55.2423 414.488L41.1879 357.057C42.4675 356.745 43.7285 356.393 44.9696 356.004L61.0061 406.865L66.1152 399.56L48.674 354.706C56.1581 351.805 62.8291 347.483 68.4218 342.119L101.706 376.886L110.486 375.343L71.1642 339.312C72.0482 338.345 72.9 337.351 73.7184 336.331L119.831 373.341L130.685 371.427L128.771 360.573L78.2212 329.9C78.9002 328.782 79.5431 327.642 80.1486 326.481L127.456 351.107L125.903 342.329L81.849 322.943C84.9766 315.853 86.7562 308.106 86.9224 300.082L135.037 301.13L140.154 293.831L86.8749 296.157C86.8165 294.857 86.7155 293.552 86.5709 292.243L145.346 285.807L151.668 276.779L142.639 270.457Z"/>
</mask>
<path d="M85.2076 284.512L84.236 284.748L84.473 285.721L85.4453 285.483L85.2076 284.512ZM142.639 270.457L143.213 269.638L142.842 269.378L142.402 269.486L142.639 270.457ZM84.1547 280.73L83.854 279.776L82.9015 280.076L83.2006 281.029L84.1547 280.73ZM135.016 264.693L135.317 265.647L137.252 265.037L135.589 263.874L135.016 264.693ZM127.711 259.584L128.284 258.765L127.847 258.459L127.349 258.652L127.711 259.584ZM82.857 277.025L81.9246 277.387L82.2864 278.32L83.2194 277.957L82.857 277.025ZM70.2703 257.278L69.5788 256.556L68.8558 257.248L69.5486 257.97L70.2703 257.278ZM105.037 223.994L105.729 224.716L106.115 224.347L106.022 223.82L105.037 223.994ZM103.494 215.214L104.479 215.041L104.128 213.042L102.757 214.538L103.494 215.214ZM67.4627 254.535L66.7876 255.273L67.5248 255.948L68.1999 255.211L67.4627 254.535ZM64.4819 251.981L63.702 251.355L63.0758 252.135L63.8563 252.761L64.4819 251.981ZM101.492 205.869L102.272 206.495L102.556 206.142L102.477 205.695L101.492 205.869ZM99.5783 195.015L100.563 194.841L100.389 193.856L99.4047 194.03L99.5783 195.015ZM88.7243 196.929L88.5507 195.944L88.1045 196.023L87.8694 196.41L88.7243 196.929ZM58.0512 247.478L57.5321 248.333L58.3872 248.852L58.9061 247.997L58.0512 247.478ZM54.6316 245.551L53.7446 245.089L53.2831 245.976L54.1692 246.438L54.6316 245.551ZM79.2582 198.244L80.1452 198.705L81.0822 196.906L79.084 197.259L79.2582 198.244ZM70.4802 199.796L70.306 198.812L69.78 198.905L69.5649 199.394L70.4802 199.796ZM51.0943 243.851L50.6906 244.766L51.6064 245.17L52.0095 244.253L51.0943 243.851ZM28.2326 238.777L27.2328 238.755L27.211 239.756L28.2119 239.777L28.2326 238.777ZM29.281 190.663L30.2808 190.684L30.2924 190.15L29.855 189.844L29.281 190.663ZM21.9816 185.546L22.5556 184.727L20.894 183.562L20.9825 185.589L21.9816 185.546ZM24.3078 238.825L24.3527 239.824L25.3504 239.779L25.3068 238.781L24.3078 238.825ZM20.394 239.129L19.3999 239.237L19.5089 240.233L20.5038 240.123L20.394 239.129ZM13.958 180.354L14.9521 180.245L14.9028 179.794L14.5316 179.534L13.958 180.354ZM4.9298 174.032L5.50338 173.213L4.68423 172.639L4.11065 173.458L4.9298 174.032ZM-1.39184 183.06L-2.21099 182.487L-2.47087 182.858L-2.36317 183.298L-1.39184 183.06ZM12.6626 240.492L12.8994 241.463L13.8719 241.226L13.634 240.254L12.6626 240.492ZM8.88089 241.545L7.92717 241.846L8.2275 242.798L9.1804 242.499L8.88089 241.545ZM-7.15562 190.683L-6.2019 190.383L-6.81208 188.448L-7.97507 190.11L-7.15562 190.683ZM-12.2648 197.988L-13.0842 197.415L-13.3904 197.853L-13.1968 198.351L-12.2648 197.988ZM5.17651 242.842L5.53792 243.775L6.47133 243.413L6.10853 242.48L5.17651 242.842ZM-14.5711 255.429L-15.2935 256.121L-14.6013 256.844L-13.8789 256.151L-14.5711 255.429ZM-47.8553 220.662L-47.133 219.971L-47.5023 219.585L-48.0284 219.677L-47.8553 220.662ZM-56.6349 222.205L-56.8081 221.22L-58.8066 221.572L-57.3105 222.943L-56.6349 222.205ZM-17.3136 258.237L-16.5758 258.912L-15.9012 258.175L-16.638 257.499L-17.3136 258.237ZM-19.8678 261.218L-20.4937 261.997L-19.7135 262.624L-19.0876 261.843L-19.8678 261.218ZM-65.9799 224.207L-65.354 223.427L-65.7073 223.144L-66.1536 223.223L-65.9799 224.207ZM-76.8339 226.121L-77.0076 225.136L-77.9924 225.31L-77.8187 226.295L-76.8339 226.121ZM-74.9201 236.975L-75.9049 237.149L-75.8262 237.595L-75.4388 237.83L-74.9201 236.975ZM-24.3706 267.648L-23.5159 268.167L-22.9966 267.312L-23.8518 266.793L-24.3706 267.648ZM-26.298 271.068L-26.7598 271.955L-25.8734 272.416L-25.4114 271.53L-26.298 271.068ZM-73.6052 246.441L-73.1434 245.554L-74.9433 244.617L-74.5899 246.616L-73.6052 246.441ZM-72.0526 255.219L-73.0373 255.394L-72.9443 255.92L-72.4553 256.135L-72.0526 255.219ZM-27.9984 274.605L-27.0835 275.009L-26.6795 274.093L-27.5957 273.69L-27.9984 274.605ZM-33.072 297.467L-33.0938 298.467L-32.0929 298.488L-32.0722 297.488L-33.072 297.467ZM-81.1863 296.418L-81.1645 295.419L-81.6985 295.407L-82.0051 295.844L-81.1863 296.418ZM-86.3031 303.718L-87.122 303.144L-88.2867 304.805L-86.2595 304.717L-86.3031 303.718ZM-33.0244 301.392L-32.0254 301.347L-32.0703 300.349L-33.0681 300.393L-33.0244 301.392ZM-32.7204 305.305L-32.6116 306.3L-31.6166 306.191L-31.7265 305.196L-32.7204 305.305ZM-91.4954 311.741L-91.6043 310.747L-92.0547 310.797L-92.3146 311.168L-91.4954 311.741ZM-97.8171 320.77L-98.6362 320.196L-99.2098 321.015L-98.3906 321.589L-97.8171 320.77ZM-88.7888 327.091L-89.3624 327.91L-88.9912 328.17L-88.5511 328.063L-88.7888 327.091ZM-31.3572 313.037L-30.3856 312.8L-30.6226 311.828L-31.5949 312.066L-31.3572 313.037ZM-30.3043 316.819L-30.0036 317.772L-29.051 317.472L-29.3502 316.519L-30.3043 316.819ZM-81.1655 332.855L-81.4662 331.901L-83.4014 332.512L-81.7386 333.675L-81.1655 332.855ZM-73.8606 337.964L-74.4338 338.784L-73.9961 339.09L-73.4982 338.896L-73.8606 337.964ZM-29.0066 320.523L-28.0742 320.162L-28.436 319.228L-29.369 319.591L-29.0066 320.523ZM-16.4199 340.271L-15.7284 340.993L-15.0054 340.301L-15.6982 339.579L-16.4199 340.271ZM-51.1868 373.555L-51.8784 372.832L-52.2642 373.202L-52.1717 373.728L-51.1868 373.555ZM-49.6435 382.334L-50.6284 382.508L-50.2771 384.506L-48.9062 383.01L-49.6435 382.334ZM-13.6122 343.013L-12.9372 342.275L-13.6744 341.601L-14.3495 342.338L-13.6122 343.013ZM-10.6314 345.567L-9.85157 346.193L-9.22538 345.413L-10.0058 344.787L-10.6314 345.567ZM-47.6415 391.679L-48.4214 391.054L-48.705 391.407L-48.6263 391.853L-47.6415 391.679ZM-45.7277 402.533L-46.7125 402.707L-46.5388 403.692L-45.554 403.518L-45.7277 402.533ZM-34.8737 400.62L-34.7 401.604L-34.2538 401.526L-34.0188 401.138L-34.8737 400.62ZM-4.20071 350.07L-3.68161 349.216L-4.53666 348.696L-5.05563 349.551L-4.20071 350.07ZM-0.781056 351.998L0.105952 352.459L0.567367 351.573L-0.318663 351.111L-0.781056 351.998ZM-25.4075 399.305L-26.2946 398.843L-27.2315 400.643L-25.2334 400.289L-25.4075 399.305ZM-16.6295 397.752L-16.4554 398.737L-15.9294 398.644L-15.7142 398.155L-16.6295 397.752ZM2.75629 353.698L3.1599 352.783L2.24413 352.379L1.84099 353.295L2.75629 353.698ZM25.6179 358.772L26.6177 358.793L26.6395 357.792L25.6386 357.772L25.6179 358.772ZM24.5695 406.886L23.5697 406.864L23.5581 407.398L23.9955 407.705L24.5695 406.886ZM31.8689 412.003L31.2949 412.821L32.9565 413.986L32.868 411.959L31.8689 412.003ZM29.5427 358.724L29.4978 357.725L28.5001 357.77L28.5437 358.768L29.5427 358.724ZM33.4565 358.42L34.4506 358.311L34.3416 357.316L33.3467 357.426L33.4565 358.42ZM39.8924 417.195L38.8984 417.304L38.9477 417.754L39.3189 418.014L39.8924 417.195ZM48.9207 423.517L48.3471 424.336L49.1663 424.909L49.7398 424.09L48.9207 423.517ZM55.2423 414.488L56.0615 415.062L56.3214 414.691L56.2137 414.251L55.2423 414.488ZM41.1879 357.057L40.9511 356.085L39.9786 356.322L40.2165 357.294L41.1879 357.057ZM44.9696 356.004L45.9233 355.703L45.623 354.751L44.6701 355.05L44.9696 356.004ZM61.0061 406.865L60.0524 407.166L60.6625 409.101L61.8255 407.438L61.0061 406.865ZM66.1152 399.56L66.9347 400.133L67.2408 399.696L67.0473 399.198L66.1152 399.56ZM48.674 354.706L48.3126 353.774L47.3792 354.135L47.742 355.069L48.674 354.706ZM68.4218 342.119L69.1441 341.428L68.4519 340.705L67.7296 341.398L68.4218 342.119ZM101.706 376.886L100.984 377.578L101.353 377.964L101.879 377.871L101.706 376.886ZM110.486 375.343L110.659 376.328L112.657 375.977L111.161 374.606L110.486 375.343ZM71.1642 339.312L70.4264 338.637L69.7519 339.374L70.4886 340.049L71.1642 339.312ZM73.7184 336.331L74.3443 335.551L73.5641 334.925L72.9383 335.705L73.7184 336.331ZM119.831 373.341L119.205 374.121L119.558 374.405L120.004 374.326L119.831 373.341ZM130.685 371.427L130.858 372.412L131.843 372.238L131.669 371.254L130.685 371.427ZM128.771 360.573L129.756 360.4L129.677 359.953L129.289 359.718L128.771 360.573ZM78.2212 329.9L77.3665 329.381L76.8472 330.236L77.7024 330.755L78.2212 329.9ZM80.1486 326.481L80.6104 325.593L79.724 325.132L79.2619 326.018L80.1486 326.481ZM127.456 351.107L126.994 351.994L128.794 352.931L128.441 350.933L127.456 351.107ZM125.903 342.329L126.888 342.155L126.795 341.629L126.306 341.414L125.903 342.329ZM81.849 322.943L80.9341 322.54L80.5301 323.455L81.4462 323.858L81.849 322.943ZM86.9224 300.082L86.9442 299.082L85.9434 299.06L85.9227 300.061L86.9224 300.082ZM135.037 301.13L135.015 302.13L135.549 302.141L135.856 301.704L135.037 301.13ZM140.154 293.831L140.972 294.405L142.137 292.743L140.11 292.832L140.154 293.831ZM86.8749 296.157L85.8759 296.202L85.9207 297.199L86.9185 297.156L86.8749 296.157ZM86.5709 292.243L86.462 291.249L85.467 291.358L85.5769 292.353L86.5709 292.243ZM145.346 285.807L145.455 286.801L145.905 286.752L146.165 286.381L145.346 285.807ZM151.668 276.779L152.487 277.352L153.06 276.533L152.241 275.96L151.668 276.779ZM85.4453 285.483L142.877 271.428L142.402 269.486L84.9699 283.54L85.4453 285.483ZM83.2006 281.029C83.5837 282.25 83.9294 283.49 84.236 284.748L86.1792 284.275C85.8622 282.974 85.5049 281.692 85.1088 280.43L83.2006 281.029ZM134.715 263.74L83.854 279.776L84.4554 281.684L135.317 265.647L134.715 263.74ZM127.138 260.404L134.443 265.513L135.589 263.874L128.284 258.765L127.138 260.404ZM83.2194 277.957L128.074 260.516L127.349 258.652L82.4946 276.093L83.2194 277.957ZM69.5486 257.97C74.8232 263.47 79.0725 270.029 81.9246 277.387L83.7894 276.664C80.8398 269.054 76.4453 262.271 70.9921 256.586L69.5486 257.97ZM104.346 223.271L69.5788 256.556L70.9619 258L105.729 224.716L104.346 223.271ZM102.509 215.387L104.053 224.167L106.022 223.82L104.479 215.041L102.509 215.387ZM68.1999 255.211L104.231 215.89L102.757 214.538L66.7254 253.86L68.1999 255.211ZM63.8563 252.761C64.8598 253.566 65.8375 254.404 66.7876 255.273L68.1377 253.798C67.1555 252.899 66.1448 252.033 65.1075 251.201L63.8563 252.761ZM100.712 205.243L63.702 251.355L65.2618 252.607L102.272 206.495L100.712 205.243ZM98.5935 195.189L100.507 206.043L102.477 205.695L100.563 194.841L98.5935 195.189ZM88.898 197.914L99.752 196L99.4047 194.03L88.5507 195.944L88.898 197.914ZM58.9061 247.997L89.5792 197.448L87.8694 196.41L57.1963 246.96L58.9061 247.997ZM54.1692 246.438C55.3111 247.033 56.4327 247.665 57.5321 248.333L58.5703 246.624C57.4338 245.933 56.2744 245.28 55.094 244.664L54.1692 246.438ZM78.3712 197.782L53.7446 245.089L55.5186 246.013L80.1452 198.705L78.3712 197.782ZM70.6544 200.781L79.4324 199.228L79.084 197.259L70.306 198.812L70.6544 200.781ZM52.0095 244.253L71.3955 200.199L69.5649 199.394L50.179 243.448L52.0095 244.253ZM28.2119 239.777C36.1018 239.94 43.7188 241.69 50.6906 244.766L51.4979 242.936C44.2899 239.756 36.4131 237.946 28.2533 237.777L28.2119 239.777ZM28.2812 190.641L27.2328 238.755L29.2323 238.799L30.2808 190.684L28.2812 190.641ZM21.4076 186.365L28.707 191.482L29.855 189.844L22.5556 184.727L21.4076 186.365ZM25.3068 238.781L22.9806 185.502L20.9825 185.589L23.3087 238.868L25.3068 238.781ZM20.5038 240.123C21.7913 239.98 23.0747 239.881 24.3527 239.824L24.2629 237.826C22.9417 237.885 21.6149 237.988 20.2841 238.135L20.5038 240.123ZM12.964 180.462L19.3999 239.237L21.388 239.02L14.9521 180.245L12.964 180.462ZM4.35623 174.851L13.3845 181.173L14.5316 179.534L5.50338 173.213L4.35623 174.851ZM-0.572682 183.634L5.74896 174.605L4.11065 173.458L-2.21099 182.487L-0.572682 183.634ZM13.634 240.254L-0.420499 182.822L-2.36317 183.298L11.6913 240.73L13.634 240.254ZM9.1804 242.499C10.4009 242.116 11.6409 241.77 12.8994 241.463L12.4259 239.52C11.1251 239.837 9.84322 240.195 8.58138 240.591L9.1804 242.499ZM-8.10934 190.984L7.92717 241.846L9.83461 241.244L-6.2019 190.383L-8.10934 190.984ZM-11.4453 198.561L-6.33616 191.257L-7.97507 190.11L-13.0842 197.415L-11.4453 198.561ZM6.10853 242.48L-11.3327 197.626L-13.1968 198.351L4.24449 243.205L6.10853 242.48ZM-13.8789 256.151C-8.37943 250.876 -1.82026 246.627 5.53792 243.775L4.8151 241.91C-2.79473 244.86 -9.57757 249.254 -15.2633 254.707L-13.8789 256.151ZM-48.5776 221.354L-15.2935 256.121L-13.8488 254.738L-47.133 219.971L-48.5776 221.354ZM-56.4618 223.19L-47.6822 221.647L-48.0284 219.677L-56.8081 221.22L-56.4618 223.19ZM-16.638 257.499L-55.9593 221.468L-57.3105 222.943L-17.9891 258.974L-16.638 257.499ZM-19.0876 261.843C-18.2829 260.84 -17.4452 259.862 -16.5758 258.912L-18.0513 257.562C-18.95 258.544 -19.816 259.555 -20.6479 260.592L-19.0876 261.843ZM-66.6059 224.987L-20.4937 261.997L-19.2418 260.438L-65.354 223.427L-66.6059 224.987ZM-76.6603 227.106L-65.8063 225.192L-66.1536 223.223L-77.0076 225.136L-76.6603 227.106ZM-73.9353 236.802L-75.8491 225.948L-77.8187 226.295L-75.9049 237.149L-73.9353 236.802ZM-23.8518 266.793L-74.4013 236.12L-75.4388 237.83L-24.8894 268.503L-23.8518 266.793ZM-25.4114 271.53C-24.8159 270.388 -24.1836 269.267 -23.5159 268.167L-25.2253 267.129C-25.9156 268.266 -26.5691 269.425 -27.1847 270.605L-25.4114 271.53ZM-74.0669 247.328L-26.7598 271.955L-25.8363 270.181L-73.1434 245.554L-74.0669 247.328ZM-71.0679 255.045L-72.6204 246.267L-74.5899 246.616L-73.0373 255.394L-71.0679 255.045ZM-27.5957 273.69L-71.6498 254.304L-72.4553 256.135L-28.4012 275.521L-27.5957 273.69ZM-32.0722 297.488C-31.9088 289.598 -30.1591 281.981 -27.0835 275.009L-28.9134 274.202C-32.0931 281.41 -33.9028 289.286 -34.0718 297.446L-32.0722 297.488ZM-81.2081 297.418L-33.0938 298.467L-33.0502 296.467L-81.1645 295.419L-81.2081 297.418ZM-85.4843 304.292L-80.3674 296.992L-82.0051 295.844L-87.122 303.144L-85.4843 304.292ZM-33.0681 300.393L-86.3468 302.719L-86.2595 304.717L-32.9808 302.391L-33.0681 300.393ZM-31.7265 305.196C-31.8687 303.908 -31.968 302.625 -32.0254 301.347L-34.0234 301.437C-33.9641 302.758 -33.8614 304.085 -33.7144 305.415L-31.7265 305.196ZM-91.3866 312.735L-32.6116 306.3L-32.8293 304.311L-91.6043 310.747L-91.3866 312.735ZM-96.9979 321.343L-90.6763 312.315L-92.3146 311.168L-98.6362 320.196L-96.9979 321.343ZM-88.2152 326.272L-97.2435 319.951L-98.3906 321.589L-89.3624 327.91L-88.2152 326.272ZM-31.5949 312.066L-89.0265 326.12L-88.5511 328.063L-31.1195 314.008L-31.5949 312.066ZM-29.3502 316.519C-29.7333 315.299 -30.079 314.059 -30.3856 312.8L-32.3288 313.274C-32.0118 314.574 -31.6545 315.856 -31.2584 317.118L-29.3502 316.519ZM-80.8648 333.809L-30.0036 317.772L-30.605 315.865L-81.4662 331.901L-80.8648 333.809ZM-73.2875 337.145L-80.5923 332.036L-81.7386 333.675L-74.4338 338.784L-73.2875 337.145ZM-29.369 319.591L-74.2231 337.032L-73.4982 338.896L-28.6442 321.455L-29.369 319.591ZM-15.6982 339.579C-20.9728 334.079 -25.2221 327.52 -28.0742 320.162L-29.939 320.884C-26.9894 328.494 -22.5949 335.277 -17.1416 340.963L-15.6982 339.579ZM-50.4953 374.277L-15.7284 340.993L-17.1115 339.548L-51.8784 372.832L-50.4953 374.277ZM-48.6586 382.161L-50.2019 373.382L-52.1717 373.728L-50.6284 382.508L-48.6586 382.161ZM-14.3495 342.338L-50.3808 381.659L-48.9062 383.01L-12.8749 343.689L-14.3495 342.338ZM-10.0058 344.787C-11.0093 343.982 -11.987 343.145 -12.9372 342.275L-14.2873 343.751C-13.3051 344.65 -12.2944 345.516 -11.2571 346.348L-10.0058 344.787ZM-46.8617 392.305L-9.85157 346.193L-11.4113 344.941L-48.4214 391.054L-46.8617 392.305ZM-44.7429 402.36L-46.6567 391.506L-48.6263 391.853L-46.7125 402.707L-44.7429 402.36ZM-35.0473 399.635L-45.9013 401.549L-45.554 403.518L-34.7 401.604L-35.0473 399.635ZM-5.05563 349.551L-35.7286 400.101L-34.0188 401.138L-3.34579 350.589L-5.05563 349.551ZM-0.318663 351.111C-1.46057 350.515 -2.58215 349.883 -3.68161 349.216L-4.71981 350.925C-3.5833 351.615 -2.4239 352.269 -1.24345 352.884L-0.318663 351.111ZM-24.5205 399.766L0.105952 352.459L-1.66806 351.536L-26.2946 398.843L-24.5205 399.766ZM-16.8037 396.767L-25.5817 398.32L-25.2334 400.289L-16.4554 398.737L-16.8037 396.767ZM1.84099 353.295L-17.5448 397.349L-15.7142 398.155L3.67158 354.101L1.84099 353.295ZM25.6386 357.772C17.7487 357.608 10.1317 355.859 3.1599 352.783L2.35267 354.613C9.56064 357.793 17.4374 359.602 25.5972 359.771L25.6386 357.772ZM25.5693 406.908L26.6177 358.793L24.6181 358.75L23.5697 406.864L25.5693 406.908ZM32.4429 411.184L25.1435 406.067L23.9955 407.705L31.2949 412.821L32.4429 411.184ZM28.5437 358.768L30.8699 412.046L32.868 411.959L30.5418 358.68L28.5437 358.768ZM33.3467 357.426C32.0592 357.568 30.7757 357.668 29.4978 357.725L29.5876 359.723C30.9088 359.664 32.2356 359.561 33.5663 359.414L33.3467 357.426ZM40.8865 417.086L34.4506 358.311L32.4625 358.529L38.8984 417.304L40.8865 417.086ZM49.4943 422.697L40.466 416.376L39.3189 418.014L48.3471 424.336L49.4943 422.697ZM54.4232 413.915L48.1015 422.943L49.7398 424.09L56.0615 415.062L54.4232 413.915ZM40.2165 357.294L54.271 414.726L56.2137 414.251L42.1592 356.819L40.2165 357.294ZM44.6701 355.05C43.4497 355.433 42.2097 355.778 40.9511 356.085L41.4247 358.028C42.7254 357.711 44.0073 357.354 45.2691 356.958L44.6701 355.05ZM61.9598 406.564L45.9233 355.703L44.0159 356.304L60.0524 407.166L61.9598 406.564ZM65.2958 398.987L60.1866 406.292L61.8255 407.438L66.9347 400.133L65.2958 398.987ZM47.742 355.069L65.1832 399.923L67.0473 399.198L49.606 354.344L47.742 355.069ZM67.7296 341.398C62.2301 346.672 55.6708 350.922 48.3126 353.774L49.0354 355.639C56.6453 352.689 63.4282 348.294 69.114 342.841L67.7296 341.398ZM102.428 376.195L69.1441 341.428L67.6994 342.811L100.984 377.578L102.428 376.195ZM110.312 374.358L101.533 375.901L101.879 377.871L110.659 376.328L110.312 374.358ZM70.4886 340.049L109.81 376.08L111.161 374.606L71.8398 338.574L70.4886 340.049ZM72.9383 335.705C72.1335 336.709 71.2958 337.686 70.4264 338.637L71.902 339.987C72.8007 339.004 73.6666 337.994 74.4985 336.956L72.9383 335.705ZM120.457 372.561L74.3443 335.551L73.0924 337.111L119.205 374.121L120.457 372.561ZM130.511 370.442L119.657 372.356L120.004 374.326L130.858 372.412L130.511 370.442ZM127.786 360.747L129.7 371.601L131.669 371.254L129.756 360.4L127.786 360.747ZM77.7024 330.755L128.252 361.428L129.289 359.718L78.74 329.045L77.7024 330.755ZM79.2619 326.018C78.6664 327.16 78.0342 328.282 77.3665 329.381L79.0759 330.419C79.7662 329.283 80.4197 328.123 81.0353 326.943L79.2619 326.018ZM127.918 350.22L80.6104 325.593L79.6869 327.368L126.994 351.994L127.918 350.22ZM124.919 342.503L126.471 351.281L128.441 350.933L126.888 342.155L124.919 342.503ZM81.4462 323.858L125.5 343.244L126.306 341.414L82.2518 322.028L81.4462 323.858ZM85.9227 300.061C85.7593 307.951 84.0096 315.568 80.9341 322.54L82.7639 323.347C85.9436 316.139 87.7532 308.262 87.9222 300.102L85.9227 300.061ZM135.059 300.13L86.9442 299.082L86.9007 301.081L135.015 302.13L135.059 300.13ZM139.335 293.257L134.218 300.556L135.856 301.704L140.972 294.405L139.335 293.257ZM86.9185 297.156L140.197 294.83L140.11 292.832L86.8312 295.158L86.9185 297.156ZM85.5769 292.353C85.7192 293.64 85.8185 294.924 85.8759 296.202L87.8739 296.112C87.8145 294.791 87.7119 293.464 87.5648 292.133L85.5769 292.353ZM145.237 284.813L86.462 291.249L86.6797 293.237L145.455 286.801L145.237 284.813ZM150.848 276.205L144.527 285.233L146.165 286.381L152.487 277.352L150.848 276.205ZM142.066 271.276L151.094 277.598L152.241 275.96L143.213 269.638L142.066 271.276Z" fill="white" fill-opacity="0.2" mask="url(#path-8-inside-1_1884_44438)"/>
<path d="M294.225 251.641L274.638 262.576L274.334 262.745L274.388 263.089L277.831 285.25L261.382 270.001L261.127 269.764L260.816 269.921L240.801 280.047L250.221 259.69L250.367 259.374L250.121 259.127L234.307 243.219L256.579 245.889L256.924 245.931L257.083 245.621L267.325 225.666L271.668 247.667L271.736 248.009L272.079 248.064L294.225 251.641Z" stroke="white" stroke-opacity="0.2"/>
</g>
</g>
<defs>
<clipPath id="clip0_1884_44438">
<rect width="1440" height="400" fill="white"/>
</clipPath>
<clipPath id="clip1_1884_44438">
<rect width="1200" height="600" fill="white" transform="translate(-209 35.7461) rotate(-10)"/>
</clipPath>
</defs>
</svg>
