<svg width="1440" height="520" viewBox="0 0 1440 520" fill="none" xmlns="http://www.w3.org/2000/svg">
<g clip-path="url(#clip0_1852_23614)">
<path d="M0 0H1440V456.14L0 520V0Z" fill="#1888FF"/>
<g clip-path="url(#clip1_1852_23614)">
<path d="M-226.558 -86.2529L955.212 -294.631L1007.31 0.811575L60.3044 465.652L-226.558 -86.2529Z" fill="#1888FF"/>
<path d="M60.5227 464.988L-225.8 -85.8789L954.806 -294.052L1006.75 0.528315L60.5227 464.988Z" stroke="white" stroke-opacity="0.2"/>
<path d="M9.36763 176.775L1007.31 0.811639L1059.4 296.254L-122.369 504.632L9.36763 176.775Z" fill="#1888FF"/>
<path d="M-121.569 503.983L9.72802 177.219L1006.9 1.39087L1058.82 295.848L-121.569 503.983Z" stroke="white" stroke-opacity="0.2"/>
<path d="M337.256 118.959L-122.369 504.632L-226.558 -86.2529L337.256 118.959Z" fill="#1888FF"/>
<path d="M-225.915 -85.4869L336.271 119.133L-122.027 503.692L-225.915 -85.4869Z" stroke="white" stroke-opacity="0.2"/>
<mask id="path-8-inside-1_1852_23614" fill="white">
<path fill-rule="evenodd" clip-rule="evenodd" d="M125.082 148.458L67.6499 162.512C67.3381 161.233 66.9866 159.972 66.597 158.731L117.458 142.694L110.153 137.585L65.2993 155.026C62.3985 147.542 58.0766 140.871 52.7127 135.279L87.4798 101.994L85.9365 93.2147L49.905 132.536C48.9388 131.652 47.9446 130.8 46.9242 129.982L83.9345 83.8697L82.0207 73.0157L71.1667 74.9295L40.4935 125.479C39.3756 124.8 38.2351 124.157 37.0739 123.552L61.7005 76.2445L52.9225 77.797L33.5366 121.851C26.4467 118.724 18.6997 116.944 10.6749 116.778L11.7233 68.6634L4.42388 63.5466L6.75009 116.825C5.45054 116.884 4.14542 116.985 2.8363 117.129L-3.59964 58.3543L-12.6279 52.0326L-18.9495 61.0609L-4.89505 118.493C-6.1747 118.804 -7.43564 119.156 -8.67679 119.546L-24.7133 68.6842L-29.8224 75.9891L-12.3812 120.843C-19.8652 123.744 -26.5362 128.066 -32.1288 133.43L-65.413 98.6628L-74.1926 100.206L-34.8712 136.237C-35.7553 137.204 -36.6071 138.198 -37.4254 139.218L-83.5376 102.208L-94.3916 104.122L-92.4777 114.976L-41.9283 145.649C-42.6073 146.767 -43.2502 147.907 -43.8557 149.069L-91.1628 124.442L-89.6102 133.22L-45.5561 152.606C-48.6838 159.696 -50.4634 167.443 -50.6297 175.468L-98.744 174.419L-103.861 181.719L-50.5821 179.392C-50.5237 180.692 -50.4228 181.997 -50.2781 183.306L-109.053 189.742L-115.375 198.77L-106.347 205.092L-48.9149 191.038C-48.6031 192.317 -48.2516 193.578 -47.8619 194.819L-98.7232 210.856L-91.4183 215.965L-46.5643 198.524C-43.6634 206.008 -39.3415 212.679 -33.9776 218.271L-68.7445 251.556L-67.2012 260.335L-31.1699 221.014C-30.2037 221.898 -29.2095 222.75 -28.1891 223.568L-65.1992 269.68L-63.2854 280.534L-52.4314 278.62L-21.7584 228.071C-20.6404 228.75 -19.4999 229.393 -18.3387 229.998L-42.9652 277.305L-34.1872 275.753L-14.8014 231.699C-7.71148 234.826 0.0353958 236.606 8.06023 236.772L7.01182 284.886L14.3112 290.003L11.985 236.725C13.2846 236.666 14.5897 236.565 15.8988 236.421L22.3348 295.196L31.363 301.517L37.6846 292.489L23.6302 235.057C24.9099 234.746 26.1708 234.394 27.412 234.004L43.4484 284.866L48.5576 277.561L31.1163 232.707C38.6004 229.806 45.2715 225.484 50.8641 220.12L84.1483 254.887L92.9279 253.344L53.6065 217.312C54.4906 216.346 55.3424 215.352 56.1607 214.332L102.273 251.342L113.127 249.428L111.213 238.574L60.6635 207.901C61.3425 206.783 61.9854 205.642 62.5909 204.481L109.898 229.108L108.346 220.33L64.2913 200.944C67.419 193.854 69.1986 186.107 69.3648 178.082L117.479 179.131L122.596 171.831L69.3172 174.157C69.2588 172.858 69.1578 171.553 69.0132 170.244L127.788 163.808L134.11 154.78L125.082 148.458Z"/>
</mask>
<path d="M67.6499 162.512L66.6784 162.749L66.9153 163.722L67.8876 163.484L67.6499 162.512ZM125.082 148.458L125.655 147.639L125.284 147.379L124.844 147.487L125.082 148.458ZM66.597 158.731L66.2963 157.777L65.3438 158.077L65.6429 159.03L66.597 158.731ZM117.458 142.694L117.759 143.648L119.694 143.038L118.031 141.875L117.458 142.694ZM110.153 137.585L110.727 136.765L110.289 136.459L109.791 136.653L110.153 137.585ZM65.2993 155.026L64.3669 155.388L64.7287 156.321L65.6617 155.958L65.2993 155.026ZM52.7127 135.279L52.0211 134.556L51.2981 135.248L51.991 135.971L52.7127 135.279ZM87.4798 101.994L88.1713 102.717L88.5572 102.347L88.4647 101.821L87.4798 101.994ZM85.9365 93.2147L86.9214 93.0415L86.5701 91.043L85.1992 92.5391L85.9365 93.2147ZM49.905 132.536L49.2299 133.274L49.9672 133.948L50.6423 133.212L49.905 132.536ZM46.9242 129.982L46.1443 129.356L45.5182 130.136L46.2986 130.762L46.9242 129.982ZM83.9345 83.8697L84.7144 84.4956L84.998 84.1423L84.9193 83.696L83.9345 83.8697ZM82.0207 73.0157L83.0055 72.842L82.8318 71.8572L81.847 72.0309L82.0207 73.0157ZM71.1667 74.9295L70.993 73.9447L70.5468 74.0234L70.3117 74.4108L71.1667 74.9295ZM40.4935 125.479L39.9744 126.334L40.8295 126.853L41.3484 125.998L40.4935 125.479ZM37.0739 123.552L36.1869 123.09L35.7255 123.976L36.6115 124.438L37.0739 123.552ZM61.7005 76.2445L62.5875 76.7062L63.5245 74.9063L61.5263 75.2597L61.7005 76.2445ZM52.9225 77.797L52.7483 76.8123L52.2223 76.9054L52.0072 77.3943L52.9225 77.797ZM33.5366 121.851L33.133 122.766L34.0487 123.17L34.4519 122.254L33.5366 121.851ZM10.6749 116.778L9.67514 116.756L9.65333 117.757L10.6542 117.778L10.6749 116.778ZM11.7233 68.6634L12.7231 68.6852L12.7347 68.1512L12.2973 67.8446L11.7233 68.6634ZM4.42388 63.5466L4.99789 62.7277L3.33632 61.563L3.42484 63.5902L4.42388 63.5466ZM6.75009 116.825L6.79497 117.824L7.79271 117.78L7.74913 116.782L6.75009 116.825ZM2.8363 117.129L1.84223 117.238L1.9512 118.233L2.94613 118.123L2.8363 117.129ZM-3.59964 58.3543L-2.60558 58.2454L-2.65491 57.795L-3.02606 57.5351L-3.59964 58.3543ZM-12.6279 52.0326L-12.0543 51.2135L-12.8735 50.6399L-13.447 51.4591L-12.6279 52.0326ZM-18.9495 61.0609L-19.7687 60.4873L-20.0286 60.8585L-19.9208 61.2986L-18.9495 61.0609ZM-4.89505 118.493L-4.6583 119.464L-3.68578 119.227L-3.92372 118.255L-4.89505 118.493ZM-8.67679 119.546L-9.63051 119.846L-9.33018 120.799L-8.37728 120.5L-8.67679 119.546ZM-24.7133 68.6842L-23.7596 68.3835L-24.3698 66.4483L-25.5328 68.1111L-24.7133 68.6842ZM-29.8224 75.9891L-30.6419 75.4159L-30.948 75.8536L-30.7545 76.3515L-29.8224 75.9891ZM-12.3812 120.843L-12.0198 121.776L-11.0863 121.414L-11.4492 120.481L-12.3812 120.843ZM-32.1288 133.43L-32.8511 134.121L-32.159 134.844L-31.4366 134.152L-32.1288 133.43ZM-65.413 98.6628L-64.6906 97.9712L-65.06 97.5854L-65.5861 97.6779L-65.413 98.6628ZM-74.1926 100.206L-74.3657 99.2212L-76.3643 99.5725L-74.8682 100.943L-74.1926 100.206ZM-34.8712 136.237L-34.1335 136.913L-33.4589 136.175L-34.1956 135.5L-34.8712 136.237ZM-37.4254 139.218L-38.0514 139.998L-37.2712 140.624L-36.6453 139.844L-37.4254 139.218ZM-83.5376 102.208L-82.9117 101.428L-83.265 101.145L-83.7112 101.223L-83.5376 102.208ZM-94.3916 104.122L-94.5653 103.137L-95.5501 103.311L-95.3764 104.296L-94.3916 104.122ZM-92.4777 114.976L-93.4626 115.15L-93.3839 115.596L-92.9965 115.831L-92.4777 114.976ZM-41.9283 145.649L-41.0736 146.168L-40.5543 145.313L-41.4095 144.794L-41.9283 145.649ZM-43.8557 149.069L-44.3175 149.956L-43.4311 150.417L-42.969 149.531L-43.8557 149.069ZM-91.1628 124.442L-90.7011 123.555L-92.501 122.618L-92.1475 124.616L-91.1628 124.442ZM-89.6102 133.22L-90.595 133.394L-90.5019 133.92L-90.013 134.135L-89.6102 133.22ZM-45.5561 152.606L-44.6412 153.01L-44.2372 152.094L-45.1533 151.691L-45.5561 152.606ZM-50.6297 175.468L-50.6515 176.467L-49.6506 176.489L-49.6299 175.488L-50.6297 175.468ZM-98.744 174.419L-98.7222 173.419L-99.2562 173.408L-99.5628 173.845L-98.744 174.419ZM-103.861 181.719L-104.68 181.145L-105.844 182.806L-103.817 182.718L-103.861 181.719ZM-50.5821 179.392L-49.5831 179.348L-49.6279 178.35L-50.6257 178.393L-50.5821 179.392ZM-50.2781 183.306L-50.1693 184.3L-49.1743 184.191L-49.2842 183.196L-50.2781 183.306ZM-109.053 189.742L-109.162 188.748L-109.612 188.797L-109.872 189.169L-109.053 189.742ZM-115.375 198.77L-116.194 198.197L-116.767 199.016L-115.948 199.59L-115.375 198.77ZM-106.347 205.092L-106.92 205.911L-106.549 206.171L-106.109 206.063L-106.347 205.092ZM-48.9149 191.038L-47.9433 190.801L-48.1803 189.828L-49.1526 190.066L-48.9149 191.038ZM-47.8619 194.819L-47.5612 195.773L-46.6087 195.473L-46.9079 194.52L-47.8619 194.819ZM-98.7232 210.856L-99.0239 209.902L-100.959 210.512L-99.2963 211.675L-98.7232 210.856ZM-91.4183 215.965L-91.9915 216.784L-91.5538 217.091L-91.0559 216.897L-91.4183 215.965ZM-46.5643 198.524L-45.6319 198.162L-45.9937 197.229L-46.9267 197.592L-46.5643 198.524ZM-33.9776 218.271L-33.2861 218.994L-32.5631 218.302L-33.2559 217.579L-33.9776 218.271ZM-68.7445 251.556L-69.436 250.833L-69.8219 251.203L-69.7294 251.729L-68.7445 251.556ZM-67.2012 260.335L-68.1861 260.508L-67.8348 262.507L-66.4639 261.011L-67.2012 260.335ZM-31.1699 221.014L-30.4948 220.276L-31.2321 219.602L-31.9072 220.338L-31.1699 221.014ZM-28.1891 223.568L-27.4092 224.194L-26.7831 223.414L-27.5635 222.788L-28.1891 223.568ZM-65.1992 269.68L-65.9791 269.054L-66.2627 269.408L-66.184 269.854L-65.1992 269.68ZM-63.2854 280.534L-64.2702 280.708L-64.0965 281.693L-63.1117 281.519L-63.2854 280.534ZM-52.4314 278.62L-52.2577 279.605L-51.8115 279.526L-51.5764 279.139L-52.4314 278.62ZM-21.7584 228.071L-21.2393 227.216L-22.0943 226.697L-22.6133 227.552L-21.7584 228.071ZM-18.3387 229.998L-17.4517 230.46L-16.9903 229.574L-17.8763 229.112L-18.3387 229.998ZM-42.9652 277.305L-43.8522 276.844L-44.7892 278.644L-42.7911 278.29L-42.9652 277.305ZM-34.1872 275.753L-34.0131 276.738L-33.4871 276.645L-33.2719 276.156L-34.1872 275.753ZM-14.8014 231.699L-14.3978 230.784L-15.3135 230.38L-15.7167 231.296L-14.8014 231.699ZM8.06023 236.772L9.05999 236.794L9.0818 235.793L8.08094 235.772L8.06023 236.772ZM7.01182 284.886L6.01206 284.865L6.00042 285.399L6.43781 285.705L7.01182 284.886ZM14.3112 290.003L13.7372 290.822L15.3988 291.987L15.3103 289.96L14.3112 290.003ZM11.985 236.725L11.9402 235.726L10.9424 235.771L10.986 236.768L11.985 236.725ZM15.8988 236.421L16.8929 236.312L16.7839 235.317L15.789 235.427L15.8988 236.421ZM22.3348 295.196L21.3407 295.304L21.39 295.755L21.7612 296.015L22.3348 295.196ZM31.363 301.517L30.7894 302.336L31.6086 302.91L32.1822 302.091L31.363 301.517ZM37.6846 292.489L38.5038 293.063L38.7637 292.691L38.656 292.251L37.6846 292.489ZM23.6302 235.057L23.3935 234.086L22.4209 234.323L22.6589 235.295L23.6302 235.057ZM27.412 234.004L28.3657 233.704L28.0654 232.751L27.1125 233.05L27.412 234.004ZM43.4484 284.866L42.4947 285.166L43.1049 287.102L44.2679 285.439L43.4484 284.866ZM48.5576 277.561L49.377 278.134L49.6832 277.696L49.4896 277.198L48.5576 277.561ZM31.1163 232.707L30.7549 231.774L29.8215 232.136L30.1843 233.069L31.1163 232.707ZM50.8641 220.12L51.5864 219.429L50.8943 218.706L50.1719 219.398L50.8641 220.12ZM84.1483 254.887L83.4259 255.579L83.7953 255.964L84.3214 255.872L84.1483 254.887ZM92.9279 253.344L93.101 254.329L95.0995 253.977L93.6035 252.607L92.9279 253.344ZM53.6065 217.312L52.8687 216.637L52.1942 217.375L52.9309 218.05L53.6065 217.312ZM56.1607 214.332L56.7866 213.552L56.0065 212.926L55.3806 213.706L56.1607 214.332ZM102.273 251.342L101.647 252.122L102 252.405L102.447 252.327L102.273 251.342ZM113.127 249.428L113.301 250.413L114.285 250.239L114.112 249.254L113.127 249.428ZM111.213 238.574L112.198 238.4L112.119 237.954L111.732 237.719L111.213 238.574ZM60.6635 207.901L59.8088 207.382L59.2895 208.237L60.1448 208.756L60.6635 207.901ZM62.5909 204.481L63.0527 203.594L62.1663 203.133L61.7043 204.019L62.5909 204.481ZM109.898 229.108L109.436 229.995L111.236 230.932L110.883 228.934L109.898 229.108ZM108.346 220.33L109.33 220.156L109.237 219.63L108.748 219.415L108.346 220.33ZM64.2913 200.944L63.3764 200.54L62.9724 201.456L63.8886 201.859L64.2913 200.944ZM69.3648 178.082L69.3866 177.083L68.3857 177.061L68.365 178.062L69.3648 178.082ZM117.479 179.131L117.457 180.13L117.991 180.142L118.298 179.705L117.479 179.131ZM122.596 171.831L123.415 172.405L124.58 170.744L122.552 170.832L122.596 171.831ZM69.3172 174.157L68.3182 174.202L68.363 175.2L69.3608 175.157L69.3172 174.157ZM69.0132 170.244L68.9043 169.25L67.9093 169.359L68.0192 170.354L69.0132 170.244ZM127.788 163.808L127.897 164.802L128.348 164.752L128.607 164.381L127.788 163.808ZM134.11 154.78L134.929 155.353L135.503 154.534L134.683 153.96L134.11 154.78ZM67.8876 163.484L125.319 149.429L124.844 147.487L67.4122 161.541L67.8876 163.484ZM65.6429 159.03C66.026 160.251 66.3717 161.491 66.6784 162.749L68.6215 162.276C68.3045 160.975 67.9472 159.693 67.5511 158.431L65.6429 159.03ZM117.158 141.74L66.2963 157.777L66.8977 159.684L117.759 143.648L117.158 141.74ZM109.58 138.404L116.885 143.514L118.031 141.875L110.727 136.765L109.58 138.404ZM65.6617 155.958L110.516 138.517L109.791 136.653L64.9369 154.094L65.6617 155.958ZM51.991 135.971C57.2655 141.47 61.5148 148.029 64.3669 155.388L66.2317 154.665C63.2821 147.055 58.8876 140.272 53.4344 134.586L51.991 135.971ZM86.7883 101.272L52.0211 134.556L53.4042 136.001L88.1713 102.717L86.7883 101.272ZM84.9516 93.3878L86.4949 102.167L88.4647 101.821L86.9214 93.0415L84.9516 93.3878ZM50.6423 133.212L86.6738 93.8903L85.1992 92.5391L49.1677 131.861L50.6423 133.212ZM46.2986 130.762C47.3021 131.567 48.2798 132.405 49.2299 133.274L50.58 131.798C49.5978 130.9 48.5872 130.034 47.5498 129.202L46.2986 130.762ZM83.1546 83.2437L46.1443 129.356L47.7041 130.608L84.7144 84.4956L83.1546 83.2437ZM81.0358 73.1893L82.9497 84.0433L84.9193 83.696L83.0055 72.842L81.0358 73.1893ZM71.3403 75.9143L82.1943 74.0005L81.847 72.0309L70.993 73.9447L71.3403 75.9143ZM41.3484 125.998L72.0216 75.4483L70.3117 74.4108L39.6386 124.96L41.3484 125.998ZM36.6115 124.438C37.7534 125.034 38.875 125.666 39.9744 126.334L41.0126 124.624C39.8761 123.934 38.7167 123.281 37.5363 122.665L36.6115 124.438ZM60.8135 75.7827L36.1869 123.09L37.9609 124.013L62.5875 76.7062L60.8135 75.7827ZM53.0967 78.7818L61.8747 77.2292L61.5263 75.2597L52.7483 76.8123L53.0967 78.7818ZM34.4519 122.254L53.8378 78.1998L52.0072 77.3943L32.6213 121.449L34.4519 122.254ZM10.6542 117.778C18.5441 117.941 26.1611 119.691 33.133 122.766L33.9402 120.936C26.7322 117.757 18.8554 115.947 10.6956 115.778L10.6542 117.778ZM10.7236 68.6416L9.67514 116.756L11.6747 116.8L12.7231 68.6852L10.7236 68.6416ZM3.84988 64.3654L11.1493 69.4823L12.2973 67.8446L4.99789 62.7277L3.84988 64.3654ZM7.74913 116.782L5.42293 63.5029L3.42484 63.5902L5.75105 116.869L7.74913 116.782ZM2.94613 118.123C4.2336 117.981 5.51706 117.882 6.79497 117.824L6.70521 115.826C5.38401 115.886 4.05723 115.988 2.72647 116.135L2.94613 118.123ZM-4.5937 58.4631L1.84223 117.238L3.83036 117.021L-2.60558 58.2454L-4.5937 58.4631ZM-13.2015 52.8518L-4.17322 59.1734L-3.02606 57.5351L-12.0543 51.2135L-13.2015 52.8518ZM-18.1304 61.6345L-11.8087 52.6062L-13.447 51.4591L-19.7687 60.4873L-18.1304 61.6345ZM-3.92372 118.255L-17.9782 60.8232L-19.9208 61.2986L-5.86639 118.73L-3.92372 118.255ZM-8.37728 120.5C-7.15682 120.117 -5.9168 119.771 -4.6583 119.464L-5.13181 117.521C-6.43259 117.838 -7.71446 118.195 -8.9763 118.591L-8.37728 120.5ZM-25.667 68.9849L-9.63051 119.846L-7.72307 119.245L-23.7596 68.3835L-25.667 68.9849ZM-29.003 76.5622L-23.8938 69.2574L-25.5328 68.1111L-30.6419 75.4159L-29.003 76.5622ZM-11.4492 120.481L-28.8904 75.6267L-30.7545 76.3515L-13.3132 121.206L-11.4492 120.481ZM-31.4366 134.152C-25.9371 128.877 -19.3779 124.628 -12.0198 121.776L-12.7426 119.911C-20.3524 122.86 -27.1353 127.255 -32.821 132.708L-31.4366 134.152ZM-66.1353 99.3543L-32.8511 134.121L-31.4064 132.738L-64.6906 97.9712L-66.1353 99.3543ZM-74.0195 101.191L-65.2398 99.6477L-65.5861 97.6779L-74.3657 99.2212L-74.0195 101.191ZM-34.1956 135.5L-73.517 99.4688L-74.8682 100.943L-35.5468 136.975L-34.1956 135.5ZM-36.6453 139.844C-35.8405 138.84 -35.0028 137.863 -34.1335 136.913L-35.609 135.562C-36.5077 136.545 -37.3737 137.555 -38.2055 138.593L-36.6453 139.844ZM-84.1635 102.988L-38.0514 139.998L-36.7995 138.438L-82.9117 101.428L-84.1635 102.988ZM-94.218 105.107L-83.364 103.193L-83.7112 101.223L-94.5653 103.137L-94.218 105.107ZM-91.4929 114.802L-93.4068 103.948L-95.3764 104.296L-93.4626 115.15L-91.4929 114.802ZM-41.4095 144.794L-91.959 114.121L-92.9965 115.831L-42.447 146.504L-41.4095 144.794ZM-42.969 149.531C-42.3735 148.389 -41.7413 147.268 -41.0736 146.168L-42.783 145.13C-43.4732 146.266 -44.1268 147.426 -44.7424 148.606L-42.969 149.531ZM-91.6246 125.329L-44.3175 149.956L-43.394 148.182L-90.7011 123.555L-91.6246 125.329ZM-88.6255 133.046L-90.1781 124.268L-92.1475 124.616L-90.595 133.394L-88.6255 133.046ZM-45.1533 151.691L-89.2075 132.305L-90.013 134.135L-45.9589 153.521L-45.1533 151.691ZM-49.6299 175.488C-49.4665 167.598 -47.7168 159.981 -44.6412 153.01L-46.4711 152.202C-49.6508 159.41 -51.4604 167.287 -51.6295 175.447L-49.6299 175.488ZM-98.7657 175.419L-50.6515 176.467L-50.6079 174.468L-98.7222 173.419L-98.7657 175.419ZM-103.042 182.293L-97.9251 174.993L-99.5628 173.845L-104.68 181.145L-103.042 182.293ZM-50.6257 178.393L-103.904 180.72L-103.817 182.718L-50.5385 180.391L-50.6257 178.393ZM-49.2842 183.196C-49.4264 181.909 -49.5257 180.625 -49.5831 179.348L-51.5811 179.437C-51.5217 180.759 -51.4191 182.085 -51.2721 183.416L-49.2842 183.196ZM-108.944 190.736L-50.1693 184.3L-50.387 182.312L-109.162 188.748L-108.944 190.736ZM-114.556 199.344L-108.234 190.316L-109.872 189.169L-116.194 198.197L-114.556 199.344ZM-105.773 204.273L-114.801 197.951L-115.948 199.59L-106.92 205.911L-105.773 204.273ZM-49.1526 190.066L-106.584 204.121L-106.109 206.063L-48.6772 192.009L-49.1526 190.066ZM-46.9079 194.52C-47.291 193.299 -47.6366 192.059 -47.9433 190.801L-49.8865 191.274C-49.5695 192.575 -49.2122 193.857 -48.816 195.119L-46.9079 194.52ZM-98.4224 211.81L-47.5612 195.773L-48.1627 193.866L-99.0239 209.902L-98.4224 211.81ZM-90.8452 215.146L-98.15 210.036L-99.2963 211.675L-91.9915 216.784L-90.8452 215.146ZM-46.9267 197.592L-91.7807 215.033L-91.0559 216.897L-46.2019 199.456L-46.9267 197.592ZM-33.2559 217.579C-38.5305 212.08 -42.7798 205.521 -45.6319 198.162L-47.4967 198.885C-44.5471 206.495 -40.1526 213.278 -34.6993 218.964L-33.2559 217.579ZM-68.053 252.278L-33.2861 218.994L-34.6691 217.549L-69.436 250.833L-68.053 252.278ZM-66.2163 260.162L-67.7596 251.382L-69.7294 251.729L-68.1861 260.508L-66.2163 260.162ZM-31.9072 220.338L-67.9385 259.66L-66.4639 261.011L-30.4326 221.689L-31.9072 220.338ZM-27.5635 222.788C-28.567 221.983 -29.5447 221.146 -30.4948 220.276L-31.845 221.752C-30.8628 222.65 -29.8521 223.516 -28.8147 224.348L-27.5635 222.788ZM-64.4193 270.306L-27.4092 224.194L-28.969 222.942L-65.9791 269.054L-64.4193 270.306ZM-62.3006 280.361L-64.2144 269.507L-66.184 269.854L-64.2702 280.708L-62.3006 280.361ZM-52.605 277.636L-63.459 279.549L-63.1117 281.519L-52.2577 279.605L-52.605 277.636ZM-22.6133 227.552L-53.2863 278.102L-51.5764 279.139L-20.9035 228.59L-22.6133 227.552ZM-17.8763 229.112C-19.0182 228.516 -20.1398 227.884 -21.2393 227.216L-22.2775 228.926C-21.141 229.616 -19.9816 230.269 -18.8011 230.885L-17.8763 229.112ZM-42.0782 277.767L-17.4517 230.46L-19.2257 229.537L-43.8522 276.844L-42.0782 277.767ZM-34.3614 274.768L-43.1394 276.321L-42.7911 278.29L-34.0131 276.738L-34.3614 274.768ZM-15.7167 231.296L-35.1025 275.35L-33.2719 276.156L-13.8861 232.102L-15.7167 231.296ZM8.08094 235.772C0.191028 235.609 -7.42593 233.859 -14.3978 230.784L-15.205 232.614C-7.99704 235.793 -0.120236 237.603 8.03952 237.772L8.08094 235.772ZM8.01158 284.908L9.05999 236.794L7.06047 236.75L6.01206 284.865L8.01158 284.908ZM14.8853 289.185L7.58583 284.068L6.43781 285.705L13.7372 290.822L14.8853 289.185ZM10.986 236.768L13.3122 290.047L15.3103 289.96L12.9841 236.681L10.986 236.768ZM15.789 235.427C14.5015 235.569 13.2181 235.668 11.9402 235.726L12.0299 237.724C13.3511 237.664 14.6779 237.562 16.0087 237.415L15.789 235.427ZM23.3288 295.087L16.8929 236.312L14.9048 236.53L21.3407 295.304L23.3288 295.087ZM31.9366 300.698L22.9083 294.376L21.7612 296.015L30.7894 302.336L31.9366 300.698ZM36.8655 291.915L30.5438 300.944L32.1822 302.091L38.5038 293.063L36.8655 291.915ZM22.6589 235.295L36.7133 292.727L38.656 292.251L24.6016 234.82L22.6589 235.295ZM27.1125 233.05C25.892 233.434 24.652 233.779 23.3935 234.086L23.867 236.029C25.1678 235.712 26.4496 235.355 27.7115 234.959L27.1125 233.05ZM44.4021 284.565L28.3657 233.704L26.4582 234.305L42.4947 285.166L44.4021 284.565ZM47.7381 276.988L42.629 284.293L44.2679 285.439L49.377 278.134L47.7381 276.988ZM30.1843 233.069L47.6256 277.923L49.4896 277.198L32.0484 232.344L30.1843 233.069ZM50.1719 219.398C44.6724 224.673 38.1132 228.922 30.7549 231.774L31.4777 233.639C39.0877 230.69 45.8705 226.295 51.5563 220.842L50.1719 219.398ZM84.8706 254.196L51.5864 219.429L50.1418 220.812L83.4259 255.579L84.8706 254.196ZM92.7548 252.359L83.9752 253.902L84.3214 255.872L93.101 254.329L92.7548 252.359ZM52.9309 218.05L92.2523 254.081L93.6035 252.607L54.2821 216.575L52.9309 218.05ZM55.3806 213.706C54.5758 214.709 53.7381 215.687 52.8687 216.637L54.3443 217.987C55.243 217.005 56.1089 215.995 56.9408 214.957L55.3806 213.706ZM102.899 250.562L56.7866 213.552L55.5348 215.111L101.647 252.122L102.899 250.562ZM112.953 248.443L102.099 250.357L102.447 252.327L113.301 250.413L112.953 248.443ZM110.228 238.748L112.142 249.602L114.112 249.254L112.198 238.4L110.228 238.748ZM60.1448 208.756L110.694 239.429L111.732 237.719L61.1823 207.046L60.1448 208.756ZM61.7043 204.019C61.1088 205.161 60.4765 206.282 59.8088 207.382L61.5182 208.42C62.2085 207.283 62.862 206.124 63.4776 204.944L61.7043 204.019ZM110.36 228.221L63.0527 203.594L62.1292 205.368L109.436 229.995L110.36 228.221ZM107.361 220.504L108.913 229.282L110.883 228.934L109.33 220.156L107.361 220.504ZM63.8886 201.859L107.943 221.245L108.748 219.415L64.6941 200.029L63.8886 201.859ZM68.365 178.062C68.2016 185.951 66.4519 193.568 63.3764 200.54L65.2063 201.348C68.386 194.14 70.1956 186.263 70.3646 178.103L68.365 178.062ZM117.501 178.131L69.3866 177.083L69.343 179.082L117.457 180.13L117.501 178.131ZM121.777 171.257L116.66 178.557L118.298 179.705L123.415 172.405L121.777 171.257ZM69.3608 175.157L122.64 172.83L122.552 170.832L69.2736 173.158L69.3608 175.157ZM68.0192 170.354C68.1615 171.641 68.2608 172.924 68.3182 174.202L70.3162 174.113C70.2568 172.791 70.1542 171.465 70.0072 170.134L68.0192 170.354ZM127.679 162.814L68.9043 169.25L69.1221 171.238L127.897 164.802L127.679 162.814ZM133.291 154.206L126.969 163.234L128.607 164.381L134.929 155.353L133.291 154.206ZM124.508 149.277L133.536 155.599L134.683 153.96L125.655 147.639L124.508 149.277Z" fill="white" fill-opacity="0.2" mask="url(#path-8-inside-1_1852_23614)"/>
<path d="M276.668 129.643L257.081 140.578L256.777 140.747L256.831 141.091L260.274 163.252L243.825 148.003L243.57 147.766L243.259 147.923L223.244 158.049L232.664 137.692L232.81 137.376L232.565 137.129L216.75 121.221L239.022 123.891L239.367 123.932L239.526 123.623L249.768 103.668L254.112 125.669L254.179 126.011L254.522 126.066L276.668 129.643Z" stroke="white" stroke-opacity="0.2"/>
</g>
</g>
<defs>
<clipPath id="clip0_1852_23614">
<rect width="1440" height="520" fill="white"/>
</clipPath>
<clipPath id="clip1_1852_23614">
<rect width="1200" height="600" fill="white" transform="translate(-226.558 -86.2529) rotate(-10)"/>
</clipPath>
</defs>
</svg>
