<svg width="97" height="95" viewBox="0 0 97 95" fill="none" xmlns="http://www.w3.org/2000/svg">
<path d="M6.25761 83.18H8.09761C9.29761 83.18 10.1176 82.48 10.1176 81.38C10.1176 80.24 9.29761 79.56 8.09761 79.56H6.25761V83.18ZM8.41761 85.9H6.23761V91H3.07761V76.82H8.41761C11.2976 76.82 13.2776 78.72 13.2776 81.36C13.2776 84.04 11.2976 85.9 8.41761 85.9ZM17.8632 91H14.8232V76.52H17.8632V91ZM19.6887 88.26C19.6887 86.5 20.9887 85.5 22.6287 85.26L24.9687 84.9C25.5087 84.82 25.6887 84.56 25.6887 84.22C25.6887 83.64 25.1887 83.14 24.2287 83.14C23.1687 83.14 22.5887 83.86 22.5287 84.6L19.8887 84.06C20.0087 82.64 21.3287 80.76 24.2487 80.76C27.4687 80.76 28.6487 82.56 28.6487 84.6V89.46C28.6487 90.24 28.7487 90.9 28.7687 91H26.0287C26.0087 90.92 25.9287 90.56 25.9287 89.88C25.4087 90.72 24.4487 91.28 23.1287 91.28C20.9487 91.28 19.6887 89.84 19.6887 88.26ZM23.8687 89.08C24.7687 89.08 25.6887 88.64 25.6887 87.1V86.66L23.8087 86.96C23.1687 87.06 22.6887 87.36 22.6887 88.06C22.6887 88.58 23.0287 89.08 23.8687 89.08ZM34.5956 94.82H31.3956L33.6556 89.66L29.4756 81.06H32.8756L35.2956 86.38L37.4956 81.06H40.7156L34.5956 94.82ZM55.1318 81.06L51.3518 91H48.2918L44.2118 81.06H47.5118L49.8118 87.24L51.9318 81.06H55.1318ZM59.5585 91H56.5185V81.06H59.5585V91ZM56.2585 78.02C56.2585 77.04 57.0585 76.24 58.0185 76.24C59.0185 76.24 59.8185 77.04 59.8185 78.02C59.8185 79 59.0185 79.8 58.0185 79.8C57.0585 79.8 56.2585 79 56.2585 78.02ZM71.864 76.52V89.22C71.864 90.12 71.924 90.78 71.944 91H69.024C69.004 90.88 68.944 90.44 68.944 90.04C68.484 90.72 67.484 91.22 66.284 91.22C63.484 91.22 61.364 89.06 61.364 86C61.364 83.04 63.364 80.82 66.184 80.82C67.884 80.82 68.624 81.46 68.864 81.84V76.52H71.864ZM64.424 86.02C64.424 87.66 65.484 88.5 66.664 88.5C67.844 88.5 68.904 87.66 68.904 86.02C68.904 84.36 67.844 83.56 66.664 83.56C65.484 83.56 64.424 84.36 64.424 86.02ZM76.7035 84.84H80.6835C80.6435 84.08 80.1235 83.16 78.6835 83.16C77.4035 83.16 76.7635 84.1 76.7035 84.84ZM80.9035 87.42L83.4435 88.14C82.9635 89.86 81.3835 91.3 78.8635 91.3C76.1235 91.3 73.6835 89.34 73.6835 86C73.6835 82.8 76.0635 80.76 78.6435 80.76C81.7235 80.76 83.6235 82.66 83.6235 85.86C83.6235 86.28 83.5835 86.74 83.5635 86.8H76.6435C76.7035 87.92 77.7235 88.72 78.9035 88.72C80.0035 88.72 80.6235 88.2 80.9035 87.42ZM90.1698 88.5C91.3298 88.5 92.4098 87.7 92.4098 86.02C92.4098 84.34 91.3298 83.56 90.1698 83.56C89.0298 83.56 87.9298 84.34 87.9298 86.02C87.9298 87.68 89.0298 88.5 90.1698 88.5ZM90.1698 80.76C93.1498 80.76 95.4498 82.94 95.4498 86.02C95.4498 89.1 93.1498 91.3 90.1698 91.3C87.2098 91.3 84.8898 89.1 84.8898 86.02C84.8898 82.94 87.2098 80.76 90.1698 80.76Z" fill="white"/>
<rect x="0.319794" width="96.081" height="64" rx="16" fill="#ECF3FA"/>
<path d="M63.756 31.1212C64.4531 31.4997 64.4531 32.5003 63.756 32.8788L41.3303 45.0544C40.6639 45.4162 39.8531 44.9338 39.8531 44.1756V19.8244C39.8531 19.0662 40.6639 18.5838 41.3303 18.9456L63.756 31.1212Z" fill="#3E4D5E"/>
</svg>
