<svg width="234" height="160" viewBox="0 0 234 160" fill="none" xmlns="http://www.w3.org/2000/svg">
<path d="M183.118 160C168.495 160 156.309 155.01 146.561 145.031C137.034 134.83 132.27 120.305 132.27 101.455C132.27 84.158 135.594 68.8565 142.24 55.5509C148.887 42.2453 157.196 30.9356 167.166 21.6216C177.136 12.3077 187.217 5.10048 197.408 0L215.022 19.9584C209.483 22.176 203.169 26.3895 196.079 32.5988C189.211 38.5863 183.118 45.5717 177.801 53.5551C172.705 61.3167 169.935 69.1892 169.492 77.1725C171.486 74.5114 174.92 72.2938 179.795 70.5197C184.669 68.7457 189.765 67.8586 195.082 67.8586C205.052 67.8586 213.915 71.5177 221.669 78.8357C229.645 85.9321 233.633 96.0222 233.633 109.106C233.633 124.629 228.759 137.048 219.01 146.362C209.483 155.454 197.519 160 183.118 160ZM50.8476 160C36.2248 160 24.0391 155.01 14.2905 145.031C4.7635 134.83 0 120.305 0 101.455C0 84.158 3.32337 68.8565 9.97012 55.5509C16.6169 42.2453 24.9253 30.9356 34.8954 21.6216C44.8656 12.3077 54.9465 5.10048 65.1381 0L82.752 19.9584C77.2131 22.176 70.8987 26.3895 63.8088 32.5988C56.9405 38.5863 50.8476 45.5717 45.5302 53.5551C40.4344 61.3167 37.6649 69.1892 37.2218 77.1725C39.2158 74.5114 42.65 72.2938 47.5243 70.5197C52.3985 68.7457 57.4944 67.8586 62.8118 67.8586C72.7819 67.8586 81.6442 71.5177 89.3988 78.8357C97.3749 85.9321 101.363 96.0222 101.363 109.106C101.363 124.629 96.4886 137.048 86.7401 146.362C77.2131 155.454 65.2489 160 50.8476 160Z" fill="#D1E7FF"/>
</svg>
