<svg width="384" height="384" viewBox="0 0 384 384" fill="none" xmlns="http://www.w3.org/2000/svg">
<path d="M38.4004 192C38.4004 232.737 54.5832 271.806 83.3888 300.611C112.194 329.417 151.263 345.6 192 345.6C232.738 345.6 271.806 329.417 300.612 300.611C329.418 271.806 345.6 232.737 345.6 192C345.6 151.263 329.418 112.194 300.612 83.3883C271.806 54.5827 232.738 38.3999 192 38.3999C151.263 38.3999 112.194 54.5827 83.3888 83.3883C54.5832 112.194 38.4004 151.263 38.4004 192Z" fill="#F3F9FF"/>
<path d="M72.3193 77.5449H311.678V97.7011H72.3193V77.5449Z" fill="#D1E7FF"/>
<path d="M72.3193 77.5449H311.678V97.7011H72.3193V77.5449Z" stroke="#1C2737" stroke-width="3.84" stroke-linecap="round" stroke-linejoin="round"/>
<path d="M302.166 250.249C302.166 251.369 301.721 252.443 300.929 253.236C300.137 254.028 299.063 254.473 297.942 254.473H86.059C84.9387 254.473 83.8643 254.028 83.0721 253.236C82.28 252.443 81.835 251.369 81.835 250.249V97.7009H302.166V250.249Z" fill="white"/>
<path d="M302.166 250.249C302.166 251.369 301.721 252.443 300.929 253.236C300.137 254.028 299.063 254.473 297.942 254.473H86.059C84.9387 254.473 83.8643 254.028 83.0721 253.236C82.28 252.443 81.835 251.369 81.835 250.249V97.7009H302.166V250.249Z" stroke="#1C2737" stroke-width="3.84" stroke-linecap="round" stroke-linejoin="round"/>
<path d="M192 254.473V276.165" stroke="#1C2737" stroke-width="3.84" stroke-linecap="round" stroke-linejoin="round"/>
<path d="M181.763 286.402C181.763 289.117 182.841 291.721 184.761 293.64C186.681 295.56 189.285 296.639 192 296.639C194.715 296.639 197.319 295.56 199.239 293.64C201.159 291.721 202.238 289.117 202.238 286.402C202.238 283.686 201.159 281.082 199.239 279.163C197.319 277.243 194.715 276.164 192 276.164C189.285 276.164 186.681 277.243 184.761 279.163C182.841 281.082 181.763 283.686 181.763 286.402Z" stroke="#1C2737" stroke-width="3.84" stroke-linecap="round" stroke-linejoin="round"/>
<path d="M132.469 316.884C132.469 318.816 138.741 320.668 149.905 322.035C161.069 323.401 176.212 324.168 192 324.168C207.789 324.168 222.931 323.401 234.095 322.035C245.26 320.668 251.532 318.816 251.532 316.884C251.532 314.952 245.26 313.099 234.095 311.733C222.931 310.367 207.789 309.599 192 309.599C176.212 309.599 161.069 310.367 149.905 311.733C138.741 313.099 132.469 314.952 132.469 316.884Z" fill="#D1E7FF"/>
<path d="M183.429 228.897C197.436 231.17 211.772 227.785 223.283 219.488C234.794 211.191 242.538 198.661 244.811 184.655C247.084 170.648 243.699 156.312 235.402 144.801C227.105 133.29 214.575 125.546 200.569 123.273C186.562 121 172.226 124.385 160.715 132.682C149.204 140.979 141.46 153.509 139.187 167.515C136.914 181.522 140.298 195.858 148.595 207.369C156.892 218.88 169.423 226.624 183.429 228.897Z" fill="#D1E7FF" stroke="#1C2737" stroke-width="3.84" stroke-linecap="round" stroke-linejoin="round"/>
<path d="M185.684 215.001C190.794 215.83 196.018 215.645 201.057 214.455C206.096 213.266 210.851 211.096 215.051 208.068C219.251 205.041 222.814 201.216 225.536 196.812C228.258 192.408 230.086 187.51 230.915 182.4C231.744 177.289 231.559 172.065 230.369 167.027C229.18 161.988 227.009 157.232 223.982 153.032C220.955 148.832 217.13 145.27 212.726 142.548C208.321 139.826 203.424 137.998 198.314 137.169C193.203 136.339 187.979 136.525 182.94 137.714C177.901 138.904 173.146 141.074 168.946 144.102C164.746 147.129 161.183 150.954 158.461 155.358C155.74 159.762 153.912 164.659 153.082 169.77C152.253 174.881 152.439 180.104 153.628 185.143C154.818 190.182 156.988 194.937 160.015 199.138C163.043 203.338 166.868 206.9 171.272 209.622C175.676 212.344 180.573 214.172 185.684 215.001Z" fill="white"/>
<path d="M192 159.191L192.104 175.983H199.984" stroke="#1C2737" stroke-width="3.84" stroke-linecap="round" stroke-linejoin="round"/>
<path d="M192 206.246V201.22" stroke="#1C2737" stroke-width="3.84" stroke-linecap="round" stroke-linejoin="round"/>
<path d="M192 145.927V150.954" stroke="#1C2737" stroke-width="3.84" stroke-linecap="round" stroke-linejoin="round"/>
<path d="M213.328 154.763L209.772 158.315" stroke="#1C2737" stroke-width="3.84" stroke-linecap="round" stroke-linejoin="round"/>
<path d="M222.16 176.086H217.134" stroke="#1C2737" stroke-width="3.84" stroke-linecap="round" stroke-linejoin="round"/>
<path d="M213.328 197.413L209.772 193.857" stroke="#1C2737" stroke-width="3.84" stroke-linecap="round" stroke-linejoin="round"/>
<path d="M170.673 197.413L174.229 193.857" stroke="#1C2737" stroke-width="3.84" stroke-linecap="round" stroke-linejoin="round"/>
<path d="M161.841 176.086H166.867" stroke="#1C2737" stroke-width="3.84" stroke-linecap="round" stroke-linejoin="round"/>
<path d="M170.673 154.763L174.229 158.315" stroke="#1C2737" stroke-width="3.84" stroke-linecap="round" stroke-linejoin="round"/>
<path d="M185.684 215.001C190.794 215.83 196.018 215.645 201.057 214.455C206.096 213.266 210.851 211.096 215.051 208.068C219.251 205.041 222.814 201.216 225.536 196.812C228.258 192.408 230.086 187.51 230.915 182.4C231.744 177.289 231.559 172.065 230.369 167.027C229.18 161.988 227.009 157.232 223.982 153.032C220.955 148.832 217.13 145.27 212.726 142.548C208.321 139.826 203.424 137.998 198.314 137.169C193.203 136.339 187.979 136.525 182.94 137.714C177.901 138.904 173.146 141.074 168.946 144.102C164.746 147.129 161.183 150.954 158.461 155.358C155.74 159.762 153.912 164.659 153.082 169.77C152.253 174.881 152.439 180.104 153.628 185.143C154.818 190.182 156.988 194.937 160.015 199.138C163.043 203.338 166.868 206.9 171.272 209.622C175.676 212.344 180.573 214.172 185.684 215.001Z" stroke="#1C2737" stroke-width="3.84" stroke-linecap="round" stroke-linejoin="round"/>
</svg>
