			<svg xmlns="http://www.w3.org/2000/svg" width="78" height="18" viewBox="0 0 80 15" fill="white">
				<path
					d="M8 1.61803L9.32058 5.68237L9.43284 6.02786H9.79611H14.0696L10.6123 8.53976L10.3184 8.75329L10.4306 9.09878L11.7512 13.1631L8.29389 10.6512L8 10.4377L7.70611 10.6512L4.24877 13.1631L5.56936 9.09878L5.68162 8.75329L5.38772 8.53976L1.93039 6.02786H6.20389H6.56716L6.67942 5.68237L8 1.61803ZM24 1.61803L25.3206 5.68237L25.4328 6.02786H25.7961H30.0696L26.6123 8.53976L26.3184 8.75329L26.4306 9.09878L27.7512 13.1631L24.2939 10.6512L24 10.4377L23.7061 10.6512L20.2488 13.1631L21.5694 9.09878L21.6816 8.75329L21.3877 8.53976L17.9304 6.02786H22.2039H22.5672L22.6794 5.68237L24 1.61803ZM40 1.61803L41.3206 5.68237L41.4328 6.02786H41.7961H46.0696L42.6123 8.53976L42.3184 8.75329L42.4306 9.09878L43.7512 13.1631L40.2939 10.6512L40 10.4377L39.7061 10.6512L36.2488 13.1631L37.5694 9.09878L37.6816 8.75329L37.3877 8.53976L33.9304 6.02786H38.2039H38.5672L38.6794 5.68237L40 1.61803ZM56 1.61803L57.3206 5.68237L57.4328 6.02786H57.7961H62.0696L58.6123 8.53976L58.3184 8.75329L58.4306 9.09878L59.7512 13.1631L56.2939 10.6512L56 10.4377L55.7061 10.6512L52.2488 13.1631L53.5694 9.09878L53.6816 8.75329L53.3877 8.53976L49.9304 6.02786H54.2039H54.5672L54.6794 5.68237L56 1.61803ZM72 1.61803L73.3206 5.68237L73.4328 6.02786H73.7961H78.0696L74.6123 8.53976L74.3184 8.75329L74.4306 9.09878L75.7512 13.1631L72.2939 10.6512L72 10.4377L71.7061 10.6512L68.2488 13.1631L69.5694 9.09878L69.6816 8.75329L69.3877 8.53976L65.9304 6.02786H70.2039H70.5672L70.6794 5.68237L72 1.61803Z"
					fill="transparent" stroke="#E9BB1A"></path>
			</svg>