<svg width="385" height="384" viewBox="0 0 385 384" fill="none" xmlns="http://www.w3.org/2000/svg">
<path d="M345.602 225.616C345.605 202.692 340.476 180.057 330.593 159.373C320.709 138.689 306.321 120.479 288.484 106.08C270.646 91.6802 249.812 81.4558 227.509 76.1566C205.205 70.8571 181.999 70.6174 159.59 75.4543C137.182 80.2915 116.141 90.0832 98.0098 104.111C79.8784 118.139 65.117 136.047 54.8081 156.522C44.4992 176.998 38.904 199.521 38.4328 222.441C37.962 245.36 42.6272 268.094 52.0863 288.976H331.916C340.951 269.076 345.617 247.471 345.602 225.616Z" fill="#D1E7FF"/>
<path d="M42.2402 288.977H341.761" stroke="#537599" stroke-width="3.84001" stroke-linecap="round" stroke-linejoin="round"/>
<path d="M24.9609 288.977H34.561" stroke="#537599" stroke-width="3.84001" stroke-linecap="round" stroke-linejoin="round"/>
<path d="M349.441 288.977H359.041" stroke="#537599" stroke-width="3.84001" stroke-linecap="round" stroke-linejoin="round"/>
<path d="M312.317 88.9923C312.317 95.281 309.818 101.312 305.371 105.759C300.924 110.206 294.893 112.704 288.604 112.704H270.364C264.075 112.704 258.044 110.206 253.597 105.759C249.15 101.312 246.652 95.281 246.652 88.9923C246.652 82.7035 249.15 76.6724 253.597 72.2253C258.044 67.7785 264.075 65.2803 270.364 65.2803H288.604C294.893 65.2803 300.924 67.7785 305.371 72.2253C309.818 76.6724 312.317 82.7035 312.317 88.9923Z" fill="white"/>
<path d="M312.317 88.9923C312.317 95.281 309.818 101.312 305.371 105.759C300.924 110.206 294.893 112.704 288.604 112.704H270.364C264.075 112.704 258.044 110.206 253.597 105.759C249.15 101.312 246.652 95.281 246.652 88.9923C246.652 82.7035 249.15 76.6724 253.597 72.2253C258.044 67.7785 264.075 65.2803 270.364 65.2803H288.604C294.893 65.2803 300.924 67.7785 305.371 72.2253C309.818 76.6724 312.317 82.7035 312.317 88.9923Z" stroke="#537599" stroke-width="3.84001" stroke-linecap="round" stroke-linejoin="round"/>
<path d="M251.611 130.93C255.135 130.93 257.993 128.073 257.993 124.548C257.993 121.023 255.135 118.166 251.611 118.166C248.086 118.166 245.229 121.023 245.229 124.548C245.229 128.073 248.086 130.93 251.611 130.93Z" fill="white" stroke="#537599" stroke-width="3.84001" stroke-linecap="round" stroke-linejoin="round"/>
<path d="M263.465 79.8574V90.8014" stroke="#537599" stroke-width="3.84001" stroke-linecap="round" stroke-linejoin="round"/>
<path d="M257.992 85.3281H268.936" stroke="#537599" stroke-width="3.84001" stroke-linecap="round" stroke-linejoin="round"/>
<path d="M289 74.3867L296.296 81.6827" stroke="#537599" stroke-width="3.84001" stroke-linecap="round" stroke-linejoin="round"/>
<path d="M289 81.6827L296.296 74.3867" stroke="#537599" stroke-width="3.84001" stroke-linecap="round" stroke-linejoin="round"/>
<path d="M276.232 103.569L289 90.8008" stroke="#537599" stroke-width="3.84001" stroke-linecap="round" stroke-linejoin="round"/>
<path d="M278.056 94.4488C279.064 94.4488 279.88 93.632 279.88 92.6248C279.88 91.6176 279.064 90.8008 278.056 90.8008C277.049 90.8008 276.232 91.6176 276.232 92.6248C276.232 93.632 277.049 94.4488 278.056 94.4488Z" stroke="#537599" stroke-width="3.84001" stroke-linecap="round" stroke-linejoin="round"/>
<path d="M287.178 103.569C288.185 103.569 289.002 102.752 289.002 101.745C289.002 100.738 288.185 99.9209 287.178 99.9209C286.17 99.9209 285.354 100.738 285.354 101.745C285.354 102.752 286.17 103.569 287.178 103.569Z" stroke="#537599" stroke-width="3.84001" stroke-linecap="round" stroke-linejoin="round"/>
<path d="M237.253 241.974C238.421 241.974 239.541 241.511 240.367 240.685C241.193 239.859 241.657 238.738 241.657 237.57V202.219C241.657 195.954 240.423 189.751 238.026 183.964C235.628 178.176 232.114 172.917 227.685 168.487C223.255 164.057 217.996 160.543 212.208 158.146C206.42 155.749 200.217 154.515 193.953 154.515C187.688 154.515 181.484 155.749 175.697 158.146C169.909 160.543 164.65 164.057 160.22 168.487C155.79 172.917 152.276 178.176 149.879 183.964C147.482 189.751 146.248 195.954 146.248 202.219V237.57C146.249 238.738 146.713 239.857 147.539 240.683C148.365 241.509 149.484 241.974 150.653 241.974H164.803V261.85H179.099C182.039 261.85 184.932 261.124 187.523 259.737C190.114 258.35 192.323 256.344 193.953 253.898C195.583 256.344 197.792 258.35 200.384 259.737C202.975 261.124 205.87 261.85 208.81 261.85H223.106V241.974H237.253Z" fill="white"/>
<path d="M237.253 241.974C238.421 241.974 239.541 241.511 240.367 240.685C241.193 239.859 241.657 238.738 241.657 237.57V202.219C241.657 195.954 240.423 189.751 238.026 183.964C235.628 178.176 232.114 172.917 227.685 168.487C223.255 164.057 217.996 160.543 212.208 158.146C206.42 155.749 200.217 154.515 193.953 154.515C187.688 154.515 181.484 155.749 175.697 158.146C169.909 160.543 164.65 164.057 160.22 168.487C155.79 172.917 152.276 178.176 149.879 183.964C147.482 189.751 146.248 195.954 146.248 202.219V237.57C146.249 238.738 146.713 239.857 147.539 240.683C148.365 241.509 149.484 241.974 150.653 241.974H164.803V261.85H179.099C182.039 261.85 184.932 261.124 187.523 259.737C190.114 258.35 192.323 256.344 193.953 253.898C195.583 256.344 197.792 258.35 200.384 259.737C202.975 261.124 205.87 261.85 208.81 261.85H223.106V241.974H237.253Z" stroke="#537599" stroke-width="3.84001" stroke-linecap="round" stroke-linejoin="round"/>
<path d="M223.105 241.976V196.921" stroke="#537599" stroke-width="3.84001" stroke-linecap="round" stroke-linejoin="round"/>
<path d="M164.803 241.976V196.921" stroke="#537599" stroke-width="3.84001" stroke-linecap="round" stroke-linejoin="round"/>
<path d="M193.952 154.515L186.076 196.19L193.952 223.42L201.828 196.19L193.952 154.515Z" fill="#D1E7FF" stroke="#537599" stroke-width="3.84001" stroke-linecap="round" stroke-linejoin="round"/>
<path d="M193.951 253.897V223.419" stroke="#537599" stroke-width="3.84001" stroke-linecap="round" stroke-linejoin="round"/>
<path d="M172.307 159.699L176.423 167.932C177.905 170.901 181.223 170.966 183.946 168.524L193.953 161.093L204.386 169.119C207.22 170.966 209.954 171.569 211.651 168.977C213.397 166.094 215.313 163.318 217.388 160.663" stroke="#537599" stroke-width="3.84001" stroke-linecap="round" stroke-linejoin="round"/>
<path d="M203.744 155.612L193.898 164.456L184.029 155.612L184.052 142.122H203.763L203.744 155.612Z" fill="white" stroke="#537599" stroke-width="3.84001" stroke-linecap="round" stroke-linejoin="round"/>
<path d="M305.612 271.462H288.309V316.39H305.612C306.63 316.39 307.607 315.985 308.327 315.265C309.047 314.545 309.452 313.568 309.452 312.55V275.302C309.452 274.284 309.047 273.307 308.327 272.587C307.607 271.866 306.63 271.462 305.612 271.462Z" fill="#D1E7FF"/>
<path d="M309.452 284.675H288.309V316.389H305.612C306.63 316.389 307.607 315.985 308.327 315.265C309.047 314.545 309.452 313.568 309.452 312.549V284.675Z" fill="#D1E7FF"/>
<path d="M305.612 271.462H288.309V316.39H305.612C306.63 316.39 307.607 315.985 308.327 315.265C309.047 314.545 309.452 313.568 309.452 312.55V275.302C309.452 274.284 309.047 273.307 308.327 272.587C307.607 271.866 306.63 271.462 305.612 271.462Z" stroke="#537599" stroke-width="3.84001" stroke-linecap="round" stroke-linejoin="round"/>
<path d="M288.309 284.675H309.452" stroke="#537599" stroke-width="3.84001" stroke-linecap="round" stroke-linejoin="round"/>
<path d="M298.881 271.461V263.531" stroke="#537599" stroke-width="3.84001" stroke-linecap="round" stroke-linejoin="round"/>
<path d="M232.806 223.888H129.729V250.318H232.806V223.888Z" fill="white"/>
<path d="M232.806 223.888H129.729V250.318H232.806V223.888Z" stroke="#537599" stroke-width="3.84001" stroke-linecap="round" stroke-linejoin="round"/>
<path d="M232.806 250.315H129.729V316.39H232.806V250.315Z" fill="#D1E7FF" stroke="#537599" stroke-width="3.84001" stroke-linecap="round" stroke-linejoin="round"/>
<path d="M293.594 218.599C293.594 220.001 293.037 221.346 292.046 222.337C291.056 223.329 289.712 223.886 288.31 223.887H74.2291C73.5345 223.888 72.8467 223.751 72.205 223.486C71.5634 223.22 70.9801 222.831 70.4889 222.339C69.9978 221.848 69.6084 221.265 69.3431 220.623C69.0773 219.982 68.941 219.294 68.9414 218.599C68.9426 217.198 69.5001 215.854 70.4916 214.863C71.4831 213.872 72.8275 213.315 74.2291 213.315H288.31C289.711 213.317 291.054 213.873 292.045 214.864C293.036 215.855 293.593 217.198 293.594 218.599Z" fill="white" stroke="#537599" stroke-width="3.84001" stroke-linecap="round" stroke-linejoin="round"/>
<path d="M92.7297 223.888H74.2285V316.393H92.7297V223.888Z" fill="white"/>
<path d="M129.728 223.888H111.227V316.393H129.728V223.888Z" fill="white"/>
<path d="M251.306 223.888H232.805V316.393H251.306V223.888Z" fill="white"/>
<path d="M288.31 223.888H269.809V316.393H288.31V223.888Z" fill="white"/>
<path d="M92.7297 223.888H74.2285V316.393H92.7297V223.888Z" stroke="#537599" stroke-width="3.84001" stroke-linecap="round" stroke-linejoin="round"/>
<path d="M111.23 223.888H92.7285V316.393H111.23V223.888Z" fill="#D1E7FF"/>
<path d="M269.808 223.888H251.307V316.393H269.808V223.888Z" fill="#D1E7FF"/>
<path d="M111.23 223.888H92.7285V316.393H111.23V223.888Z" stroke="#537599" stroke-width="3.84001" stroke-linecap="round" stroke-linejoin="round"/>
<path d="M129.728 223.888H111.227V316.393H129.728V223.888Z" stroke="#537599" stroke-width="3.84001" stroke-linecap="round" stroke-linejoin="round"/>
<path d="M251.306 223.888H232.805V316.393H251.306V223.888Z" stroke="#537599" stroke-width="3.84001" stroke-linecap="round" stroke-linejoin="round"/>
<path d="M269.808 223.888H251.307V316.393H269.808V223.888Z" stroke="#537599" stroke-width="3.84001" stroke-linecap="round" stroke-linejoin="round"/>
<path d="M288.31 223.888H269.809V316.393H288.31V223.888Z" stroke="#537599" stroke-width="3.84001" stroke-linecap="round" stroke-linejoin="round"/>
<path d="M149.676 173.667H96.5685C94.4481 173.667 92.7285 175.386 92.7285 177.507V209.471C92.7285 211.592 94.4481 213.311 96.5685 213.311H149.676C151.797 213.311 153.516 211.592 153.516 209.471V177.507C153.516 175.386 151.797 173.667 149.676 173.667Z" fill="white"/>
<path d="M149.676 173.667H96.5685C94.4481 173.667 92.7285 175.386 92.7285 177.507V209.471C92.7285 211.592 94.4481 213.311 96.5685 213.311H149.676C151.797 213.311 153.516 211.592 153.516 209.471V177.507C153.516 175.386 151.797 173.667 149.676 173.667Z" stroke="#537599" stroke-width="3.84001" stroke-linecap="round" stroke-linejoin="round"/>
<path d="M259.237 168.384V213.316H222.234V168.384L232.806 173.668L240.736 168.384L248.665 173.668L259.237 168.384Z" fill="white"/>
<path d="M259.237 168.384V213.316H222.234V168.384L232.806 173.668L240.736 168.384L248.665 173.668L259.237 168.384Z" stroke="#537599" stroke-width="3.84001" stroke-linecap="round" stroke-linejoin="round"/>
<path d="M261.848 213.317H251.307C249.034 213.128 246.927 212.052 245.442 210.32C243.957 208.588 243.216 206.341 243.377 204.066C243.216 201.791 243.957 199.544 245.442 197.812C246.927 196.08 249.034 195.004 251.307 194.815H261.848C262.676 194.858 263.467 195.17 264.102 195.704C264.737 196.237 265.181 196.964 265.365 197.772C266.528 201.889 266.528 206.247 265.365 210.364C265.18 211.172 264.736 211.897 264.101 212.43C263.467 212.963 262.675 213.274 261.848 213.317Z" fill="white"/>
<path d="M261.848 213.317H251.307C249.034 213.128 246.927 212.052 245.442 210.32C243.957 208.588 243.216 206.341 243.377 204.066C243.216 201.791 243.957 199.544 245.442 197.812C246.927 196.08 249.034 195.004 251.307 194.815H261.848C262.676 194.858 263.467 195.17 264.102 195.704C264.737 196.237 265.181 196.964 265.365 197.772C266.528 201.889 266.528 206.247 265.365 210.364C265.18 211.172 264.736 211.897 264.101 212.43C263.467 212.963 262.675 213.274 261.848 213.317Z" stroke="#537599" stroke-width="3.84001" stroke-linecap="round" stroke-linejoin="round"/>
<path d="M123.124 202.744C126.044 202.744 128.411 200.377 128.411 197.457C128.411 194.537 126.044 192.169 123.124 192.169C120.203 192.169 117.836 194.537 117.836 197.457C117.836 200.377 120.203 202.744 123.124 202.744Z" fill="#D1E7FF" stroke="#537599" stroke-width="3.84001" stroke-linecap="round" stroke-linejoin="round"/>
<path d="M123.123 186.887L125.765 184.241" stroke="#537599" stroke-width="3.84001" stroke-linecap="round" stroke-linejoin="round"/>
<path d="M151.974 261.701C148.663 263.412 145.029 264.403 141.308 264.611C137.588 264.819 133.866 264.238 130.385 262.906C127.059 261.232 124.124 258.874 121.772 255.987C119.421 253.099 117.705 249.748 116.738 246.152L113.766 252.887L108.958 250.764L105.986 257.503L101.182 255.384C101.182 255.384 100.825 273.113 122.325 282.594C143.825 292.075 155.66 279.414 155.66 279.414L150.849 277.294L153.821 270.556L148.994 268.435L151.974 261.701Z" fill="white" stroke="#537599" stroke-width="3.84001" stroke-linecap="round" stroke-linejoin="round"/>
<path d="M288.344 285.75C286.597 289.077 284.087 291.944 281.02 294.115C277.952 296.287 274.415 297.701 270.695 298.243C266.976 298.784 263.182 298.438 259.623 297.232C256.063 296.025 252.84 293.994 250.217 291.303L251.28 298.599L246.077 299.367L247.141 306.663L241.945 307.431C241.945 307.431 251.265 322.464 274.52 319.077C297.775 315.69 300.87 298.852 300.87 298.852L295.667 299.62L294.607 292.324L289.408 293.092L288.344 285.75Z" fill="white" stroke="#537599" stroke-width="3.84001" stroke-linecap="round" stroke-linejoin="round"/>
<path d="M194.013 150.56C199.62 150.547 205.076 148.746 209.588 145.417C214.1 142.089 217.432 137.408 219.1 132.055H219.123C227.479 132.055 227.986 118.841 220.444 118.841V113.569C220.36 106.615 217.538 99.9743 212.591 95.086C207.644 90.198 200.97 87.457 194.015 87.457C187.06 87.457 180.386 90.198 175.438 95.086C170.491 99.9743 167.67 106.615 167.586 113.569V118.857C160.04 118.857 160.551 132.07 168.907 132.07H168.926C170.597 137.42 173.931 142.098 178.442 145.423C182.954 148.748 188.409 150.547 194.013 150.56Z" fill="white" stroke="#537599" stroke-width="3.84001" stroke-linecap="round" stroke-linejoin="round"/>
<path d="M178.146 129.417C179.605 129.417 180.788 128.234 180.788 126.775C180.788 125.316 179.605 124.133 178.146 124.133C176.687 124.133 175.504 125.316 175.504 126.775C175.504 128.234 176.687 129.417 178.146 129.417Z" fill="#D1E7FF"/>
<path d="M209.865 129.417C211.324 129.417 212.507 128.234 212.507 126.775C212.507 125.316 211.324 124.133 209.865 124.133C208.405 124.133 207.223 125.316 207.223 126.775C207.223 128.234 208.405 129.417 209.865 129.417Z" fill="#D1E7FF"/>
<path d="M185.416 116.203C184.763 116.204 184.125 116.398 183.582 116.761C183.039 117.125 182.617 117.641 182.367 118.244C182.118 118.848 182.053 119.512 182.181 120.152C182.309 120.792 182.624 121.381 183.086 121.842C183.548 122.303 184.136 122.617 184.777 122.745C185.417 122.872 186.081 122.806 186.684 122.556C187.288 122.306 187.803 121.883 188.166 121.34C188.528 120.797 188.722 120.158 188.722 119.506C188.722 119.072 188.636 118.642 188.47 118.241C188.304 117.84 188.06 117.476 187.753 117.169C187.446 116.862 187.082 116.619 186.68 116.453C186.28 116.288 185.849 116.203 185.416 116.203Z" fill="#537599"/>
<path d="M202.595 116.203C201.942 116.203 201.304 116.397 200.761 116.76C200.217 117.122 199.794 117.638 199.544 118.242C199.294 118.845 199.229 119.509 199.356 120.15C199.484 120.79 199.798 121.379 200.26 121.841C200.722 122.303 201.31 122.617 201.951 122.745C202.592 122.872 203.256 122.806 203.859 122.556C204.463 122.306 204.978 121.883 205.341 121.34C205.704 120.797 205.898 120.159 205.898 119.506C205.898 118.63 205.55 117.79 204.931 117.17C204.311 116.551 203.471 116.203 202.595 116.203Z" fill="#537599"/>
<path d="M179.44 104.307C189.962 114.514 207.403 113.907 219.534 110.685C220.577 110.408 221.483 109.761 222.084 108.864C222.685 107.967 222.938 106.883 222.798 105.812C221.843 98.6769 218.275 92.1489 212.785 87.4921C207.294 82.8353 200.272 80.3804 193.076 80.6027C185.382 81.0436 178.156 84.4397 172.907 90.0818C167.657 95.7239 164.791 103.176 164.906 110.881V115.766C164.905 116.127 164.994 116.484 165.164 116.803C165.333 117.123 165.58 117.395 165.879 117.597C166.18 117.799 166.525 117.924 166.885 117.961C167.245 117.998 167.608 117.946 167.943 117.809C172.206 116.077 179.44 112.002 179.44 104.307Z" fill="white"/>
<path d="M179.441 104.306C178.101 103.008 177.905 103.215 176.818 101.549" stroke="#537599" stroke-width="3.84001" stroke-linecap="round" stroke-linejoin="round"/>
<path d="M179.44 104.307C189.962 114.514 207.403 113.907 219.534 110.685C220.577 110.408 221.483 109.761 222.084 108.864C222.685 107.967 222.938 106.883 222.798 105.812C221.843 98.6769 218.275 92.1489 212.785 87.4921C207.294 82.8353 200.272 80.3804 193.076 80.6027C185.382 81.0436 178.156 84.4397 172.907 90.0818C167.657 95.7239 164.791 103.176 164.906 110.881V115.766C164.905 116.127 164.994 116.484 165.164 116.803C165.333 117.123 165.58 117.395 165.879 117.597C166.18 117.799 166.525 117.924 166.885 117.961C167.245 117.998 167.608 117.946 167.943 117.809C172.206 116.077 179.44 112.002 179.44 104.307Z" stroke="#537599" stroke-width="3.84001" stroke-linecap="round" stroke-linejoin="round"/>
<path d="M171.784 130.21L176.972 132.806C178.124 133.383 179.407 133.644 180.693 133.564C181.979 133.484 183.22 133.064 184.291 132.349C187.159 130.436 190.528 129.416 193.976 129.415C197.422 129.415 200.792 130.436 203.66 132.349C204.731 133.064 205.973 133.484 207.258 133.564C208.543 133.644 209.827 133.383 210.979 132.806L216.171 130.21C216.357 130.117 216.563 130.068 216.772 130.067C216.981 130.066 217.187 130.114 217.375 130.205C217.562 130.297 217.726 130.431 217.854 130.596C217.981 130.761 218.069 130.954 218.11 131.158C218.788 134.553 218.443 138.072 217.118 141.269C215.793 144.467 213.548 147.198 210.668 149.118C206.676 151.782 201.985 153.203 197.186 153.204H190.769C185.969 153.204 181.276 151.782 177.283 149.118C174.404 147.198 172.16 144.466 170.836 141.268C169.511 138.071 169.166 134.552 169.845 131.158C169.886 130.954 169.974 130.761 170.101 130.596C170.229 130.431 170.392 130.297 170.58 130.205C170.768 130.114 170.974 130.066 171.183 130.067C171.391 130.068 171.597 130.117 171.784 130.21Z" fill="white" stroke="#537599" stroke-width="3.84001" stroke-linecap="round" stroke-linejoin="round"/>
</svg>
