<svg width="1440" height="51" viewBox="0 0 1440 51" fill="none" xmlns="http://www.w3.org/2000/svg">
<path fill-rule="evenodd" clip-rule="evenodd" d="M1.06885 9.37305L61.6575 11.4269C122.246 13.4807 243.424 17.5883 364.531 20.5128C485.639 23.4373 606.677 25.1787 727.436 22.1876C848.195 19.1964 968.675 11.4727 1089.36 7.29845C1210.05 3.12417 1330.95 2.49928 1451.99 4.24066C1573.03 5.98203 1694.2 10.0897 1754.79 12.1435L1815.38 14.1973L1818.31 63.8888L1757.86 64.2013C1697.41 64.5137 1576.51 65.1386 1455.62 65.7635C1334.72 66.3884 1213.82 67.0133 1092.92 67.6382C972.022 68.263 851.124 68.8879 730.225 69.5128C609.327 70.1377 488.429 70.7626 367.53 71.3875C246.632 72.0124 125.733 72.6373 65.2841 72.9497L4.83492 73.2621L1.06885 9.37305Z" fill="#1888FF" fill-opacity="0.2"/>
<path fill-rule="evenodd" clip-rule="evenodd" d="M0 15L60.6 17.3704C121.2 19.7407 242.4 24.4815 363.6 28.037C484.8 31.5926 606 33.963 727.2 31.5926C848.4 29.2222 969.6 22.1111 1090.8 18.5556C1212 15 1333.2 15 1454.4 17.3704C1575.6 19.7407 1696.8 24.4815 1757.4 26.8519L1818 29.2222V79H1757.4C1696.8 79 1575.6 79 1454.4 79C1333.2 79 1212 79 1090.8 79C969.6 79 848.4 79 727.2 79C606 79 484.8 79 363.6 79C242.4 79 121.2 79 60.6 79H0L0 15Z" fill="#1888FF"/>
<path fill-rule="evenodd" clip-rule="evenodd" d="M0 1L60.6 3.37037C121.2 5.74074 242.4 10.4815 363.6 14.037C484.8 17.5926 606 19.963 727.2 17.5926C848.4 15.2222 969.6 8.11111 1090.8 4.55556C1212 1 1333.2 1 1454.4 3.37037C1575.6 5.74074 1696.8 10.4815 1757.4 12.8519L1818 15.2222V65H1757.4C1696.8 65 1575.6 65 1454.4 65C1333.2 65 1212 65 1090.8 65C969.6 65 848.4 65 727.2 65C606 65 484.8 65 363.6 65C242.4 65 121.2 65 60.6 65H0V1Z" fill="#1888FF" fill-opacity="0.1"/>
</svg>
