<svg width="1440" height="203" viewBox="0 0 1440 203" fill="none" xmlns="http://www.w3.org/2000/svg">
<g clip-path="url(#clip0_2152_184945)">
<path fill-rule="evenodd" clip-rule="evenodd" d="M-9.17578 133.426L51.7544 135.478C112.685 137.53 234.545 141.634 356.336 144.555C478.126 147.476 599.847 149.214 721.289 146.219C842.731 143.224 963.894 135.497 1085.27 131.319C1206.64 127.142 1328.22 126.513 1449.94 128.251C1571.66 129.989 1693.52 134.093 1754.45 136.145L1815.38 138.197L1818.31 187.889L1757.52 188.203C1696.73 188.517 1575.15 189.145 1453.57 189.774C1331.99 190.402 1210.41 191.031 1088.82 191.659C967.242 192.288 845.661 192.916 724.079 193.544C602.498 194.173 480.916 194.801 359.335 195.43C237.753 196.058 116.172 196.686 55.381 197.001L-5.40971 197.315L-9.17578 133.426Z" fill="#1888FF" fill-opacity="0.2"/>
<path fill-rule="evenodd" clip-rule="evenodd" d="M-6 139L54.8 141.37C115.6 143.741 237.2 148.481 358.8 152.037C480.4 155.593 602 157.963 723.6 155.593C845.2 153.222 966.8 146.111 1088.4 142.556C1210 139 1331.6 139 1453.2 141.37C1574.8 143.741 1696.4 148.481 1757.2 150.852L1818 153.222V203H1757.2C1696.4 203 1574.8 203 1453.2 203C1331.6 203 1210 203 1088.4 203C966.8 203 845.2 203 723.6 203C602 203 480.4 203 358.8 203C237.2 203 115.6 203 54.8 203H-6L-6 139Z" fill="#1888FF"/>
<path fill-rule="evenodd" clip-rule="evenodd" d="M-6 125L54.8 127.37C115.6 129.741 237.2 134.481 358.8 138.037C480.4 141.593 602 143.963 723.6 141.593C845.2 139.222 966.8 132.111 1088.4 128.556C1210 125 1331.6 125 1453.2 127.37C1574.8 129.741 1696.4 134.481 1757.2 136.852L1818 139.222V189H1757.2C1696.4 189 1574.8 189 1453.2 189C1331.6 189 1210 189 1088.4 189C966.8 189 845.2 189 723.6 189C602 189 480.4 189 358.8 189C237.2 189 115.6 189 54.8 189H-6V125Z" fill="#1888FF" fill-opacity="0.1"/>
</g>
<defs>
<clipPath id="clip0_2152_184945">
<rect width="1440" height="203" fill="white"/>
</clipPath>
</defs>
</svg>
