<svg width="128" height="128" viewBox="0 0 128 128" fill="none" xmlns="http://www.w3.org/2000/svg">
<path d="M28.1497 100.876C18.6416 91.3675 13.3 78.4717 13.3 65.0253C13.3 51.5788 18.6416 38.683 28.1497 29.1749C37.6578 19.6668 50.5535 14.3253 64 14.3253C77.4465 14.3253 90.3422 19.6668 99.8503 29.1749C109.358 38.683 114.7 51.5788 114.7 65.0253C114.7 78.4717 109.358 91.3675 99.8503 100.876C90.3422 110.384 77.4465 115.725 64 115.725C50.5535 115.725 37.6578 110.384 28.1497 100.876Z" fill="#D1E7FF" stroke="#537599"/>
<path d="M64.1029 87.7345L64.1114 87.7346L64.1199 87.7345C67.0818 87.6841 70.0242 88.224 72.7753 89.3227C75.5264 90.4214 78.0312 92.0569 80.1437 94.1338C82.2561 96.2107 83.9338 98.6874 85.0791 101.419C86.2243 104.152 86.814 107.084 86.8139 110.047V114.572H41.4075V110.047C41.4076 107.084 41.9975 104.151 43.1429 101.419C44.2882 98.6873 45.9661 96.2106 48.0786 94.1337C50.1911 92.0569 52.696 90.4214 55.4472 89.3227C58.1984 88.224 61.1408 87.6841 64.1029 87.7345Z" fill="#D1E7FF" stroke="#537599"/>
<path d="M87.3139 115.072V110.047C87.314 107.018 86.7111 104.019 85.5402 101.226C84.3693 98.4329 82.654 95.9007 80.4942 93.7773C78.3345 91.6538 75.7735 89.9817 72.9607 88.8584C70.148 87.7351 67.1397 87.1831 64.1114 87.2346C61.083 87.1831 58.0746 87.7351 55.2618 88.8584C52.449 89.9817 49.8879 91.6538 47.7281 93.7772C45.5682 95.9006 43.8528 98.4328 42.6818 101.226C41.5107 104.019 40.9076 107.018 40.9075 110.047V115.072" stroke="#537599" stroke-linecap="round" stroke-linejoin="round"/>
<path d="M49.4156 115.075V108.113" stroke="#537599" stroke-linecap="round" stroke-linejoin="round"/>
<path d="M78.8058 115.075V108.113" stroke="#537599" stroke-linecap="round" stroke-linejoin="round"/>
<path d="M69.6704 87.8592C69.6525 87.8323 69.6422 87.8144 69.6397 87.8106C67.8274 87.393 65.9708 87.1995 64.1113 87.2346C62.2476 87.1997 60.3866 87.394 58.5702 87.8131L58.5536 87.8541L56.8422 95.2781L64.1113 115.072L71.3805 95.2794L69.6704 87.8592Z" fill="white" stroke="#537599" stroke-linecap="round" stroke-linejoin="round"/>
<path d="M64.1114 83.3625H58.697V91.5699L64.1114 95.1782L69.5245 91.5699V83.3625H64.1114Z" fill="white" stroke="#537599" stroke-linecap="round" stroke-linejoin="round"/>
<path d="M64.1114 95.7376L61.1418 106.991L64.1114 115.075L67.0797 106.99L64.1114 95.7376Z" fill="#D1E7FF" stroke="#537599" stroke-linecap="round" stroke-linejoin="round"/>
<path d="M69.7894 99.5123L64.1114 95.7376L58.432 99.5123" stroke="#537599" stroke-linecap="round" stroke-linejoin="round"/>
<path d="M60.2432 115.072L54.2541 110.911C53.9434 110.695 53.7225 110.374 53.6331 110.006C53.5437 109.639 53.592 109.252 53.7689 108.918L55.9129 104.861L50.2157 99.9795C49.9799 99.7771 49.8104 99.5086 49.7291 99.2086C49.6479 98.9087 49.6586 98.5913 49.76 98.2976C51.2051 94.1299 52.2342 88.5913 58.6969 87.2281L56.8422 95.2793L64.1113 115.072" fill="#D1E7FF"/>
<path d="M60.2432 115.072L54.2541 110.911C53.9434 110.695 53.7225 110.374 53.6331 110.006C53.5437 109.639 53.592 109.252 53.7689 108.918L55.9129 104.861L50.2157 99.9795C49.9799 99.7771 49.8104 99.5086 49.7291 99.2086C49.6479 98.9087 49.6586 98.5913 49.76 98.2976C51.2051 94.1299 52.2342 88.5913 58.6969 87.2281L56.8422 95.2793L64.1113 115.072" stroke="#537599" stroke-linecap="round" stroke-linejoin="round"/>
<path d="M67.9782 115.072L73.9673 110.911C74.278 110.695 74.4989 110.374 74.5883 110.006C74.6777 109.639 74.6294 109.252 74.4524 108.918L72.3097 104.861L78.0057 99.9795C78.2407 99.7779 78.4099 99.5106 78.4916 99.212C78.5733 98.9134 78.5636 98.5971 78.464 98.304C77.0188 94.1363 75.9897 88.5978 69.527 87.2346L71.3817 95.2858L64.1113 115.072" fill="#D1E7FF"/>
<path d="M67.9782 115.072L73.9673 110.911C74.278 110.695 74.4989 110.374 74.5883 110.006C74.6777 109.639 74.6294 109.252 74.4524 108.918L72.3097 104.861L78.0057 99.9795C78.2407 99.7779 78.4099 99.5106 78.4916 99.212C78.5733 98.9134 78.5636 98.5971 78.464 98.304C77.0188 94.1363 75.9897 88.5978 69.527 87.2346L71.3817 95.2858L64.1113 115.072" stroke="#537599" stroke-linecap="round" stroke-linejoin="round"/>
<path d="M79.5802 66.3475V62.4806C79.5802 60.4492 79.1801 58.4377 78.4027 56.561C77.6253 54.6842 76.4859 52.979 75.0495 51.5425C73.6131 50.1061 71.9078 48.9667 70.031 48.1893C68.1543 47.412 66.1428 47.0118 64.1114 47.0118C62.08 47.0118 60.0685 47.412 58.1917 48.1893C56.315 48.9667 54.6097 50.1061 53.1733 51.5425C51.7369 52.979 50.5975 54.6842 49.8201 56.561C49.0427 58.4377 48.6426 60.4492 48.6426 62.4806V66.3475C47.8221 66.3475 47.0352 66.6735 46.455 67.2537C45.8748 67.8339 45.5488 68.6208 45.5488 69.4413C45.5488 70.2618 45.8748 71.0487 46.455 71.6289C47.0352 72.2091 47.8221 72.535 48.6426 72.535C48.7066 72.535 48.7706 72.5197 48.832 72.5158C49.379 76.1768 51.2223 79.5196 54.0265 81.9359C56.8306 84.3522 60.4092 85.6813 64.1107 85.6813C67.8123 85.6813 71.3909 84.3522 74.195 81.9359C76.9992 79.5196 78.8425 76.1768 79.3895 72.5158C79.4535 72.5158 79.5175 72.535 79.5802 72.535C80.4007 72.535 81.1876 72.2091 81.7678 71.6289C82.348 71.0487 82.6739 70.2618 82.6739 69.4413C82.6739 68.6208 82.348 67.8339 81.7678 67.2537C81.1876 66.6735 80.4007 66.3475 79.5802 66.3475Z" fill="white" stroke="#537599" stroke-linecap="round" stroke-linejoin="round"/>
<path d="M62.5639 67.1207C62.5639 68.9667 61.8305 70.7372 60.5251 72.0426C59.2198 73.348 57.4493 74.0813 55.6032 74.0813C53.7571 74.0813 51.9867 73.348 50.6813 72.0426C49.3759 70.7372 48.6426 68.9667 48.6426 67.1207V63.2538H59.4701C60.2906 63.2538 61.0775 63.5797 61.6577 64.1599C62.2379 64.7401 62.5639 65.527 62.5639 66.3475V67.1207Z" fill="#D1E7FF" stroke="#537599" stroke-linecap="round" stroke-linejoin="round"/>
<path d="M79.5802 67.1207C79.5553 68.9506 78.811 70.6971 77.5082 71.9824C76.2054 73.2676 74.4489 73.9882 72.6189 73.9882C70.7888 73.9882 69.0323 73.2676 67.7295 71.9824C66.4267 70.6971 65.6824 68.9506 65.6576 67.1207V66.3527C65.6576 65.5322 65.9835 64.7452 66.5637 64.165C67.1439 63.5849 67.9308 63.2589 68.7514 63.2589H79.5802V67.1207Z" fill="#D1E7FF" stroke="#537599" stroke-linecap="round" stroke-linejoin="round"/>
<path d="M62.5638 67.1206H65.6576" stroke="#537599" stroke-linecap="round" stroke-linejoin="round"/>
<path d="M64.1114 44.6912C64.1114 44.6912 65.6576 43.145 70.2989 43.145C86.4768 43.145 88.6707 66.2182 76.8819 68.489C76.6528 68.5234 76.4188 68.5055 76.1976 68.4366C75.9763 68.3678 75.7735 68.2497 75.6043 68.0914C75.4352 67.9331 75.304 67.7385 75.2207 67.5223C75.1374 67.3061 75.104 67.0738 75.1232 66.8429C76.2842 51.4112 65.6013 52.5389 64.1152 55.52C62.624 52.5389 51.9411 51.4112 53.1072 66.8429C53.1264 67.0738 53.0931 67.3061 53.0097 67.5223C52.9264 67.7385 52.7953 67.9331 52.6261 68.0914C52.4569 68.2497 52.2541 68.3678 52.0328 68.4366C51.8116 68.5055 51.5776 68.5234 51.3485 68.489C39.5597 66.2182 41.7485 43.145 57.9328 43.145C62.5638 43.145 64.1114 44.6912 64.1114 44.6912Z" fill="white" stroke="#537599" stroke-linecap="round" stroke-linejoin="round"/>
<path d="M73.3926 67.8938C73.201 67.4346 72.8777 67.0424 72.4637 66.7665C72.0496 66.4906 71.5631 66.3434 71.0656 66.3434C70.568 66.3434 70.0816 66.4906 69.6675 66.7665C69.2534 67.0424 68.9302 67.4346 68.7385 67.8938" stroke="#537599" stroke-linecap="round" stroke-linejoin="round"/>
<path d="M59.4829 67.8938C59.2915 67.4345 58.9684 67.0421 58.5544 66.7661C58.1405 66.4902 57.654 66.3429 57.1565 66.3429C56.6589 66.3429 56.1725 66.4902 55.7585 66.7661C55.3445 67.0421 55.0215 67.4345 54.8301 67.8938" stroke="#537599" stroke-linecap="round" stroke-linejoin="round"/>
<path d="M68.7514 76.85C67.5052 78.0513 65.8417 78.7225 64.1107 78.7225C62.3798 78.7225 60.7163 78.0513 59.4701 76.85" stroke="#537599" stroke-linecap="round" stroke-linejoin="round"/>
<path d="M69.7229 32.9434C69.7229 35.7231 70.2704 38.4756 71.3342 41.0438C72.3979 43.6119 73.9571 45.9454 75.9227 47.9109C77.8882 49.8765 80.2217 51.4357 82.7899 52.4995C85.358 53.5632 88.1105 54.1107 90.8903 54.1107C93.67 54.1107 96.4225 53.5632 98.9907 52.4995C101.559 51.4357 103.892 49.8765 105.858 47.9109C107.823 45.9454 109.383 43.6119 110.446 41.0438C111.51 38.4756 112.058 35.7231 112.058 32.9434C112.058 30.1636 111.51 27.4111 110.446 24.843C109.383 22.2748 107.823 19.9413 105.858 17.9758C103.892 16.0102 101.559 14.451 98.9907 13.3873C96.4225 12.3235 93.67 11.776 90.8903 11.776C88.1105 11.776 85.358 12.3235 82.7899 13.3873C80.2217 14.451 77.8882 16.0102 75.9227 17.9758C73.9571 19.9413 72.3979 22.2748 71.3342 24.843C70.2704 27.4111 69.7229 30.1636 69.7229 32.9434Z" fill="white" stroke="#537599" stroke-linecap="round" stroke-linejoin="round"/>
<path d="M100.805 37.9008L95.8477 32.9434L100.805 27.986C101.445 27.3249 101.799 26.439 101.791 25.5193C101.784 24.5995 101.415 23.7196 100.764 23.0692C100.114 22.4188 99.2341 22.0501 98.3144 22.0425C97.3946 22.0349 96.5087 22.389 95.8477 23.0285L90.8902 27.986L85.9328 23.0285C85.6093 22.6941 85.2224 22.4274 84.7948 22.244C84.3672 22.0607 83.9073 21.9642 83.442 21.9604C82.9768 21.9565 82.5154 22.0453 82.0848 22.2216C81.6542 22.3979 81.263 22.6581 80.934 22.9871C80.605 23.3161 80.3447 23.7073 80.1685 24.1379C79.9922 24.5686 79.9034 25.0299 79.9072 25.4952C79.9111 25.9605 80.0075 26.4203 80.1909 26.848C80.3743 27.2756 80.6409 27.6624 80.9753 27.986L85.9328 32.9434L80.9753 37.9008C80.6409 38.2243 80.3743 38.6112 80.1909 39.0388C80.0075 39.4664 79.9111 39.9263 79.9072 40.3916C79.9034 40.8568 79.9922 41.3182 80.1685 41.7488C80.3447 42.1794 80.605 42.5706 80.934 42.8997C81.263 43.2287 81.6542 43.4889 82.0848 43.6652C82.5154 43.8414 82.9768 43.9302 83.442 43.9264C83.9073 43.9225 84.3672 43.8261 84.7948 43.6427C85.2224 43.4593 85.6093 43.1927 85.9328 42.8583L90.8902 37.9008L95.8477 42.8583C96.5087 43.4978 97.3946 43.8519 98.3144 43.8443C99.2341 43.8367 100.114 43.4679 100.764 42.8176C101.415 42.1672 101.784 41.2873 101.791 40.3675C101.799 39.4478 101.445 38.5619 100.805 37.9008Z" fill="#D1E7FF" stroke="#537599" stroke-linecap="round" stroke-linejoin="round"/>
<path d="M16.1882 32.9434C16.1882 35.7231 16.7357 38.4756 17.7994 41.0438C18.8632 43.6119 20.4224 45.9454 22.3879 47.9109C24.3535 49.8765 26.687 51.4357 29.2551 52.4995C31.8233 53.5632 34.5758 54.1107 37.3555 54.1107C40.1353 54.1107 42.8878 53.5632 45.4559 52.4995C48.0241 51.4357 50.3575 49.8765 52.3231 47.9109C54.2887 45.9454 55.8479 43.6119 56.9116 41.0438C57.9754 38.4756 58.5229 35.7231 58.5229 32.9434C58.5229 30.1636 57.9754 27.4111 56.9116 24.843C55.8479 22.2748 54.2887 19.9413 52.3231 17.9758C50.3575 16.0102 48.0241 14.451 45.4559 13.3873C42.8878 12.3235 40.1353 11.776 37.3555 11.776C34.5758 11.776 31.8233 12.3235 29.2551 13.3873C26.687 14.451 24.3535 16.0102 22.3879 17.9758C20.4224 19.9413 18.8632 22.2748 17.7994 24.843C16.7357 27.4111 16.1882 30.1636 16.1882 32.9434Z" fill="white" stroke="#537599" stroke-linecap="round" stroke-linejoin="round"/>
<path d="M34.3539 43.1539C33.8073 43.1553 33.2657 43.0486 32.7605 42.8399C32.2552 42.6312 31.7962 42.3247 31.4099 41.9379L25.8675 36.3943C25.0882 35.6146 24.6506 34.5574 24.6508 33.4551C24.6511 32.3528 25.0892 31.2958 25.8688 30.5165C26.6484 29.7372 27.7056 29.2996 28.8079 29.2998C29.9102 29.3 30.9673 29.7382 31.7465 30.5178L34.3488 33.12L42.9568 24.2215C43.3426 23.8356 43.8007 23.5295 44.3049 23.3207C44.809 23.1119 45.3493 23.0044 45.895 23.0044C46.4407 23.0044 46.981 23.1119 47.4852 23.3207C47.9893 23.5295 48.4474 23.8356 48.8333 24.2215C49.2191 24.6073 49.5252 25.0654 49.734 25.5695C49.9428 26.0737 50.0503 26.614 50.0503 27.1597C50.0503 27.7054 49.9428 28.2457 49.734 28.7499C49.5252 29.254 49.2191 29.7121 48.8333 30.0979L37.2877 41.9379C36.9028 42.3238 36.4455 42.6298 35.942 42.8385C35.4386 43.0471 34.8989 43.1543 34.3539 43.1539Z" fill="#D1E7FF" stroke="#537599" stroke-linecap="round" stroke-linejoin="round"/>
</svg>
