<svg width="128" height="128" viewBox="0 0 128 128" fill="none" xmlns="http://www.w3.org/2000/svg">
<path d="M28.2487 99.7514C18.7668 90.2695 13.44 77.4094 13.44 64C13.44 50.5907 18.7668 37.7306 28.2487 28.2487C37.7305 18.7669 50.5907 13.44 64 13.44C77.4093 13.44 90.2695 18.7669 99.7513 28.2487C109.233 37.7306 114.56 50.5907 114.56 64C114.56 77.4094 109.233 90.2695 99.7513 99.7514C90.2695 109.233 77.4093 114.56 64 114.56C50.5907 114.56 37.7305 109.233 28.2487 99.7514Z" fill="#D1E7FF" stroke="#537599" stroke-width="1.28"/>
<path d="M64 101.952C67.8684 101.952 71.3581 102.166 73.8695 102.509C75.1299 102.681 76.1177 102.881 76.7771 103.094C76.9264 103.142 77.0514 103.189 77.1542 103.232C77.0514 103.275 76.9264 103.322 76.7771 103.37C76.1177 103.583 75.1299 103.783 73.8695 103.955C71.3581 104.298 67.8684 104.512 64 104.512C60.1316 104.512 56.6419 104.298 54.1305 103.955C52.8701 103.783 51.8823 103.583 51.2229 103.37C51.0736 103.322 50.9486 103.275 50.8458 103.232C50.9486 103.189 51.0736 103.142 51.2229 103.094C51.8823 102.881 52.8701 102.681 54.1305 102.509C56.6419 102.166 60.1316 101.952 64 101.952ZM77.5039 103.429C77.5035 103.429 77.5004 103.426 77.4956 103.42C77.502 103.426 77.5043 103.429 77.5039 103.429ZM77.4956 103.044C77.5004 103.038 77.5035 103.035 77.5039 103.035C77.5043 103.035 77.502 103.038 77.4956 103.044ZM50.4961 103.035C50.4965 103.035 50.4996 103.038 50.5044 103.044C50.498 103.038 50.4957 103.035 50.4961 103.035ZM50.5044 103.42C50.4996 103.426 50.4965 103.429 50.4961 103.429C50.4957 103.429 50.498 103.426 50.5044 103.42Z" fill="#D1E7FF" stroke="#537599" stroke-width="1.28"/>
<path d="M78.8147 63.1617L65.2045 35.9412C65.0927 35.7175 64.9207 35.5293 64.708 35.3978C64.4953 35.2663 64.2501 35.1967 64 35.1967C63.7499 35.1967 63.5047 35.2663 63.292 35.3978C63.0793 35.5293 62.9073 35.7175 62.7955 35.9412L49.1853 63.1617L31.9283 48.2049C31.7163 48.0204 31.4519 47.907 31.1722 47.8803C30.8924 47.8537 30.6114 47.9153 30.3684 48.0564C30.1254 48.1975 29.9326 48.4111 29.8171 48.6673C29.7016 48.9234 29.6691 49.2093 29.7242 49.4849L37.0637 87.41C37.0637 87.41 37.0637 94.1441 64 94.1441C90.9363 94.1441 90.935 87.41 90.935 87.41L98.2758 49.4849C98.3309 49.2093 98.2984 48.9234 98.1829 48.6673C98.0674 48.4111 97.8746 48.1975 97.6316 48.0564C97.3886 47.9153 97.1076 47.8537 96.8278 47.8803C96.5481 47.907 96.2837 48.0204 96.0717 48.2049L78.8147 63.1617Z" fill="#F3F9FF"/>
<path d="M35.9091 81.4349L37.0611 87.4036C37.0611 87.4036 37.0611 94.1377 63.9974 94.1377C90.9338 94.1377 90.9325 87.4036 90.9325 87.4036L92.0845 81.4349C89.4989 83.41 82.569 86.057 63.9936 86.057C45.4182 86.057 38.4934 83.41 35.9091 81.4349Z" fill="#D1E7FF"/>
<path d="M35.9091 81.4349C38.4934 83.41 45.4234 86.057 64 86.057C82.5766 86.057 89.5053 83.41 92.0909 81.4349" stroke="#537599" stroke-width="1.28" stroke-linejoin="round"/>
<path d="M78.8147 63.1617L65.2045 35.9412C65.0927 35.7175 64.9207 35.5293 64.708 35.3978C64.4953 35.2663 64.2501 35.1967 64 35.1967C63.7499 35.1967 63.5047 35.2663 63.292 35.3978C63.0793 35.5293 62.9073 35.7175 62.7955 35.9412L49.1853 63.1617L31.9283 48.2049C31.7163 48.0204 31.4519 47.907 31.1722 47.8803C30.8924 47.8537 30.6114 47.9153 30.3684 48.0564C30.1254 48.1975 29.9326 48.4111 29.8171 48.6673C29.7016 48.9234 29.6691 49.2093 29.7242 49.4849L37.0637 87.41C37.0637 87.41 37.0637 94.1441 64 94.1441C90.9363 94.1441 90.935 87.41 90.935 87.41L98.2758 49.4849C98.3309 49.2093 98.2984 48.9234 98.1829 48.6673C98.0674 48.4111 97.8746 48.1975 97.6316 48.0564C97.3886 47.9153 97.1076 47.8537 96.8278 47.8803C96.5481 47.907 96.2837 48.0204 96.0717 48.2049L78.8147 63.1617Z" stroke="#537599" stroke-width="1.28" stroke-linejoin="round"/>
<path d="M89.4438 30.5511C89.6171 29.8053 89.9959 29.123 90.5373 28.5816C91.0787 28.0401 91.7611 27.6613 92.5069 27.4881L98.6509 26.0698C98.7628 26.043 98.8624 25.9793 98.9336 25.889C99.0049 25.7987 99.0436 25.687 99.0436 25.5719C99.0436 25.4569 99.0049 25.3452 98.9336 25.2548C98.8624 25.1645 98.7628 25.1008 98.6509 25.074L92.5069 23.657C91.7607 23.4846 91.0779 23.1061 90.5363 22.5645C89.9948 22.023 89.6162 21.3402 89.4438 20.594L88.0256 14.45C87.9988 14.3381 87.9351 14.2385 87.8448 14.1673C87.7544 14.096 87.6427 14.0573 87.5277 14.0573C87.4126 14.0573 87.3009 14.096 87.2106 14.1673C87.1203 14.2385 87.0566 14.3381 87.0298 14.45L85.6128 20.594C85.4396 21.3398 85.0607 22.0222 84.5193 22.5636C83.9779 23.105 83.2956 23.4838 82.5498 23.657L76.4058 25.074C76.2939 25.1008 76.1943 25.1645 76.123 25.2548C76.0518 25.3452 76.013 25.4569 76.013 25.5719C76.013 25.687 76.0518 25.7987 76.123 25.889C76.1943 25.9793 76.2939 26.043 76.4058 26.0698L82.5498 27.4881C83.2958 27.6606 83.9784 28.0392 84.5197 28.5807C85.061 29.1223 85.4394 29.805 85.6115 30.5511L87.0298 36.6951C87.0566 36.807 87.1203 36.9066 87.2106 36.9779C87.3009 37.0491 87.4126 37.0879 87.5277 37.0879C87.6427 37.0879 87.7544 37.0491 87.8448 36.9779C87.9351 36.9066 87.9988 36.807 88.0256 36.6951L89.4438 30.5511Z" fill="#F3F9FF" stroke="#537599" stroke-width="1.28" stroke-linecap="round" stroke-linejoin="round"/>
<path d="M120.278 66.345C120.389 65.8675 120.632 65.4307 120.979 65.0841C121.325 64.7375 121.762 64.495 122.24 64.3841L126.189 63.4727C126.261 63.4556 126.325 63.4147 126.371 63.3566C126.417 63.2985 126.442 63.2267 126.442 63.1527C126.442 63.0787 126.417 63.0069 126.371 62.9488C126.325 62.8908 126.261 62.8499 126.189 62.8327L122.24 61.9162C121.761 61.8054 121.322 61.5622 120.974 61.2144C120.626 60.8666 120.383 60.4282 120.271 59.9489L119.361 56.0014C119.344 55.9294 119.303 55.8653 119.245 55.8195C119.187 55.7736 119.115 55.7487 119.041 55.7487C118.967 55.7487 118.895 55.7736 118.837 55.8195C118.779 55.8653 118.738 55.9294 118.721 56.0014L117.811 59.9489C117.7 60.4282 117.457 60.8668 117.109 61.2146C116.761 61.5624 116.322 61.8055 115.843 61.9162L111.896 62.8263C111.824 62.8435 111.76 62.8844 111.714 62.9424C111.669 63.0005 111.644 63.0723 111.644 63.1463C111.644 63.2203 111.669 63.2921 111.714 63.3502C111.76 63.4083 111.824 63.4492 111.896 63.4663L115.843 64.3777C116.322 64.4882 116.761 64.7313 117.108 65.0791C117.456 65.427 117.699 65.8657 117.81 66.345L118.721 70.2938C118.738 70.3658 118.779 70.4299 118.837 70.4758C118.895 70.5216 118.967 70.5465 119.041 70.5465C119.115 70.5465 119.187 70.5216 119.245 70.4758C119.303 70.4299 119.344 70.3658 119.361 70.2938L120.278 66.345Z" fill="#F3F9FF" stroke="#537599" stroke-width="1.28" stroke-linecap="round" stroke-linejoin="round"/>
<path d="M41.2826 36.4544C41.4192 35.8618 41.7196 35.3196 42.1497 34.8895C42.5797 34.4595 43.122 34.1591 43.7146 34.0224L48.5914 32.8973C48.6803 32.8763 48.7595 32.8259 48.8162 32.7542C48.8729 32.6825 48.9038 32.5938 48.9038 32.5024C48.9038 32.4111 48.8729 32.3223 48.8162 32.2507C48.7595 32.179 48.6803 32.1286 48.5914 32.1076L43.7146 30.9824C43.1218 30.8461 42.5794 30.5457 42.1493 30.1157C41.7193 29.6856 41.4189 29.1432 41.2826 28.5504L40.1574 23.68C40.1375 23.5902 40.0875 23.5098 40.0157 23.4522C39.9439 23.3946 39.8546 23.3632 39.7626 23.3632C39.6705 23.3632 39.5812 23.3946 39.5094 23.4522C39.4376 23.5098 39.3876 23.5902 39.3677 23.68L38.2426 28.553C38.1061 29.1457 37.8057 29.688 37.3756 30.1181C36.9456 30.5481 36.4032 30.8485 35.8106 30.985L30.9363 32.1088C30.8474 32.1299 30.7682 32.1803 30.7114 32.252C30.6547 32.3236 30.6239 32.4123 30.6239 32.5037C30.6239 32.5951 30.6547 32.6838 30.7114 32.7555C30.7682 32.8272 30.8474 32.8776 30.9363 32.8986L35.8106 34.0237C36.4032 34.1603 36.9454 34.4608 37.3755 34.8908C37.8055 35.3209 38.1059 35.8631 38.2426 36.4557L39.3677 41.3325C39.3887 41.4215 39.4391 41.5007 39.5108 41.5574C39.5825 41.6141 39.6712 41.6449 39.7626 41.6449C39.8539 41.6449 39.9427 41.6141 40.0143 41.5574C40.086 41.5007 40.1364 41.4215 40.1574 41.3325L41.2826 36.4544Z" fill="#F3F9FF" stroke="#537599" stroke-width="1.28" stroke-linecap="round" stroke-linejoin="round"/>
</svg>
