<svg width="128" height="128" viewBox="0 0 128 128" fill="none" xmlns="http://www.w3.org/2000/svg">
<path d="M114.379 70.0558C114.379 97.8792 91.8236 120.435 64 120.435C36.1766 120.435 13.6211 97.8792 13.6211 70.0558C13.6211 42.2322 36.1766 19.6767 64 19.6767C91.8236 19.6767 114.379 42.2322 114.379 70.0558Z" fill="#D1E7FF" stroke="#537599" stroke-width="1.28"/>
<path d="M64.9569 1.87246L64.9567 1.87214C64.8695 1.69491 64.7344 1.54556 64.5668 1.44095L64.904 0.900576L64.5668 1.44095C64.3992 1.33633 64.2057 1.28064 64.008 1.28014C63.8105 1.27965 63.6167 1.33437 63.4487 1.4381C63.2807 1.54179 63.1449 1.69028 63.0569 1.8667C63.0568 1.86692 63.0567 1.86713 63.0566 1.86735L59.9734 8.1013C59.8051 8.44187 59.5563 8.7364 59.2486 8.9594L64.9569 1.87246ZM64.9569 1.87246L68.0309 8.11006C68.0311 8.11037 68.0312 8.11067 68.0314 8.11097C68.1979 8.45143 68.4448 8.74619 68.7507 8.9698L68.7508 8.96989M64.9569 1.87246L68.7508 8.96989M68.7508 8.96989C69.057 9.19366 69.4131 9.33952 69.7884 9.39471L69.789 9.3948M68.7508 8.96989L69.789 9.3948M69.789 9.3948L76.6764 10.4011C76.8723 10.4298 77.0563 10.5127 77.2077 10.6406C77.3589 10.7685 77.4714 10.9361 77.5324 11.1244C77.5934 11.3129 77.6005 11.5145 77.5529 11.7067L77.5528 11.7069M69.789 9.3948L77.5528 11.7069M77.5528 11.7069C77.5053 11.8989 77.4048 12.074 77.2628 12.2122L77.2627 12.2122M77.5528 11.7069L77.2627 12.2122M77.2627 12.2122L72.2769 17.0654L72.2768 17.0654L77.2627 12.2122ZM71.801 27.2276L71.8012 27.2276C71.9983 27.2137 72.1875 27.145 72.3475 27.0292C72.5078 26.9133 72.6324 26.7551 72.7072 26.5724L72.7073 26.5723C72.7822 26.3897 72.8046 26.1898 72.772 25.995C72.772 25.9948 72.7719 25.9947 72.7719 25.9945L71.6028 19.1375C71.5385 18.7632 71.5663 18.379 71.6838 18.018C71.6839 18.0179 71.6839 18.0179 71.6839 18.0179L71.801 27.2276ZM71.801 27.2276C71.604 27.2416 71.407 27.2002 71.2322 27.108L71.232 27.108M71.801 27.2276L71.232 27.108M71.232 27.108L65.0753 23.8657L65.075 23.8656M71.232 27.108L65.075 23.8656M65.075 23.8656C64.7388 23.6887 64.3648 23.5964 63.9849 23.5964M65.075 23.8656L63.9849 23.5964M56.7342 27.099L56.7349 27.0986L62.895 23.8656L56.7342 27.099ZM56.7342 27.099C56.559 27.1912 56.3615 27.2324 56.1641 27.2181L56.1638 27.2181M56.7342 27.099L56.1638 27.2181M56.1638 27.2181C55.9665 27.2038 55.7769 27.1344 55.6167 27.0179C55.4565 26.9012 55.3322 26.7421 55.2579 26.5586L54.6647 26.7987L55.2579 26.5586C55.1837 26.3751 55.1622 26.1743 55.1962 25.9791L55.1964 25.978M56.1638 27.2181L55.1964 25.978M55.1964 25.978L56.376 19.1205C56.376 19.1204 56.3761 19.1203 56.3761 19.1202C56.4408 18.7462 56.4137 18.3621 56.2969 18.001C56.1801 17.6396 55.977 17.3121 55.705 17.0467L50.731 12.1875L50.7308 12.1874M55.1964 25.978L50.7308 12.1874M50.7308 12.1874C50.5891 12.049 50.4888 11.8737 50.4415 11.6813M50.7308 12.1874L50.4415 11.6813M51.3205 10.377L51.3204 10.3771C51.1244 10.4054 50.9402 10.488 50.7887 10.6155C50.6372 10.743 50.5243 10.9104 50.4629 11.0988L51.3205 10.377ZM51.3205 10.377L58.2073 9.38102M51.3205 10.377L58.2073 9.38102M63.9849 23.5964C63.6054 23.5964 63.2316 23.6886 62.8954 23.8653L63.9849 23.5964ZM50.4415 11.6813C50.3941 11.4891 50.4015 11.2874 50.4628 11.0991L50.4415 11.6813ZM58.2073 9.38102C58.2073 9.38101 58.2074 9.381 58.2075 9.38099M58.2073 9.38102L58.2075 9.38099M58.2075 9.38099C58.5835 9.32709 58.9408 9.18245 59.2485 8.95949L58.2075 9.38099ZM57.0323 27.6653C56.7512 27.8133 56.4343 27.8794 56.1176 27.8564L57.0323 27.6653Z" fill="#F3F9FF" stroke="#537599" stroke-width="1.28"/>
<path d="M65.5309 1.58954L68.606 7.82915C68.7268 8.07651 68.9062 8.2907 69.1284 8.45315C69.3507 8.61563 69.6091 8.72147 69.8815 8.76152L76.7691 9.76787C77.0832 9.81387 77.3781 9.94683 77.6207 10.1517C77.8631 10.3566 78.0435 10.6252 78.1413 10.9272C78.2391 11.2292 78.2505 11.5526 78.174 11.8607C78.0978 12.1689 77.9366 12.4495 77.7091 12.6708L72.7233 17.524C72.5256 17.7164 72.3778 17.9538 72.2924 18.2161C72.207 18.4782 72.1868 18.7573 72.2335 19.0291L73.4031 25.8885C73.4556 26.2011 73.4197 26.522 73.2994 26.8152C73.1792 27.1084 72.9794 27.3621 72.7226 27.5478C72.4659 27.7335 72.1624 27.8437 71.8462 27.866C71.5302 27.8884 71.2141 27.822 70.9338 27.6742L64.7771 24.432C64.5328 24.3035 64.261 24.2364 63.9849 24.2364C63.709 24.2364 63.4372 24.3035 63.1929 24.432L57.0323 27.6653C56.7512 27.8133 56.4343 27.8794 56.1176 27.8564C55.8008 27.8335 55.4967 27.7221 55.2399 27.5352C54.9832 27.3482 54.7839 27.0931 54.6647 26.7987C54.5455 26.5043 54.5112 26.1824 54.5656 25.8695L55.7454 19.0112C55.7925 18.7395 55.7728 18.4603 55.6879 18.1979C55.6031 17.9354 55.4556 17.6975 55.2581 17.5049L50.2838 12.6453C50.0566 12.4236 49.8959 12.1426 49.82 11.8343C49.7441 11.526 49.756 11.2026 49.8543 10.9007C49.9528 10.5988 50.1336 10.3304 50.3764 10.1259C50.6194 9.92146 50.9147 9.78904 51.2289 9.74364L58.1165 8.74749C58.3898 8.70834 58.6495 8.60321 58.873 8.44121C59.0966 8.2792 59.2773 8.0652 59.3997 7.81767L62.4837 1.58188C62.6251 1.29833 62.8429 1.0599 63.1125 0.893496C63.3821 0.727098 63.6928 0.639347 64.0096 0.640142C64.3266 0.640938 64.6368 0.730249 64.9056 0.898001C65.1744 1.06575 65.391 1.30526 65.5309 1.58954Z" stroke="#537599" stroke-width="1.28" stroke-linecap="round" stroke-linejoin="round"/>
<path d="M29.32 23.1488L33.5163 26.3273C33.6829 26.4538 33.8777 26.5376 34.084 26.5717C34.2902 26.6056 34.5017 26.5888 34.6999 26.5225L39.7025 24.8644C39.9307 24.7889 40.1754 24.7788 40.4092 24.8351C40.6429 24.8913 40.8563 25.0119 41.0251 25.183C41.1939 25.354 41.3117 25.5689 41.3648 25.8034C41.4181 26.0379 41.4046 26.2825 41.326 26.5097L39.6003 31.484C39.5325 31.6814 39.5134 31.8922 39.5448 32.0986C39.5761 32.3049 39.6569 32.5006 39.7802 32.6691L42.9052 36.9138C43.0478 37.1073 43.1334 37.337 43.1523 37.5767C43.1713 37.8165 43.1226 38.0567 43.012 38.2704C42.9016 38.4839 42.7334 38.6622 42.5267 38.7852C42.3201 38.9082 42.0831 38.9708 41.8426 38.966L36.5775 38.8728C36.3686 38.8689 36.1618 38.9157 35.975 39.0092C35.7881 39.1027 35.6268 39.2402 35.5048 39.4099L32.4347 43.6929C32.2943 43.8885 32.1018 44.0407 31.8792 44.1325C31.6566 44.2241 31.4128 44.2517 31.1753 44.2119C30.9379 44.172 30.7163 44.0664 30.5358 43.9071C30.3554 43.7477 30.2231 43.541 30.1541 43.3102L28.6236 38.267C28.5628 38.0671 28.4543 37.8849 28.3075 37.7363C28.1605 37.5876 27.9797 37.477 27.7805 37.4138L22.7589 35.8168C22.5298 35.7441 22.3256 35.6086 22.1695 35.4258C22.0133 35.243 21.9114 35.0202 21.8753 34.7825C21.8392 34.5449 21.8703 34.3018 21.9652 34.0809C22.06 33.86 22.2148 33.67 22.412 33.5326L26.7346 30.5173C26.9061 30.3976 27.0459 30.238 27.1419 30.0522C27.2379 29.8665 27.2872 29.66 27.2856 29.451L27.2538 24.182C27.2525 23.9416 27.3185 23.7059 27.4445 23.5011C27.5703 23.2963 27.7509 23.1309 27.9658 23.0234C28.1808 22.9159 28.4215 22.8707 28.6609 22.8928C28.9001 22.9151 29.1285 23.0037 29.32 23.1488Z" fill="#F3F9FF"/>
<path d="M29.32 23.1488L33.5163 26.3273C33.6829 26.4538 33.8777 26.5376 34.084 26.5717C34.2902 26.6056 34.5017 26.5888 34.6999 26.5225L39.7025 24.8644C39.9307 24.7889 40.1754 24.7788 40.4092 24.8351C40.6429 24.8913 40.8563 25.0119 41.0251 25.183C41.1939 25.354 41.3117 25.5689 41.3648 25.8034C41.4181 26.0379 41.4046 26.2825 41.326 26.5097L39.6003 31.484C39.5325 31.6814 39.5134 31.8922 39.5448 32.0986C39.5761 32.3049 39.6569 32.5006 39.7802 32.6691L42.9052 36.9138C43.0478 37.1073 43.1334 37.337 43.1523 37.5767C43.1713 37.8165 43.1226 38.0567 43.012 38.2703C42.9016 38.4839 42.7334 38.6622 42.5267 38.7852C42.3201 38.9082 42.0831 38.9708 41.8426 38.966L36.5775 38.8728C36.3686 38.8689 36.1618 38.9157 35.975 39.0092C35.7881 39.1027 35.6268 39.2402 35.5048 39.4099L32.4347 43.6929C32.2943 43.8885 32.1018 44.0407 31.8792 44.1325C31.6566 44.2241 31.4128 44.2517 31.1753 44.2119C30.9379 44.172 30.7163 44.0664 30.5358 43.9071C30.3554 43.7477 30.2231 43.541 30.1541 43.3102L28.6236 38.267C28.5628 38.0671 28.4543 37.8849 28.3075 37.7363C28.1605 37.5876 27.9797 37.477 27.7805 37.4138L22.7589 35.8168C22.5298 35.7441 22.3256 35.6086 22.1695 35.4258C22.0133 35.243 21.9114 35.0202 21.8753 34.7825C21.8392 34.5449 21.8703 34.3018 21.9652 34.0809C22.06 33.86 22.2148 33.67 22.412 33.5326L26.7346 30.5173C26.9061 30.3976 27.0459 30.238 27.1419 30.0522C27.2379 29.8665 27.2872 29.66 27.2856 29.451L27.2538 24.182C27.2525 23.9416 27.3185 23.7059 27.4445 23.5011C27.5703 23.2963 27.7509 23.1309 27.9658 23.0234C28.1808 22.9159 28.4215 22.8707 28.6609 22.8928C28.9001 22.9151 29.1285 23.0037 29.32 23.1488Z" stroke="#537599" stroke-width="1.28" stroke-linecap="round" stroke-linejoin="round"/>
<path d="M100.115 24.8884L100.418 30.1485C100.429 30.3572 100.492 30.56 100.6 30.7392C100.707 30.9182 100.857 31.0684 101.036 31.1766L105.541 33.9111C105.745 34.0365 105.91 34.216 106.017 34.4298C106.125 34.6436 106.171 34.883 106.15 35.1214C106.129 35.3597 106.042 35.5876 105.899 35.7793C105.756 35.971 105.562 36.1191 105.34 36.207L100.429 38.1202C100.234 38.1961 100.061 38.3182 99.9242 38.4759C99.7874 38.6337 99.691 38.8224 99.6432 39.0258L98.438 44.1609C98.3831 44.395 98.2638 44.609 98.0934 44.7789C97.9232 44.9487 97.7088 45.0675 97.4745 45.1218C97.2403 45.176 96.9955 45.1636 96.768 45.0861C96.5404 45.0084 96.339 44.8686 96.1867 44.6825L92.8501 40.6011C92.7179 40.439 92.5482 40.3118 92.3558 40.2302C92.1633 40.1487 91.9539 40.1153 91.7455 40.133L86.4944 40.5692C86.2546 40.5893 86.0141 40.5419 85.7999 40.4324C85.5857 40.3229 85.4064 40.1555 85.2825 39.9494C85.1584 39.7432 85.0947 39.5064 85.0983 39.2659C85.102 39.0254 85.1729 38.7906 85.3031 38.5883L88.1474 34.1534C88.2603 33.9776 88.3288 33.777 88.3469 33.5689C88.3652 33.3606 88.3326 33.1512 88.252 32.9584L86.2113 28.0988C86.119 27.8775 86.0904 27.6348 86.1287 27.398C86.167 27.1613 86.2704 26.94 86.4277 26.7589C86.5849 26.5779 86.7896 26.4443 87.0185 26.3731C87.2475 26.3021 87.4919 26.2963 87.724 26.3566L92.8258 27.6944C93.0278 27.7482 93.2398 27.7517 93.4434 27.7048C93.6471 27.6578 93.8361 27.562 93.9942 27.4254L97.9864 23.9815C98.1688 23.824 98.3918 23.7207 98.6299 23.6836C98.8681 23.6463 99.1119 23.6766 99.3336 23.7711C99.5554 23.8656 99.7463 24.0203 99.8844 24.218C100.022 24.4155 100.102 24.6478 100.115 24.8884Z" fill="#F3F9FF"/>
<path d="M100.115 24.8884L100.418 30.1485C100.429 30.3572 100.492 30.56 100.6 30.7392C100.707 30.9182 100.857 31.0684 101.036 31.1766L105.541 33.9111C105.745 34.0365 105.91 34.216 106.017 34.4298C106.125 34.6436 106.171 34.883 106.15 35.1214C106.129 35.3597 106.042 35.5876 105.899 35.7793C105.756 35.971 105.562 36.1191 105.34 36.207L100.429 38.1202C100.234 38.1961 100.061 38.3182 99.9242 38.4759C99.7874 38.6337 99.691 38.8224 99.6432 39.0258L98.438 44.1609C98.3831 44.395 98.2638 44.609 98.0934 44.7789C97.9232 44.9487 97.7088 45.0675 97.4745 45.1218C97.2403 45.176 96.9955 45.1636 96.768 45.0861C96.5404 45.0084 96.339 44.8686 96.1867 44.6825L92.8501 40.6011C92.7179 40.439 92.5482 40.3118 92.3558 40.2302C92.1633 40.1487 91.9539 40.1153 91.7455 40.133L86.4944 40.5692C86.2546 40.5893 86.0141 40.5419 85.7999 40.4324C85.5857 40.3229 85.4064 40.1555 85.2825 39.9494C85.1584 39.7432 85.0947 39.5064 85.0983 39.2659C85.102 39.0254 85.1729 38.7906 85.3031 38.5883L88.1474 34.1534C88.2603 33.9776 88.3288 33.777 88.3469 33.5689C88.3652 33.3606 88.3326 33.1512 88.252 32.9584L86.2113 28.0988C86.119 27.8775 86.0904 27.6348 86.1287 27.398C86.167 27.1613 86.2704 26.94 86.4277 26.7589C86.5849 26.5779 86.7896 26.4443 87.0185 26.3731C87.2475 26.3021 87.4919 26.2963 87.724 26.3566L92.8258 27.6944C93.0278 27.7482 93.2398 27.7517 93.4434 27.7048C93.6471 27.6578 93.8361 27.562 93.9942 27.4254L97.9864 23.9815C98.1688 23.824 98.3918 23.7207 98.6299 23.6836C98.8681 23.6463 99.1119 23.6766 99.3336 23.7711C99.5554 23.8656 99.7463 24.0203 99.8844 24.218C100.022 24.4155 100.102 24.6478 100.115 24.8884Z" stroke="#537599" stroke-width="1.28" stroke-linecap="round" stroke-linejoin="round"/>
<path d="M63.981 127.36C74.3313 127.36 82.7217 126.102 82.7217 124.549C82.7217 122.997 74.3313 121.738 63.981 121.738C53.6309 121.738 45.2405 122.997 45.2405 124.549C45.2405 126.102 53.6309 127.36 63.981 127.36Z" fill="#F3F9FF"/>
<path d="M53.6203 89.559L57.355 124.409H70.5408L74.3418 89.559H53.6203Z" fill="white" stroke="#537599" stroke-width="1.28" stroke-linecap="round" stroke-linejoin="round"/>
<path d="M63.9479 97.1125V124.409" stroke="#537599" stroke-width="1.28" stroke-linecap="round" stroke-linejoin="round"/>
<path d="M53.6203 89.559L57.355 124.409H70.5408L74.3418 89.559H53.6203Z" stroke="#537599" stroke-width="1.28" stroke-linecap="round" stroke-linejoin="round"/>
<path d="M63.9811 124.427C63.9811 122.928 63.3856 121.49 62.3258 120.43C61.2659 119.371 59.8284 118.775 58.3295 118.775H57.3882C56.3958 118.775 55.4209 119.036 54.5615 119.532C53.7021 120.028 52.9887 120.742 52.4929 121.602C52.3269 121.888 52.2393 122.213 52.239 122.544C52.2387 122.875 52.3256 123.2 52.4911 123.486C52.6565 123.773 52.8947 124.011 53.1814 124.176C53.4681 124.341 53.7934 124.427 54.1243 124.427H63.9811Z" fill="#F3F9FF" stroke="#537599" stroke-width="1.28" stroke-linecap="round" stroke-linejoin="round"/>
<path d="M63.9812 124.427C63.9812 122.928 64.5767 121.49 65.6365 120.43C66.6965 119.371 68.1339 118.775 69.6328 118.775H70.5741C71.5665 118.775 72.5415 119.036 73.4009 119.532C74.2603 120.028 74.9738 120.742 75.4695 121.602C75.6354 121.888 75.7231 122.213 75.7233 122.544C75.7237 122.875 75.6367 123.2 75.4713 123.486C75.3058 123.773 75.0677 124.011 74.781 124.176C74.4943 124.341 74.169 124.427 73.8381 124.427H63.9812Z" fill="#F3F9FF" stroke="#537599" stroke-width="1.28" stroke-linecap="round" stroke-linejoin="round"/>
<path d="M53.6203 89.5591L54.4711 104.895C54.5015 105.335 54.6963 105.748 55.0167 106.051C55.337 106.354 55.7597 106.525 56.2007 106.53H71.7614C72.2021 106.525 72.6245 106.353 72.9447 106.05C73.2648 105.747 73.4593 105.335 73.4898 104.895L74.3405 89.5591V86.7531H53.6203V89.5591Z" fill="#F3F9FF" stroke="#537599" stroke-width="1.28" stroke-linecap="round" stroke-linejoin="round"/>
<path d="M80.9348 71.6808C80.9348 67.1844 79.1486 62.8722 75.9692 59.6927C72.7898 56.5133 68.4776 54.7272 63.9812 54.7272C59.4848 54.7272 55.1726 56.5133 51.9932 59.6927C48.8138 62.8722 47.0275 67.1844 47.0275 71.6808H53.6204V89.5768L59.6229 91.8268C60.0546 91.9741 60.5233 91.9725 60.954 91.8222C61.3847 91.6719 61.7527 91.3816 61.9991 90.9978L63.9812 87.6931L65.9646 90.9978C66.211 91.3816 66.579 91.6719 67.0097 91.8222C67.4404 91.9725 67.909 91.9741 68.3408 91.8268L74.3355 89.5768V71.6808H80.9348Z" fill="white"/>
<path d="M80.9348 71.6808C80.9348 67.1844 79.1486 62.8722 75.9692 59.6927C72.7898 56.5133 68.4776 54.7272 63.9812 54.7272C59.4848 54.7272 55.1726 56.5133 51.9932 59.6927C48.8138 62.8722 47.0275 67.1844 47.0275 71.6808H53.6204V89.5768L59.6229 91.8268C60.0546 91.9741 60.5233 91.9725 60.954 91.8222C61.3847 91.6719 61.7527 91.3816 61.9991 90.9978L63.9812 87.6931L65.9646 90.9978C66.211 91.3816 66.579 91.6719 67.0097 91.8222C67.4404 91.9725 67.909 91.9741 68.3408 91.8268L74.3355 89.5768V71.6808H80.9348Z" stroke="#537599" stroke-width="1.28" stroke-linecap="round" stroke-linejoin="round"/>
<path d="M53.6206 71.6809C53.6207 70.5112 53.2579 69.3703 52.5822 68.4156C52.0088 67.4898 51.715 66.4179 51.7366 65.329" stroke="#537599" stroke-width="1.28" stroke-linecap="round" stroke-linejoin="round"/>
<path d="M74.3416 71.6809C74.3414 70.5112 74.7042 69.3703 75.3799 68.4156C75.9533 67.4898 76.2471 66.4179 76.2255 65.329" stroke="#537599" stroke-width="1.28" stroke-linecap="round" stroke-linejoin="round"/>
<path d="M63.9812 70.7394V87.693" stroke="#537599" stroke-width="1.28" stroke-linecap="round" stroke-linejoin="round"/>
<path d="M47.0275 71.6808V76.4229C47.0319 79.0276 48.0691 81.5244 49.9116 83.3654C51.7542 85.2065 54.2516 86.2417 56.8564 86.2441H66.911C67.7686 86.2272 68.5855 85.8746 69.1861 85.2621C69.7866 84.6495 70.123 83.8259 70.123 82.9681C70.123 82.1102 69.7866 81.2865 69.1861 80.6741C68.5855 80.0615 67.7686 79.7089 66.911 79.6921H56.8971C56.0286 79.691 55.196 79.3456 54.5817 78.7317C53.9676 78.1176 53.6219 77.2851 53.6204 76.4165V71.6808H47.0275Z" fill="white"/>
<path d="M47.0275 71.6808V76.4229C47.0319 79.0276 48.0691 81.5244 49.9116 83.3654C51.7542 85.2065 54.2516 86.2417 56.8564 86.2441H66.911C67.7686 86.2272 68.5855 85.8746 69.1861 85.2621C69.7866 84.6495 70.123 83.8259 70.123 82.9681C70.123 82.1102 69.7866 81.2865 69.1861 80.6741C68.5855 80.0615 67.7686 79.7089 66.911 79.6921H56.8971C56.0286 79.691 55.196 79.3456 54.5817 78.7317C53.9676 78.1176 53.6219 77.2851 53.6204 76.4165V71.6808H47.0275Z" stroke="#537599" stroke-width="1.28" stroke-linecap="round" stroke-linejoin="round"/>
<path d="M80.9347 71.6808V76.4229C80.9304 79.0263 79.8942 81.5218 78.0534 83.3627C76.2125 85.2036 73.717 86.2398 71.1136 86.2441H59.4085C58.5509 86.2272 57.734 85.8746 57.1334 85.2621C56.5329 84.6495 56.1965 83.8259 56.1965 82.9681C56.1965 82.1102 56.5329 81.2865 57.1334 80.6741C57.734 80.0615 58.5509 79.7089 59.4085 79.6921H71.0664C71.9348 79.691 72.7673 79.3456 73.3814 78.7315C73.9954 78.1175 74.3408 77.285 74.3418 76.4165V71.6808H80.9347Z" fill="white"/>
<path d="M80.9347 71.6808V76.4229C80.9304 79.0263 79.8942 81.5218 78.0534 83.3627C76.2125 85.2036 73.717 86.2398 71.1136 86.2441H59.4085C58.5509 86.2272 57.734 85.8746 57.1334 85.2621C56.5329 84.6495 56.1965 83.8259 56.1965 82.9681C56.1965 82.1102 56.5329 81.2865 57.1334 80.6741C57.734 80.0615 58.5509 79.7089 59.4085 79.6921H71.0664C71.9348 79.691 72.7673 79.3456 73.3814 78.7315C73.9954 78.1175 74.3408 77.285 74.3418 76.4165V71.6808H80.9347Z" stroke="#537599" stroke-width="1.28" stroke-linecap="round" stroke-linejoin="round"/>
<path d="M73.3738 78.7455C73.3754 78.1534 73.217 77.5718 72.9155 77.0622C72.6139 76.5525 72.1804 76.1338 71.6605 75.8502C71.1407 75.5665 70.554 75.4285 69.9622 75.4508C69.3705 75.4731 68.7958 75.6546 68.2987 75.9765L63.3141 79.6982H71.0665C71.9314 79.6984 72.761 79.3558 73.3738 78.7455Z" fill="white" stroke="#537599" stroke-width="1.28" stroke-linecap="round" stroke-linejoin="round"/>
<path d="M69.5423 55.6595C71.6605 56.397 73.6113 57.547 75.282 59.0434V61.5662C75.3041 61.7545 75.274 61.9454 75.1951 62.1177C75.1161 62.2901 74.9913 62.4374 74.8342 62.5436C74.6772 62.6499 74.4939 62.7109 74.3046 62.7202C74.1151 62.7292 73.927 62.6861 73.7603 62.5956L72.0934 61.9285C71.2566 61.5943 70.7171 62.0433 70.8931 62.926L71.1929 64.4233C71.2637 64.8944 71.2011 65.3756 71.0124 65.813C70.8237 66.2503 70.5164 66.6261 70.1252 66.8977L63.9788 70.7395L69.5423 55.6595Z" fill="#F3F9FF" stroke="#537599" stroke-width="1.28" stroke-linecap="round" stroke-linejoin="round"/>
<path d="M52.6792 59.0434C54.3495 57.5467 56.3005 56.3964 58.4189 55.6595L63.9787 70.7395L57.8321 66.8977C57.441 66.6261 57.1336 66.2503 56.945 65.813C56.7563 65.3756 56.6938 64.8944 56.7646 64.4233L57.0643 62.926C57.2416 62.0433 56.7008 61.5943 55.8654 61.9285L54.1971 62.5956C54.0305 62.6864 53.8424 62.7295 53.6529 62.7204C53.4636 62.7113 53.2803 62.6503 53.1234 62.544C52.9663 62.4377 52.8417 62.2902 52.7628 62.1178C52.6841 61.9454 52.6543 61.7545 52.6767 61.5662L52.6792 59.0434Z" fill="#F3F9FF" stroke="#537599" stroke-width="1.28" stroke-linecap="round" stroke-linejoin="round"/>
<path d="M58.4214 55.6595C62.0241 54.4164 65.9395 54.4164 69.5422 55.6595L63.9812 70.7395L58.4214 55.6595Z" fill="white" stroke="#537599" stroke-width="1.28" stroke-linecap="round" stroke-linejoin="round"/>
<path d="M63.9212 58.6824L67.3727 61.5267" stroke="#537599" stroke-width="1.28" stroke-linecap="round" stroke-linejoin="round"/>
<path d="M63.9213 58.6824L60.5909 61.5267" stroke="#537599" stroke-width="1.28" stroke-linecap="round" stroke-linejoin="round"/>
<path d="M67.4658 55.0855L63.9212 58.6823L60.4888 55.0969L60.4965 47.5398H67.4733L67.4658 55.0855Z" fill="white" stroke="#537599" stroke-width="1.28" stroke-linecap="round" stroke-linejoin="round"/>
<path d="M63.9811 53.3876C66.3856 53.382 68.7254 52.6092 70.6604 51.1819C72.5954 49.7546 74.0245 47.7471 74.7398 45.4516H74.7487C78.3315 45.4516 78.5496 39.7847 75.315 39.7847V37.5194C75.315 34.5135 74.1209 31.6307 71.9954 29.5052C69.8699 27.3797 66.987 26.1855 63.9811 26.1855C60.9752 26.1855 58.0924 27.3797 55.9668 29.5052C53.8413 31.6307 52.6473 34.5135 52.6473 37.5194V39.7872C49.4126 39.7872 49.6307 45.4542 53.2135 45.4542H53.2225C53.9384 47.7491 55.3678 49.7558 57.3026 51.1827C59.2375 52.6095 61.5771 53.3818 63.9811 53.3876Z" fill="white" stroke="#537599" stroke-width="1.28" stroke-linecap="round" stroke-linejoin="round"/>
<path d="M60.2939 41.4877C61.0765 41.4877 61.711 40.8532 61.711 40.0707C61.711 39.2881 61.0765 38.6536 60.2939 38.6536C59.5113 38.6536 58.8768 39.2881 58.8768 40.0707C58.8768 40.8532 59.5113 41.4877 60.2939 41.4877Z" fill="#537599"/>
<path d="M67.6607 41.4877C68.4433 41.4877 69.0776 40.8532 69.0776 40.0707C69.0776 39.2881 68.4433 38.6536 67.6607 38.6536C66.8781 38.6536 66.2436 39.2881 66.2436 40.0707C66.2436 40.8532 66.8781 41.4877 67.6607 41.4877Z" fill="#537599"/>
<path d="M57.1764 44.3206C57.8027 44.3206 58.3104 43.813 58.3104 43.1867C58.3104 42.5605 57.8027 42.0529 57.1764 42.0529C56.5503 42.0529 56.0426 42.5605 56.0426 43.1867C56.0426 43.813 56.5503 44.3206 57.1764 44.3206Z" fill="#F3F9FF"/>
<path d="M70.778 44.3206C71.4042 44.3206 71.9118 43.813 71.9118 43.1867C71.9118 42.5605 71.4042 42.0529 70.778 42.0529C70.1517 42.0529 69.644 42.5605 69.644 43.1867C69.644 43.813 70.1517 44.3206 70.778 44.3206Z" fill="#F3F9FF"/>
<path d="M61.147 46.6917C61.9863 47.2511 62.9724 47.5496 63.981 47.5496C64.9898 47.5496 65.9759 47.2511 66.8152 46.6917" stroke="#537599" stroke-width="1.28" stroke-linecap="round" stroke-linejoin="round"/>
<path d="M58.7594 31.9295C58.7594 31.9295 64.411 29.1042 67.2362 31.9295L72.8878 37.581C72.8878 37.581 75.7131 40.4075 79.4808 36.6397L77.597 35.6971L80.4233 33.8134C80.4233 33.8134 78.5394 33.8134 76.6557 30.9882C74.7717 28.1629 71.9465 22.5114 65.3523 22.5114C55.9342 22.5114 54.9916 28.1629 54.9916 28.1629L58.7594 31.9295Z" fill="white"/>
<path d="M58.7594 31.9295C58.7594 31.9295 64.411 29.1042 67.2362 31.9295L72.8878 37.581C72.8878 37.581 75.7131 40.4075 79.4808 36.6397L77.597 35.6971L80.4233 33.8134C80.4233 33.8134 78.5394 33.8134 76.6557 30.9882C74.7717 28.1629 71.9465 22.5114 65.3523 22.5114C55.9342 22.5114 54.9916 28.1629 54.9916 28.1629L58.7594 31.9295Z" stroke="#537599" stroke-width="1.28" stroke-linecap="round" stroke-linejoin="round"/>
<path d="M76.6551 47.0002C77.6956 47.0002 78.539 46.1568 78.539 45.1163C78.539 44.0759 77.6956 43.2324 76.6551 43.2324C75.6147 43.2324 74.7712 44.0759 74.7712 45.1163C74.7712 46.1568 75.6147 47.0002 76.6551 47.0002Z" fill="#F3F9FF" stroke="#537599" stroke-width="1.28" stroke-linecap="round" stroke-linejoin="round"/>
<path d="M51.2237 47.0002C52.2641 47.0002 53.1076 46.1568 53.1076 45.1163C53.1076 44.0759 52.2641 43.2324 51.2237 43.2324C50.1833 43.2324 49.3398 44.0759 49.3398 45.1163C49.3398 46.1568 50.1833 47.0002 51.2237 47.0002Z" fill="#F3F9FF" stroke="#537599" stroke-width="1.28" stroke-linecap="round" stroke-linejoin="round"/>
<path d="M54.9915 28.1588C54.9915 28.1588 50.2825 28.1588 50.2825 33.8091C50.2825 38.5194 53.1076 39.4607 53.1076 39.4607C53.1076 39.4607 54.9915 33.8091 58.7594 31.9252L54.9915 28.1588Z" fill="white"/>
<path d="M54.9915 28.1588C54.9915 28.1588 50.2825 28.1588 50.2825 33.8091C50.2825 38.5194 53.1076 39.4607 53.1076 39.4607C53.1076 39.4607 54.9915 33.8091 58.7594 31.9252L54.9915 28.1588Z" stroke="#537599" stroke-width="1.28" stroke-linecap="round" stroke-linejoin="round"/>
</svg>
