<svg width="128" height="128" viewBox="0 0 128 128" fill="none" xmlns="http://www.w3.org/2000/svg">
<path d="M17.4475 89.8372C14.9066 83.7029 13.5988 77.1283 13.5988 70.4887C13.5988 63.8491 14.9066 57.2744 17.4475 51.1402C19.9883 45.006 23.7126 39.4323 28.4075 34.7374C33.1024 30.0424 38.6761 26.3182 44.8103 23.7773C50.9445 21.2365 57.5192 19.9287 64.1588 19.9287C70.7984 19.9287 77.3731 21.2365 83.5073 23.7773C89.6415 26.3182 95.2152 30.0424 99.9101 34.7374C104.605 39.4323 108.329 45.006 110.87 51.1402C113.411 57.2744 114.719 63.8491 114.719 70.4887C114.719 77.1283 113.411 83.7029 110.87 89.8372C108.329 95.9714 104.605 101.545 99.9101 106.24C95.2152 110.935 89.6415 114.659 83.5073 117.2C77.3731 119.741 70.7984 121.049 64.1588 121.049C57.5192 121.049 50.9445 119.741 44.8103 117.2C38.6761 114.659 33.1024 110.935 28.4075 106.24C23.7126 101.545 19.9883 95.9714 17.4475 89.8372Z" fill="#D1E7FF" stroke="#537599" stroke-width="1.28"/>
<path d="M32.6402 112.521C31.4056 112.521 30.2217 112.03 29.3487 111.157C28.4757 110.284 27.9851 109.1 27.9848 107.866V75.286C27.9846 74.6747 28.1049 74.0693 28.3389 73.5045C28.5728 72.9397 28.9157 72.4265 29.348 71.9943C29.7804 71.5621 30.2936 71.2193 30.8585 70.9855C31.4234 70.7518 32.0288 70.6316 32.6402 70.632H97.8024C98.4135 70.6318 99.0186 70.752 99.5832 70.9858C100.148 71.2196 100.661 71.5623 101.093 71.9944C101.525 72.4264 101.868 72.9394 102.101 73.504C102.335 74.0686 102.455 74.6737 102.455 75.2848V107.867C102.455 109.102 101.965 110.285 101.092 111.158C100.219 112.031 99.0355 112.521 97.8011 112.521H32.6402Z" fill="white" stroke="#537599" stroke-width="1.28" stroke-linecap="round" stroke-linejoin="round"/>
<path d="M37.2955 70.632H93.1473V112.521H37.2955V70.632Z" fill="#D1E7FF" stroke="#537599" stroke-width="1.28" stroke-linecap="round" stroke-linejoin="round"/>
<path d="M97.8023 85.759V91.5754" stroke="#537599" stroke-width="1.28" stroke-linecap="round" stroke-linejoin="round"/>
<path d="M97.8022 96.2306L97.801 97.3941" stroke="#537599" stroke-width="1.28" stroke-linecap="round" stroke-linejoin="round"/>
<path d="M33.8408 92.776C33.6035 93.013 33.3013 93.1743 32.9724 93.2396C32.6435 93.3048 32.3026 93.2711 31.9928 93.1427C31.683 93.0143 31.4182 92.7969 31.232 92.518C31.0457 92.2392 30.9463 91.9114 30.9463 91.576C30.9463 91.2407 31.0457 90.9128 31.232 90.634C31.4182 90.3551 31.683 90.1377 31.9928 90.0093C32.3026 89.8809 32.6435 89.8472 32.9724 89.9124C33.3013 89.9777 33.6035 90.139 33.8408 90.376C33.9987 90.5334 34.1239 90.7205 34.2094 90.9264C34.2948 91.1323 34.3388 91.3531 34.3388 91.576C34.3388 91.799 34.2948 92.0197 34.2094 92.2256C34.1239 92.4315 33.9987 92.6186 33.8408 92.776Z" fill="#537599"/>
<path d="M53.3058 83.2757C53.3058 83.2757 56.0873 79.1477 63.5702 79.1477C71.0531 79.1477 73.8102 83.2757 73.8102 83.2757L73.023 91.2642H54.0943L53.3058 83.2757Z" fill="white" stroke="#537599" stroke-width="1.28" stroke-linecap="round" stroke-linejoin="round"/>
<path d="M78.8662 108.492C79.061 108.492 79.254 108.454 79.434 108.379C79.614 108.305 79.7775 108.195 79.9152 108.058C80.0529 107.92 80.162 107.756 80.2364 107.576C80.3107 107.396 80.3488 107.203 80.3485 107.008V99.6534C80.3485 95.2039 78.5809 90.9366 75.4346 87.7903C72.2883 84.644 68.021 82.8765 63.5715 82.8765C59.1219 82.8765 54.8546 84.644 51.7083 87.7903C48.562 90.9366 46.7944 95.2039 46.7944 99.6534V107.008C46.7944 107.401 46.9505 107.778 47.2282 108.056C47.5059 108.333 47.8826 108.489 48.2754 108.489L78.8662 108.492Z" fill="white" stroke="#537599" stroke-width="1.28" stroke-linecap="round" stroke-linejoin="round"/>
<path d="M68.0067 83.469C67.708 83.3879 67.4443 83.2107 67.2565 82.9648C67.0686 82.7188 66.967 82.4178 66.9674 82.1083V78.3682H60.1501V82.1147C60.1506 82.4239 60.0494 82.7246 59.862 82.9705C59.6746 83.2165 59.4115 83.3939 59.1133 83.4754C58.4486 83.6582 57.7959 83.8818 57.1587 84.1448C59.9037 85.5046 62.0743 87.7982 63.281 90.6139L63.5587 91.2655L63.8378 90.6139C65.0458 87.7945 67.2204 85.4987 69.9703 84.1397C69.3302 83.8759 68.6744 83.6519 68.0067 83.469Z" fill="white" stroke="#537599" stroke-width="1.28" stroke-linecap="round" stroke-linejoin="round"/>
<path d="M73.8112 108.492V99.6534" stroke="#537599" stroke-width="1.28" stroke-linecap="round" stroke-linejoin="round"/>
<path d="M53.3058 108.492V99.6534" stroke="#537599" stroke-width="1.28" stroke-linecap="round" stroke-linejoin="round"/>
<path d="M63.5586 91.2642L61.1689 89.8972C58.4945 88.371 55.3755 87.814 52.3381 88.3202C52.2043 88.3409 52.0674 88.3258 51.9414 88.2766C51.8153 88.2273 51.7044 88.1456 51.6201 88.0397C51.5358 87.9337 51.4809 87.8074 51.4611 87.6735C51.4413 87.5396 51.4573 87.4028 51.5074 87.277L52.8156 84.077C52.9521 83.7441 53.2039 83.4714 53.525 83.3088C53.846 83.1461 54.2148 83.1044 54.564 83.1913C56.4907 83.6732 58.2799 84.5941 59.7918 85.8819C61.3037 87.1698 62.4974 88.7898 63.2796 90.6153L63.5586 91.2642Z" fill="white" stroke="#537599" stroke-width="1.28" stroke-linecap="round" stroke-linejoin="round"/>
<path d="M63.5586 91.2643L65.9484 89.8973C68.6232 88.371 71.7426 87.814 74.7804 88.3203C74.9141 88.3407 75.0508 88.3254 75.1767 88.2761C75.3026 88.2267 75.4133 88.1449 75.4974 88.039C75.5816 87.9332 75.6363 87.807 75.656 87.6732C75.6758 87.5394 75.6598 87.4027 75.6098 87.2771L74.3017 84.0771C74.1656 83.7441 73.914 83.4712 73.5932 83.3086C73.2723 83.1459 72.9035 83.1043 72.5545 83.1913C70.6276 83.6733 68.8383 84.5941 67.3262 85.882C65.8141 87.1698 64.6201 88.7898 63.8376 90.6153L63.5586 91.2643Z" fill="white" stroke="#537599" stroke-width="1.28" stroke-linecap="round" stroke-linejoin="round"/>
<path d="M75.6752 71.2118H51.4421V65.1779C51.4421 61.9644 52.7187 58.8825 54.991 56.6102C57.2633 54.338 60.3452 53.0614 63.5587 53.0614C66.7722 53.0614 69.8541 54.338 72.1263 56.6102C74.3986 58.8825 75.6752 61.9644 75.6752 65.1779V71.2118Z" stroke="#537599" stroke-width="1.28" stroke-linecap="round" stroke-linejoin="round"/>
<path d="M63.5715 81.4647C65.5489 81.46 67.4731 80.8243 69.0642 79.6501C70.6553 78.476 71.8301 76.8247 72.4176 74.9367H72.4266C75.3706 74.9367 75.5523 70.2762 72.8925 70.2762V68.4164C72.8925 65.9426 71.9098 63.5701 70.1606 61.8209C68.4113 60.0717 66.0389 59.089 63.5651 59.089C61.0913 59.089 58.7188 60.0717 56.9696 61.8209C55.2204 63.5701 54.2377 65.9426 54.2377 68.4164V70.28C51.5906 70.28 51.7698 74.9405 54.7164 74.9405H54.7241C55.3127 76.8279 56.4881 78.4782 58.0793 79.6516C59.6705 80.8249 61.5945 81.4601 63.5715 81.4647Z" fill="white" stroke="#537599" stroke-width="1.28" stroke-linecap="round" stroke-linejoin="round"/>
<path d="M60.5443 69.3481C60.3135 69.3479 60.0879 69.4161 59.8959 69.5441C59.704 69.6722 59.5543 69.8543 59.4659 70.0674C59.3775 70.2805 59.3543 70.5151 59.3992 70.7414C59.4442 70.9677 59.5553 71.1756 59.7184 71.3388C59.8816 71.5019 60.0895 71.613 60.3158 71.658C60.5421 71.7029 60.7767 71.6797 60.9898 71.5913C61.2029 71.5029 61.385 71.3532 61.5131 71.1613C61.6411 70.9693 61.7093 70.7437 61.7091 70.5129C61.7091 70.204 61.5863 69.9077 61.3679 69.6893C61.1495 69.4709 60.8532 69.3481 60.5443 69.3481Z" fill="#537599"/>
<path d="M66.5972 69.3481C66.3664 69.3479 66.1408 69.4161 65.9488 69.5441C65.7569 69.6722 65.6072 69.8543 65.5188 70.0674C65.4304 70.2805 65.4072 70.5151 65.4522 70.7414C65.4971 70.9677 65.6082 71.1756 65.7713 71.3388C65.9345 71.5019 66.1424 71.613 66.3687 71.658C66.595 71.7029 66.8296 71.6797 67.0427 71.5913C67.2559 71.5029 67.438 71.3532 67.566 71.1613C67.694 70.9693 67.7622 70.7437 67.762 70.5129C67.762 70.204 67.6393 69.9077 67.4208 69.6893C67.2024 69.4709 66.9061 69.3481 66.5972 69.3481Z" fill="#537599"/>
<path d="M57.0434 73.0769C57.0434 73.324 57.1416 73.561 57.3163 73.7358C57.4911 73.9105 57.7281 74.0087 57.9752 74.0087C58.2224 74.0087 58.4594 73.9105 58.6342 73.7358C58.8089 73.561 58.9071 73.324 58.9071 73.0769C58.9071 72.8297 58.8089 72.5927 58.6342 72.4179C58.4594 72.2432 58.2224 72.145 57.9752 72.145C57.7281 72.145 57.4911 72.2432 57.3163 72.4179C57.1416 72.5927 57.0434 72.8297 57.0434 73.0769Z" fill="#D1E7FF"/>
<path d="M68.2278 73.0769C68.2278 73.324 68.326 73.561 68.5008 73.7358C68.6755 73.9105 68.9125 74.0087 69.1597 74.0087C69.4068 74.0087 69.6438 73.9105 69.8186 73.7358C69.9934 73.561 70.0915 73.324 70.0915 73.0769C70.0915 72.8297 69.9934 72.5927 69.8186 72.4179C69.6438 72.2432 69.4068 72.145 69.1597 72.145C68.9125 72.145 68.6755 72.2432 68.5008 72.4179C68.326 72.5927 68.2278 72.8297 68.2278 73.0769Z" fill="#D1E7FF"/>
<path d="M61.2405 75.9581C61.9306 76.4182 62.7414 76.6637 63.5708 76.6637C64.4002 76.6637 65.211 76.4182 65.901 75.9581" stroke="#537599" stroke-width="1.28" stroke-linecap="round" stroke-linejoin="round"/>
<path d="M58.4309 65.1523C62.518 69.1203 69.567 68.4624 73.8115 67.0275C73.8096 64.3083 72.7276 61.7012 70.8035 59.7797C68.8794 57.8583 66.2708 56.7799 63.5516 56.7817C60.8324 56.7836 58.2253 57.8656 56.3038 59.7897C54.3823 61.7138 53.3039 64.3224 53.3058 67.0416V70.2787C53.3058 70.2787 58.4258 68.9987 58.4258 65.1587" fill="white"/>
<path d="M58.4309 65.1523C62.518 69.1203 69.567 68.4624 73.8115 67.0275C73.8096 64.3083 72.7276 61.7012 70.8035 59.7797C68.8794 57.8583 66.2708 56.7799 63.5516 56.7817C60.8324 56.7836 58.2253 57.8656 56.3038 59.7897C54.3823 61.7138 53.3039 64.3224 53.3058 67.0416V70.2787C53.3058 70.2787 58.4258 68.9987 58.4258 65.1587" stroke="#537599" stroke-width="1.28" stroke-linecap="round" stroke-linejoin="round"/>
<path d="M58.4309 65.1522C57.9586 64.694 57.8908 64.7682 57.5068 64.1794" stroke="#537599" stroke-width="1.28" stroke-linecap="round" stroke-linejoin="round"/>
<path d="M50.8572 75.8722H53.5976C53.7674 75.8722 53.9302 75.8047 54.0502 75.6847C54.1702 75.5647 54.2376 75.4019 54.2376 75.2322V67.1925C54.2376 67.0228 54.1702 66.86 54.0502 66.7399C53.9302 66.6199 53.7674 66.5525 53.5976 66.5525H50.8572C50.5177 66.5525 50.1921 66.6873 49.9521 66.9274C49.712 67.1674 49.5771 67.493 49.5771 67.8325V74.5922C49.5771 74.9317 49.712 75.2572 49.9521 75.4973C50.1921 75.7373 50.5177 75.8722 50.8572 75.8722Z" fill="#D1E7FF" stroke="#537599" stroke-width="1.28" stroke-linecap="round" stroke-linejoin="round"/>
<path d="M76.2599 75.8722H73.5322C73.3625 75.8722 73.1997 75.8047 73.0797 75.6847C72.9596 75.5647 72.8922 75.4019 72.8922 75.2322V67.1925C72.8922 67.0228 72.9596 66.86 73.0797 66.7399C73.1997 66.6199 73.3625 66.5525 73.5322 66.5525H76.2599C76.5994 66.5525 76.925 66.6873 77.165 66.9274C77.4051 67.1674 77.5399 67.493 77.5399 67.8325V74.5922C77.5399 74.9317 77.4051 75.2572 77.165 75.4973C76.925 75.7373 76.5994 75.8722 76.2599 75.8722Z" fill="#D1E7FF" stroke="#537599" stroke-width="1.28" stroke-linecap="round" stroke-linejoin="round"/>
<path d="M20.9691 39.4831C24.6166 39.6592 28.117 40.9756 30.9766 43.2467C33.8363 45.5179 35.9111 48.6292 36.9085 52.1422C37.9059 55.6551 37.7757 59.3925 36.5362 62.8275C35.2966 66.2625 33.0103 69.2219 29.9995 71.2885C30.5723 73.8377 31.8929 76.158 33.7922 77.9522C33.8788 78.0352 33.9378 78.1429 33.9612 78.2606C33.9846 78.3783 33.9712 78.5004 33.9228 78.6102C33.8745 78.7201 33.7935 78.8124 33.6909 78.8746C33.5883 78.9369 33.469 78.9661 33.3493 78.9583C27.6059 78.6191 24.2305 76.7208 21.9675 74.2607C19.5762 74.5158 17.158 74.2738 14.8647 73.5499C12.5715 72.8259 10.4526 71.6357 8.6412 70.0539C6.82979 68.4722 5.36496 66.533 4.33867 64.3582C3.31238 62.1833 2.7468 59.8198 2.67743 57.416C2.60806 55.0122 3.0364 52.6199 3.93556 50.3895C4.83472 48.1591 6.18528 46.1387 7.90245 44.4551C9.61962 42.7715 11.6663 41.4611 13.914 40.6061C16.1617 39.7512 18.562 39.3701 20.9639 39.4869L20.9691 39.4831Z" fill="white" stroke="#537599" stroke-width="1.28" stroke-linecap="round" stroke-linejoin="round"/>
<path d="M49.4607 6.3324C53.3318 6.51842 57.0469 7.91482 60.0822 10.3247C63.1174 12.7346 65.3196 16.0364 66.3784 19.7646C67.4371 23.4927 67.2989 27.4592 65.9833 31.1046C64.6677 34.7501 62.241 37.8906 59.0454 40.0834C59.6551 42.788 61.0581 45.2491 63.0748 47.1516C63.1667 47.2397 63.2293 47.3539 63.254 47.4788C63.2788 47.6037 63.2646 47.7331 63.2133 47.8496C63.1621 47.9662 63.0762 48.0641 62.9674 48.1302C62.8586 48.1963 62.7321 48.2273 62.6051 48.2191C56.5097 47.8594 52.9282 45.8447 50.5257 43.2335C47.9879 43.5046 45.4215 43.2481 42.9876 42.4801C40.5537 41.7121 38.3049 40.4491 36.3824 38.7705C34.4599 37.092 32.9052 35.034 31.8159 32.726C30.7267 30.4179 30.1264 27.9096 30.0527 25.3584C29.9791 22.8073 30.4338 20.2685 31.3881 17.9015C32.3424 15.5344 33.7759 13.3903 35.5984 11.6036C37.4209 9.81696 39.5931 8.42642 41.9787 7.51931C44.3642 6.61219 46.9116 6.2081 49.4607 6.3324Z" fill="white" stroke="#537599" stroke-width="1.28" stroke-linecap="round" stroke-linejoin="round"/>
<path d="M37.2917 23.6791C37.2917 26.5785 38.4435 29.3593 40.4937 31.4095C42.544 33.4597 45.3247 34.6115 48.2242 34.6115C51.1237 34.6115 53.9044 33.4597 55.9547 31.4095C58.0049 29.3593 59.1567 26.5785 59.1567 23.6791C59.1567 20.7796 58.0049 17.9989 55.9547 15.9486C53.9044 13.8984 51.1237 12.7466 48.2242 12.7466C45.3247 12.7466 42.544 13.8984 40.4937 15.9486C38.4435 17.9989 37.2917 20.7796 37.2917 23.6791Z" fill="#D1E7FF" stroke="#537599" stroke-width="1.28" stroke-linecap="round" stroke-linejoin="round"/>
<path d="M37.2917 23.6791C37.2917 26.5785 38.4435 29.3593 40.4937 31.4095C42.544 33.4597 45.3247 34.6115 48.2242 34.6115C51.1237 34.6115 53.9044 33.4597 55.9547 31.4095C58.0049 29.3593 59.1567 26.5785 59.1567 23.6791C59.1567 20.7796 58.0049 17.9989 55.9547 15.9486C53.9044 13.8984 51.1237 12.7466 48.2242 12.7466C45.3247 12.7466 42.544 13.8984 40.4937 15.9486C38.4435 17.9989 37.2917 20.7796 37.2917 23.6791Z" fill="#D1E7FF" stroke="#537599" stroke-width="1.28" stroke-linecap="round" stroke-linejoin="round"/>
<path d="M47.7596 30.7676C47.8194 30.8308 47.8914 30.8811 47.9713 30.9154C48.0512 30.9498 48.1372 30.9675 48.2242 30.9675C48.3112 30.9675 48.3972 30.9498 48.4771 30.9154C48.557 30.8811 48.629 30.8308 48.6888 30.7676L54.253 24.9603C54.7826 24.431 55.1323 23.7485 55.2524 23.0095C55.3726 22.2704 55.2571 21.5123 54.9225 20.8425C54.6695 20.3371 54.3 19.8989 53.8445 19.5642C53.389 19.2295 52.8605 19.0078 52.3026 18.9173C51.7446 18.8268 51.1732 18.8701 50.6352 19.0437C50.0973 19.2173 49.6083 19.5162 49.2085 19.9158L48.2242 20.9001L47.2399 19.9158C46.8402 19.5162 46.3513 19.2173 45.8135 19.0437C45.2756 18.8701 44.7043 18.8268 44.1464 18.9172C43.5885 19.0077 43.0601 19.2295 42.6048 19.5642C42.1494 19.899 41.7801 20.3371 41.5272 20.8425C41.1922 21.5121 41.0764 22.2702 41.1964 23.0093C41.3163 23.7484 41.6658 24.431 42.1954 24.9603L47.7596 30.7676Z" fill="#D1E7FF" stroke="#537599" stroke-width="1.28" stroke-linecap="round" stroke-linejoin="round"/>
<path d="M47.7596 30.7676C47.8194 30.8308 47.8914 30.8811 47.9713 30.9154C48.0512 30.9498 48.1372 30.9675 48.2242 30.9675C48.3112 30.9675 48.3972 30.9498 48.4771 30.9154C48.557 30.8811 48.629 30.8308 48.6888 30.7676L54.253 24.9603C54.7826 24.431 55.1323 23.7485 55.2524 23.0095C55.3726 22.2704 55.2571 21.5123 54.9225 20.8425C54.6695 20.3371 54.3 19.8989 53.8445 19.5642C53.389 19.2295 52.8605 19.0078 52.3026 18.9173C51.7446 18.8268 51.1732 18.8701 50.6352 19.0437C50.0973 19.2173 49.6083 19.5162 49.2085 19.9158L48.2242 20.9001L47.2399 19.9158C46.8402 19.5162 46.3513 19.2173 45.8135 19.0437C45.2756 18.8701 44.7043 18.8268 44.1464 18.9172C43.5885 19.0077 43.0601 19.2295 42.6048 19.5642C42.1494 19.899 41.7801 20.3371 41.5272 20.8425C41.1922 21.5121 41.0764 22.2702 41.1964 23.0093C41.3163 23.7484 41.6658 24.431 42.1954 24.9603L47.7596 30.7676Z" fill="white" stroke="#537599" stroke-width="1.28" stroke-linecap="round" stroke-linejoin="round"/>
<path d="M10.6138 56.3062C10.6138 58.8258 11.6147 61.2422 13.3964 63.0238C15.178 64.8054 17.5944 65.8063 20.114 65.8063C22.6336 65.8063 25.05 64.8054 26.8317 63.0238C28.6133 61.2422 29.6142 58.8258 29.6142 56.3062C29.6142 53.7866 28.6133 51.3702 26.8317 49.5886C25.05 47.8069 22.6336 46.806 20.114 46.806C17.5944 46.806 15.178 47.8069 13.3964 49.5886C11.6147 51.3702 10.6138 53.7866 10.6138 56.3062Z" fill="white" stroke="#537599" stroke-width="1.28" stroke-linecap="round" stroke-linejoin="round"/>
<path d="M14.4141 56.6324C14.4141 56.8483 14.4999 57.0554 14.6526 57.2081C14.8052 57.3608 15.0123 57.4465 15.2282 57.4465C15.4441 57.4465 15.6512 57.3608 15.8039 57.2081C15.9565 57.0554 16.0423 56.8483 16.0423 56.6324C16.0423 56.4165 15.9565 56.2095 15.8039 56.0568C15.6512 55.9041 15.4441 55.8184 15.2282 55.8184C15.0123 55.8184 14.8052 55.9041 14.6526 56.0568C14.4999 56.2095 14.4141 56.4165 14.4141 56.6324Z" fill="#D1E7FF"/>
<path d="M24.4327 56.6518C24.4327 56.7653 24.4551 56.8777 24.4985 56.9825C24.5419 57.0873 24.6056 57.1826 24.6858 57.2628C24.766 57.343 24.8613 57.4067 24.9661 57.4501C25.0709 57.4935 25.1833 57.5158 25.2967 57.5158C25.4102 57.5158 25.5226 57.4935 25.6274 57.4501C25.7322 57.4067 25.8275 57.343 25.9077 57.2628C25.9879 57.1826 26.0516 57.0873 26.095 56.9825C26.1384 56.8777 26.1607 56.7653 26.1607 56.6518C26.1607 56.5384 26.1384 56.426 26.095 56.3212C26.0516 56.2164 25.9879 56.1211 25.9077 56.0409C25.8275 55.9607 25.7322 55.897 25.6274 55.8536C25.5226 55.8102 25.4102 55.7878 25.2967 55.7878C25.1833 55.7878 25.0709 55.8102 24.9661 55.8536C24.8613 55.897 24.766 55.9607 24.6858 56.0409C24.6056 56.1211 24.5419 56.2164 24.4985 56.3212C24.4551 56.426 24.4327 56.5384 24.4327 56.6518Z" fill="#D1E7FF"/>
<path d="M16.6605 58.8969C16.6605 59.8134 17.0246 60.6925 17.6728 61.3406C18.3209 61.9887 19.1999 62.3529 20.1165 62.3529C21.0331 62.3529 21.9122 61.9887 22.5603 61.3406C23.2084 60.6925 23.5725 59.8134 23.5725 58.8969H16.6605Z" fill="#D1E7FF" stroke="#537599" stroke-width="1.28" stroke-linecap="round" stroke-linejoin="round"/>
<path d="M16.4865 51.7008L17.9188 53.4749L16.2523 54.7408" stroke="#537599" stroke-width="1.28" stroke-linecap="round" stroke-linejoin="round"/>
<path d="M23.7428 51.7008L22.3105 53.4749L23.9771 54.7408" stroke="#537599" stroke-width="1.28" stroke-linecap="round" stroke-linejoin="round"/>
<path d="M99.9003 16.6492C94.8303 16.8932 89.9647 18.7223 85.9896 21.8787C82.0145 25.0352 79.1304 29.3597 77.7439 34.2425C76.3575 39.1253 76.5386 44.3202 78.2618 49.0946C79.985 53.869 83.1633 57.9821 87.3485 60.854C86.5492 64.3965 84.7112 67.62 82.0698 70.1123C81.9501 70.228 81.8687 70.3777 81.8367 70.5412C81.8047 70.7046 81.8236 70.8739 81.8909 71.0263C81.9581 71.1787 82.0705 71.3067 82.2128 71.3932C82.3551 71.4797 82.5206 71.5205 82.6868 71.51C90.6689 71.039 95.3588 68.3996 98.5063 64.982C99.3567 65.0726 100.211 65.1187 101.066 65.1203C104.302 65.1234 107.506 64.4788 110.489 63.2247C113.471 61.9705 116.173 60.1321 118.434 57.8176C120.696 55.5032 122.471 52.7597 123.656 49.7486C124.84 46.7375 125.41 43.5197 125.332 40.2849C125.254 37.0501 124.529 33.8637 123.2 30.9133C121.872 27.9629 119.966 25.3083 117.596 23.1058C115.225 20.9033 112.438 19.1975 109.398 18.0888C106.358 16.9802 103.127 16.4912 99.8952 16.6505L99.9003 16.6492Z" fill="white" stroke="#537599" stroke-width="1.28" stroke-linecap="round" stroke-linejoin="round"/>
<path d="M88.5273 36.6659H96.6822V49.3072H88.5273V36.6659Z" fill="#D1E7FF" stroke="#537599" stroke-width="1.28" stroke-linecap="round" stroke-linejoin="round"/>
<path d="M109.036 36.2574C108.653 36.2575 108.285 36.1074 108.011 35.8393C107.738 35.5713 107.58 35.2067 107.573 34.8238C107.51 31.5316 106.421 26.6753 104.228 26.6753C102.374 26.6753 101.953 27.6583 101.953 29.1214C101.953 33.6014 100.447 38.2964 96.6835 38.2964V47.6763H97.1648C99.5175 47.6763 100.63 49.307 104.845 49.307H110.568C111.464 49.307 111.94 48.539 112.198 47.6763C112.511 46.6292 116.06 38.7892 116.06 37.8894C116.06 37.4565 115.888 37.0414 115.582 36.7354C115.276 36.4293 114.861 36.2574 114.428 36.2574H109.036Z" fill="white" stroke="#537599" stroke-width="1.28" stroke-linecap="round" stroke-linejoin="round"/>
</svg>
