<svg width="128" height="128" viewBox="0 0 128 128" fill="none" xmlns="http://www.w3.org/2000/svg">
<path d="M28.0452 106.021C18.5633 96.5389 13.2365 83.6788 13.2365 70.2695C13.2365 56.8601 18.5633 44 28.0452 34.5181C37.527 25.0363 50.3871 19.7095 63.7965 19.7095C77.2058 19.7095 90.066 25.0363 99.5478 34.5181C109.03 44 114.356 56.8601 114.356 70.2695C114.356 83.6788 109.03 96.5389 99.5478 106.021C90.066 115.503 77.2058 120.829 63.7965 120.829C50.3871 120.829 37.527 115.503 28.0452 106.021Z" fill="#D1E7FF" stroke="#537599" stroke-width="1.28"/>
<path d="M72.3738 6.59973V13.2621C72.3738 13.5337 72.2659 13.7942 72.0738 13.9862C71.8818 14.1782 71.6213 14.2861 71.3498 14.2861H54.1222C53.8507 14.2861 53.5902 14.1782 53.3982 13.9862C53.2061 13.7942 53.0982 13.5337 53.0982 13.2621V6.59973" fill="#D1E7FF"/>
<path d="M72.3738 6.59973V13.2621C72.3738 13.5337 72.2659 13.7942 72.0738 13.9862C71.8818 14.1782 71.6213 14.2861 71.3498 14.2861H54.1222C53.8507 14.2861 53.5902 14.1782 53.3982 13.9862C53.2061 13.7942 53.0982 13.5337 53.0982 13.2621V6.59973" stroke="#537599" stroke-width="1.28" stroke-linecap="round" stroke-linejoin="round"/>
<path d="M97.111 59.7402H29.879C29.2001 59.7402 28.5489 60.0099 28.0689 60.49C27.5888 60.9701 27.319 61.6213 27.319 62.3002V105.673H99.671V62.3002C99.671 61.6213 99.4013 60.9701 98.9212 60.49C98.4411 60.0099 97.79 59.7402 97.111 59.7402Z" fill="#F3F9FF" stroke="#537599" stroke-width="1.28" stroke-linecap="round" stroke-linejoin="round"/>
<path d="M94.5638 64.8474H32.4979L32.4262 105.673H94.5638V64.8474Z" fill="#D1E7FF"/>
<path d="M94.5638 64.8474H32.4979L32.4262 105.673H94.5638V64.8474Z" stroke="#537599" stroke-width="1.28" stroke-linecap="round" stroke-linejoin="round"/>
<path opacity="0.15" d="M24.3405 115.887C24.3405 116.223 25.3973 116.555 27.4506 116.865C29.5039 117.174 32.5134 117.456 36.3074 117.693C40.1014 117.93 44.6055 118.118 49.5626 118.247C54.5196 118.375 59.8326 118.441 65.1981 118.441C70.5636 118.441 75.8765 118.375 80.8336 118.247C85.7907 118.118 90.2948 117.93 94.0888 117.693C97.8828 117.456 100.892 117.174 102.946 116.865C104.999 116.555 106.056 116.223 106.056 115.887C106.056 115.552 104.999 115.22 102.946 114.91C100.892 114.6 97.8828 114.319 94.0888 114.082C90.2948 113.845 85.7907 113.657 80.8336 113.528C75.8765 113.4 70.5636 113.334 65.1981 113.334C59.8326 113.334 54.5196 113.4 49.5626 113.528C44.6055 113.657 40.1014 113.845 36.3074 114.082C32.5134 114.319 29.5039 114.6 27.4506 114.91C25.3973 115.22 24.3405 115.552 24.3405 115.887Z" fill="#537599"/>
<path d="M106.056 110.78H20.9357V106.953C20.9357 106.613 21.0705 106.288 21.3106 106.048C21.5506 105.808 21.8762 105.673 22.2157 105.673H104.776C105.115 105.673 105.441 105.808 105.681 106.048C105.921 106.288 106.056 106.613 106.056 106.953V110.78Z" fill="#F3F9FF" stroke="#537599" stroke-width="1.28" stroke-linecap="round" stroke-linejoin="round"/>
<path d="M106.056 110.781C98.1498 113.039 89.9679 114.185 81.7459 114.185H45.2454C37.0234 114.185 28.8416 113.039 20.9357 110.781H106.056Z" fill="#F3F9FF" stroke="#537599" stroke-width="1.28" stroke-linecap="round" stroke-linejoin="round"/>
<path d="M77.8022 42.368C77.8005 40.8839 77.2103 39.461 76.161 38.4114C75.1117 37.3619 73.6889 36.7713 72.2048 36.7693H53.9354C52.451 36.771 51.0279 37.3614 49.9783 38.411C48.9287 39.4606 48.3383 40.8837 48.3366 42.368V56.5146H53.2083V42.368C53.213 42.0069 53.3585 41.6619 53.6139 41.4065C53.8692 41.1511 54.2142 41.0056 54.5754 41.001H71.5648C71.9258 41.0056 72.2707 41.1512 72.5258 41.4066C72.781 41.662 72.9262 42.007 72.9306 42.368V56.5146H77.8022V42.368Z" fill="#D1E7FF" stroke="#537599" stroke-width="1.28" stroke-linecap="round" stroke-linejoin="round"/>
<path d="M85.632 101.783H41.3568C41.1419 101.783 40.9291 101.74 40.7315 101.655C40.5339 101.57 40.3556 101.447 40.2073 101.291C40.059 101.135 39.9438 100.951 39.8688 100.75C39.7938 100.548 39.7605 100.334 39.7709 100.119L42.1402 52.8257C42.1605 52.5032 42.302 52.2004 42.5363 51.978C42.7707 51.7555 43.0804 51.6299 43.4035 51.6263H84.1805C84.5073 51.6299 84.8204 51.7584 85.0556 51.9855C85.2907 52.2125 85.4301 52.5209 85.4451 52.8475L87.2205 100.14C87.2281 100.353 87.1926 100.565 87.1161 100.765C87.0397 100.964 86.9238 101.146 86.7755 101.299C86.6273 101.452 86.4496 101.574 86.2531 101.658C86.0566 101.741 85.8454 101.783 85.632 101.783Z" fill="#F3F9FF"/>
<path d="M85.632 101.783H41.3568C41.1419 101.783 40.9291 101.74 40.7315 101.655C40.5339 101.57 40.3556 101.447 40.2073 101.291C40.059 101.135 39.9438 100.951 39.8688 100.75C39.7938 100.548 39.7605 100.334 39.7709 100.119L42.1402 52.8257C42.1605 52.5032 42.302 52.2004 42.5363 51.978C42.7707 51.7555 43.0804 51.6299 43.4035 51.6263H84.1805C84.5073 51.6299 84.8204 51.7584 85.0556 51.9855C85.2907 52.2125 85.4301 52.5209 85.4451 52.8475L87.2205 100.14C87.2281 100.353 87.1926 100.565 87.1161 100.765C87.0397 100.964 86.9238 101.146 86.7755 101.299C86.6273 101.452 86.4496 101.574 86.2531 101.658C86.0566 101.741 85.8454 101.783 85.632 101.783Z" stroke="#537599" stroke-width="1.28" stroke-linecap="round" stroke-linejoin="round"/>
<path d="M54.345 14.2836V16.992C54.345 17.2636 54.4528 17.5241 54.6449 17.7161C54.8369 17.9082 55.0974 18.016 55.369 18.016H70.1094C70.381 18.016 70.6415 17.9082 70.8335 17.7161C71.0255 17.5241 71.1334 17.2636 71.1334 16.992V14.2836H54.345Z" fill="#F3F9FF" stroke="#537599" stroke-width="1.28" stroke-linecap="round" stroke-linejoin="round"/>
<path d="M72.9869 42.0532V40.2343H74.9888C75.83 40.2335 76.6625 40.4033 77.4362 40.7335C77.4582 40.5547 77.4693 40.3748 77.4694 40.1946V34.4423C77.4694 23.1258 69.8803 25.1866 69.8803 18.0199H55.5802V21.4401C55.5802 25.1021 53.0931 26.2247 53.0931 32.6311V42.889C53.0931 43.5486 53.3552 44.1812 53.8216 44.6476C54.288 45.114 54.9206 45.3761 55.5802 45.3761C56.2398 45.3761 56.8724 45.114 57.3388 44.6476C57.8052 44.1812 58.0672 43.5486 58.0672 42.889V44.1332C58.0672 44.7928 58.3292 45.4254 58.7956 45.8918C59.262 46.3582 59.8946 46.6202 60.5542 46.6202C61.2138 46.6202 61.8464 46.3582 62.3128 45.8918C62.7793 45.4254 63.0413 44.7928 63.0413 44.1332V45.3761C63.0413 46.0357 63.3033 46.6683 63.7697 47.1347C64.2361 47.6011 64.8687 47.8631 65.5283 47.8631C66.1879 47.8631 66.8205 47.6011 67.2869 47.1347C67.7533 46.6683 68.0154 46.0357 68.0154 45.3761V46.153C68.0078 46.4843 68.0666 46.8137 68.1882 47.122C68.3098 47.4302 68.4917 47.711 68.7233 47.948C68.955 48.1849 69.2316 48.3732 69.537 48.5017C69.8424 48.6303 70.1704 48.6965 70.5018 48.6965C70.8331 48.6965 71.1611 48.6303 71.4665 48.5017C71.7719 48.3732 72.0486 48.1849 72.2802 47.948C72.5118 47.711 72.6938 47.4302 72.8153 47.122C72.9369 46.8137 72.9957 46.4843 72.9882 46.153V42.057L72.9869 42.0532Z" fill="#F3F9FF"/>
<path d="M72.9869 42.0532V40.2343H74.9888C75.83 40.2335 76.6625 40.4033 77.4362 40.7335C77.4582 40.5547 77.4693 40.3748 77.4694 40.1946V34.4423C77.4694 23.1258 69.8803 25.1866 69.8803 18.0199H55.5802V21.4401C55.5802 25.1021 53.0931 26.2247 53.0931 32.6311V42.889C53.0931 43.5486 53.3552 44.1812 53.8216 44.6476C54.288 45.114 54.9206 45.3761 55.5802 45.3761C56.2398 45.3761 56.8724 45.114 57.3388 44.6476C57.8052 44.1812 58.0672 43.5486 58.0672 42.889V44.1332C58.0672 44.7928 58.3292 45.4254 58.7956 45.8918C59.262 46.3582 59.8946 46.6202 60.5542 46.6202C61.2138 46.6202 61.8464 46.3582 62.3128 45.8918C62.7793 45.4254 63.0413 44.7928 63.0413 44.1332V45.3761C63.0413 46.0357 63.3033 46.6683 63.7697 47.1347C64.2361 47.6011 64.8687 47.8631 65.5283 47.8631C66.1879 47.8631 66.8205 47.6011 67.2869 47.1347C67.7533 46.6683 68.0154 46.0357 68.0154 45.3761V46.153C68.0078 46.4843 68.0666 46.8137 68.1882 47.122C68.3098 47.4302 68.4917 47.711 68.7233 47.948C68.955 48.1849 69.2316 48.3732 69.537 48.5017C69.8424 48.6303 70.1704 48.6965 70.5018 48.6965C70.8331 48.6965 71.1611 48.6303 71.4665 48.5017C71.7719 48.3732 72.0486 48.1849 72.2802 47.948C72.5118 47.711 72.6938 47.4302 72.8154 47.122C72.9369 46.8137 72.9957 46.4843 72.9882 46.153V42.057L72.9869 42.0532Z" stroke="#537599" stroke-width="1.28" stroke-linecap="round" stroke-linejoin="round"/>
<path d="M72.9984 34.7969L72.9933 42.9902" stroke="#537599" stroke-width="1.28" stroke-linecap="round" stroke-linejoin="round"/>
<path d="M63.0413 41.4387V44.1331V41.4387Z" fill="#FFCEBF"/>
<path d="M63.0413 41.4387V44.1331" stroke="#537599" stroke-width="1.28" stroke-linecap="round" stroke-linejoin="round"/>
<path d="M68.0154 41.6461V45.376V41.6461Z" fill="#FFCEBF"/>
<path d="M68.0154 41.6461V45.376" stroke="#537599" stroke-width="1.28" stroke-linecap="round" stroke-linejoin="round"/>
<path d="M58.0672 41.4387V42.889V41.4387Z" fill="#FFCEBF"/>
<path d="M58.0672 41.4387V42.889" stroke="#537599" stroke-width="1.28" stroke-linecap="round" stroke-linejoin="round"/>
<path d="M52.6157 72.1895C52.6157 72.6987 52.818 73.1871 53.178 73.5472C53.5381 73.9072 54.0265 74.1095 54.5357 74.1095C55.0449 74.1095 55.5333 73.9072 55.8933 73.5472C56.2534 73.1871 56.4557 72.6987 56.4557 72.1895C56.4557 71.6803 56.2534 71.192 55.8933 70.8319C55.5333 70.4718 55.0449 70.2695 54.5357 70.2695C54.0265 70.2695 53.5381 70.4718 53.178 70.8319C52.818 71.192 52.6157 71.6803 52.6157 72.1895Z" fill="#537599"/>
<path d="M70.5357 72.1895C70.5357 72.6987 70.738 73.1871 71.098 73.5472C71.4581 73.9072 71.9465 74.1095 72.4557 74.1095C72.9649 74.1095 73.4533 73.9072 73.8133 73.5472C74.1734 73.1871 74.3757 72.6987 74.3757 72.1895C74.3757 71.6803 74.1734 71.192 73.8133 70.8319C73.4533 70.4718 72.9649 70.2695 72.4557 70.2695C71.9465 70.2695 71.4581 70.4718 71.098 70.8319C70.738 71.192 70.5357 71.6803 70.5357 72.1895Z" fill="#537599"/>
<path d="M55.1859 79.8439C59.776 86.4909 67.2179 86.4909 71.8042 79.8439H55.1859Z" fill="#D1E7FF" stroke="#537599" stroke-width="1.28" stroke-linecap="round" stroke-linejoin="round"/>
<path d="M72.9997 51.6237H77.8022V42.368C77.7986 41.024 77.3109 39.7264 76.4284 38.7127C75.5459 37.699 74.3278 37.0373 72.9971 36.8486V42.3373C72.9971 42.3475 72.9971 42.3565 72.9971 42.368L72.9997 51.6237Z" fill="#D1E7FF" stroke="#537599" stroke-width="1.28" stroke-linecap="round" stroke-linejoin="round"/>
</svg>
