<svg width="128" height="128" viewBox="0 0 128 128" fill="none" xmlns="http://www.w3.org/2000/svg">
<path d="M25.8615 99.7513C16.3796 90.2695 11.0528 77.4093 11.0528 64C11.0528 50.5906 16.3796 37.7305 25.8615 28.2487C35.3433 18.7668 48.2035 13.44 61.6128 13.44C75.0221 13.44 87.8823 18.7668 97.3641 28.2487C106.846 37.7305 112.173 50.5906 112.173 64C112.173 77.4093 106.846 90.2695 97.3641 99.7513C87.8823 109.233 75.0221 114.56 61.6128 114.56C48.2035 114.56 35.3433 109.233 25.8615 99.7513Z" fill="#D1E7FF" stroke="#537599" stroke-width="1.28"/>
<path d="M88.3354 93.1686V93.1689C88.3356 93.8529 88.0645 94.5091 87.5814 94.9933C87.0983 95.4776 86.4427 95.7503 85.7587 95.7517H38.016C37.3309 95.7517 36.6739 95.4795 36.1895 94.9951C35.7051 94.5107 35.433 93.8537 35.433 93.1686V31.36C35.433 30.6386 35.7195 29.9468 36.2296 29.4367C36.7397 28.9266 37.4316 28.64 38.153 28.64H85.6154C86.3368 28.64 87.0286 28.9266 87.5387 29.4367C88.0488 29.9468 88.3354 30.6386 88.3354 31.36V93.1686Z" fill="#D1E7FF" stroke="#537599" stroke-width="1.28"/>
<path d="M85.76 96.3917H38.016C37.1612 96.3917 36.3414 96.0521 35.737 95.4477C35.1325 94.8432 34.793 94.0234 34.793 93.1686V31.36C34.793 30.4689 35.147 29.6142 35.7771 28.9841C36.4072 28.354 37.2618 28 38.153 28H85.6154C86.5065 28 87.3611 28.354 87.9912 28.9841C88.6214 29.6142 88.9754 30.4689 88.9754 31.36V93.1686C88.9757 94.0222 88.6373 94.841 88.0344 95.4453C87.4316 96.0496 86.6136 96.39 85.76 96.3917Z" stroke="#537599" stroke-width="1.28" stroke-linecap="round" stroke-linejoin="round"/>
<path d="M40.1242 33.3273H83.6467V91.0617H40.1242V33.3273Z" fill="#F3F9FF"/>
<path d="M83.6467 53.1059L71.008 66.8019C70.211 67.6679 69.7902 68.8149 69.8382 69.9909C69.8862 71.1669 70.399 72.2757 71.264 73.0739C71.8067 73.5742 72.4672 73.9291 73.184 74.1056L69.0752 78.2157L69.7037 78.8441L64.1536 84.3929C63.9051 84.6403 63.7353 84.9556 63.6654 85.2992C63.5955 85.6428 63.6287 85.9994 63.7608 86.3242C63.8929 86.649 64.118 86.9275 64.4079 87.1248C64.6978 87.322 65.0395 87.4292 65.3901 87.4329C65.5191 87.4326 65.6477 87.4194 65.7741 87.3933C70.6381 86.359 73.1123 84.8653 73.1405 82.9478L73.4758 82.6112L74.7328 83.8681L77.824 80.768C78.0431 80.9433 78.2779 81.098 78.5254 81.2301C79.3428 81.6652 80.2757 81.8339 81.1938 81.7128C82.1118 81.5916 82.969 81.1865 83.6454 80.5542L83.6467 53.1059Z" fill="#D1E7FF"/>
<path d="M40.1242 33.3273H83.6467V91.0617H40.1242V33.3273Z" stroke="#537599" stroke-width="1.28" stroke-linecap="round" stroke-linejoin="round"/>
<path d="M46.3283 47.5392H73.4682" stroke="#537599" stroke-width="1.28" stroke-linecap="round" stroke-linejoin="round"/>
<path d="M46.3283 55.5328H73.4682" stroke="#537599" stroke-width="1.28" stroke-linecap="round" stroke-linejoin="round"/>
<path d="M46.3283 64.416H65.2442" stroke="#537599" stroke-width="1.28" stroke-linecap="round" stroke-linejoin="round"/>
<path d="M49.7293 25.3337H74.0416C74.4681 25.3351 74.8767 25.5055 75.1778 25.8076C75.4789 26.1096 75.648 26.5187 75.648 26.9453V35.2653C75.648 35.693 75.4781 36.1032 75.1756 36.4057C74.8732 36.7081 74.4629 36.8781 74.0352 36.8781H49.7306C49.3028 36.8781 48.8926 36.7081 48.5901 36.4057C48.2877 36.1032 48.1178 35.693 48.1178 35.2653V26.9453C48.1178 26.5179 48.2875 26.108 48.5898 25.8057C48.892 25.5035 49.3019 25.3337 49.7293 25.3337Z" fill="#F3F9FF"/>
<path d="M49.7293 25.3337H74.0416C74.4681 25.3351 74.8767 25.5055 75.1778 25.8076C75.4789 26.1096 75.648 26.5187 75.648 26.9453V35.2653C75.648 35.693 75.4781 36.1032 75.1756 36.4057C74.8732 36.7081 74.4629 36.8781 74.0352 36.8781H49.7306C49.3028 36.8781 48.8926 36.7081 48.5901 36.4057C48.2877 36.1032 48.1178 35.693 48.1178 35.2653V26.9453C48.1178 26.5179 48.2875 26.108 48.5898 25.8057C48.892 25.5035 49.3019 25.3337 49.7293 25.3337Z" stroke="#537599" stroke-width="1.28" stroke-linecap="round" stroke-linejoin="round"/>
<path d="M54.3347 33.3273H69.4349" stroke="#537599" stroke-width="1.28" stroke-linecap="round" stroke-linejoin="round"/>
<path d="M57.888 24.4454C57.888 25.0287 58.0029 25.6063 58.2261 26.1452C58.4493 26.6841 58.7765 27.1737 59.1889 27.5861C59.6014 27.9986 60.091 28.3257 60.6299 28.5489C61.1688 28.7722 61.7463 28.887 62.3296 28.887C62.9129 28.887 63.4904 28.7722 64.0293 28.5489C64.5682 28.3257 65.0578 27.9986 65.4703 27.5861C65.8827 27.1737 66.2099 26.6841 66.4331 26.1452C66.6563 25.6063 66.7712 25.0287 66.7712 24.4454C66.7712 23.8622 66.6563 23.2846 66.4331 22.7457C66.2099 22.2068 65.8827 21.7172 65.4703 21.3048C65.0578 20.8923 64.5682 20.5652 64.0293 20.3419C63.4904 20.1187 62.9129 20.0038 62.3296 20.0038C61.7463 20.0038 61.1688 20.1187 60.6299 20.3419C60.091 20.5652 59.6014 20.8923 59.1889 21.3048C58.7765 21.7172 58.4493 22.2068 58.2261 22.7457C58.0029 23.2846 57.888 23.8622 57.888 24.4454Z" fill="#F3F9FF"/>
<path d="M57.888 24.4454C57.888 25.0287 58.0029 25.6063 58.2261 26.1452C58.4493 26.6841 58.7765 27.1737 59.1889 27.5861C59.6014 27.9986 60.091 28.3257 60.6299 28.5489C61.1688 28.7722 61.7463 28.887 62.3296 28.887C62.9129 28.887 63.4904 28.7722 64.0293 28.5489C64.5682 28.3257 65.0578 27.9986 65.4703 27.5861C65.8827 27.1737 66.2099 26.6841 66.4331 26.1452C66.6563 25.6063 66.7712 25.0287 66.7712 24.4454C66.7712 23.8622 66.6563 23.2846 66.4331 22.7457C66.2099 22.2068 65.8827 21.7172 65.4703 21.3048C65.0578 20.8923 64.5682 20.5652 64.0293 20.3419C63.4904 20.1187 62.9129 20.0038 62.3296 20.0038C61.7463 20.0038 61.1688 20.1187 60.6299 20.3419C60.091 20.5652 59.6014 20.8923 59.1889 21.3048C58.7765 21.7172 58.4493 22.2068 58.2261 22.7457C58.0029 23.2846 57.888 23.8622 57.888 24.4454Z" stroke="#537599" stroke-width="1.28" stroke-linecap="round" stroke-linejoin="round"/>
<path d="M80.585 63.863L96.1434 69.6665L102.688 59.1706L85.7715 54.6022L80.585 63.863Z" fill="#D1E7FF"/>
<path d="M105.389 81.5731L117.439 69.5232C117.486 69.4778 117.535 69.4351 117.587 69.3952C113.554 65.8957 112.559 58.4819 104.803 54.432C94.592 49.0995 81.9635 50.3718 70.871 64.224C70.6171 64.5255 70.4258 64.8746 70.3085 65.2509C70.1911 65.6272 70.15 66.0232 70.1876 66.4155C70.2252 66.8079 70.3407 67.1889 70.5273 67.5361C70.7139 67.8833 70.968 68.1898 71.2745 68.4376C71.5811 68.6854 71.934 68.8695 72.3126 68.9792C72.6912 69.0889 73.0879 69.122 73.4795 69.0765C73.871 69.031 74.2495 68.9078 74.5929 68.7141C74.9362 68.5205 75.2375 68.2603 75.479 67.9488C76.2146 67.0391 76.9536 66.1922 77.696 65.408C77.9569 65.6866 78.2695 65.9118 78.6163 66.071C90.2221 74.8582 92.5683 75.9744 95.4074 77.079C99.7978 78.7853 101.736 79.6096 104.964 82.5318C104.983 82.171 105.135 81.8299 105.389 81.5731ZM97.4374 62.8173C96.4596 64.0005 95.0989 64.8047 93.5909 65.0908C92.0828 65.3768 90.5221 65.1268 89.1789 64.384L82.3155 61.2454C86.3206 58.3142 90.3616 57.0906 94.3859 57.6154C97.8099 58.0557 98.6022 61.0842 97.4374 62.8173Z" fill="#F3F9FF"/>
<path d="M42.3373 106.675C42.3373 107.265 44.3667 107.83 47.9792 108.246C51.5917 108.663 56.4912 108.897 61.6 108.897C66.7088 108.897 71.6083 108.663 75.2208 108.246C78.8333 107.83 80.8627 107.265 80.8627 106.675C80.8627 106.086 78.8333 105.521 75.2208 105.104C71.6083 104.687 66.7088 104.453 61.6 104.453C56.4912 104.453 51.5917 104.687 47.9792 105.104C44.3667 105.521 42.3373 106.086 42.3373 106.675Z" fill="#D1E7FF"/>
<path d="M49.0394 73.6461C48.5801 74.105 48.2412 74.6701 48.0525 75.2914C47.8639 75.9126 47.8314 76.5708 47.9579 77.2076C48.0845 77.8444 48.3661 78.4402 48.7779 78.9421C49.1897 79.444 49.719 79.8367 50.3188 80.0852C50.9186 80.3337 51.5704 80.4304 52.2165 80.3668C52.8627 80.3032 53.4831 80.0812 54.023 79.7205C54.5628 79.3598 55.0053 78.8715 55.3113 78.2989C55.6173 77.7262 55.7774 77.087 55.7773 76.4377V77.2262C55.7688 77.6463 55.8443 78.0639 55.9992 78.4545C56.1541 78.8451 56.3854 79.2009 56.6795 79.501C56.9737 79.8011 57.3247 80.0395 57.7121 80.2023C58.0995 80.365 58.5155 80.4488 58.9357 80.4488C59.3559 80.4488 59.7719 80.365 60.1593 80.2023C60.5467 80.0395 60.8977 79.8011 61.1918 79.501C61.4859 79.2009 61.7172 78.8451 61.8722 78.4545C62.0271 78.0639 62.1025 77.6463 62.0941 77.2262C62.0941 78.0637 62.4268 78.8669 63.019 79.4591C63.6112 80.0513 64.4143 80.384 65.2518 80.384H67.6198" stroke="#537599" stroke-width="1.28" stroke-linecap="round" stroke-linejoin="round"/>
<path d="M88.2061 65.0739C88.5949 65.0947 88.9758 65.1919 89.3271 65.3599C89.6783 65.5279 89.993 65.7635 90.2532 66.0532C90.5134 66.3429 90.714 66.6809 90.8435 67.0481C90.973 67.4154 91.0289 67.8045 91.008 68.1933L90.487 77.8112C90.4659 78.1998 90.3685 78.5805 90.2003 78.9315C90.0321 79.2824 89.7964 79.5968 89.5067 79.8567C89.217 80.1166 88.8789 80.3169 88.5118 80.4461C88.1446 80.5754 87.7557 80.631 87.367 80.6099C86.9784 80.5888 86.5977 80.4914 86.2468 80.3232C85.8958 80.155 85.5814 79.9193 85.3215 79.6295C85.0616 79.3398 84.8613 79.0018 84.7321 78.6346C84.6029 78.2675 84.5472 77.8785 84.5683 77.4899L85.0893 67.8733C85.1316 67.0888 85.4837 66.3533 86.0682 65.8283C86.6526 65.3034 87.4216 65.0321 88.2061 65.0739Z" fill="#D1E7FF" stroke="#537599" stroke-width="1.28" stroke-linecap="round" stroke-linejoin="round"/>
<path d="M85.1443 64.1498C85.8379 64.5194 86.3562 65.1494 86.5855 65.9012C86.8147 66.6529 86.736 67.465 86.3667 68.1587L82.8301 75.0426C82.4606 75.7363 81.8306 76.2548 81.0788 76.484C80.3269 76.7133 79.5148 76.6345 78.8211 76.265C78.1274 75.8954 77.6089 75.2655 77.3796 74.5136C77.1504 73.7618 77.2292 72.9497 77.5987 72.256L81.1354 65.3722C81.505 64.6786 82.135 64.1602 82.8868 63.931C83.6385 63.7018 84.4505 63.7805 85.1443 64.1498Z" fill="#D1E7FF" stroke="#537599" stroke-width="1.28" stroke-linecap="round" stroke-linejoin="round"/>
<path d="M117.439 69.5232C117.486 69.4778 117.535 69.4351 117.587 69.3952C113.554 65.8957 112.559 58.4819 104.803 54.432C94.592 49.0995 81.9635 50.3718 70.871 64.224C70.6171 64.5255 70.4258 64.8746 70.3085 65.2509C70.1911 65.6272 70.15 66.0232 70.1876 66.4155C70.2252 66.8079 70.3407 67.1889 70.5273 67.5361C70.7139 67.8833 70.968 68.1898 71.2745 68.4376C71.5811 68.6854 71.934 68.8695 72.3126 68.9792C72.6912 69.0889 73.0879 69.122 73.4795 69.0765C73.871 69.031 74.2495 68.9078 74.5929 68.7141C74.9362 68.5205 75.2375 68.2603 75.479 67.9488C76.2146 67.0391 76.9536 66.1922 77.696 65.408C77.9569 65.6866 78.2695 65.9118 78.6163 66.071C90.2221 74.8582 92.5683 75.9744 95.4074 77.079C99.7978 78.7853 101.736 79.6096 104.964 82.5318M97.4426 62.8198C96.4641 64.0038 95.1023 64.8083 93.5931 65.094C92.084 65.3797 90.5224 65.1285 89.1789 64.384L82.3155 61.2454C86.3206 58.3142 90.3616 57.0906 94.3859 57.6154C97.8099 58.0557 98.6022 61.0842 97.4374 62.8173L97.4426 62.8198Z" stroke="#537599" stroke-width="1.28" stroke-linecap="round" stroke-linejoin="round"/>
<path d="M94.871 63.4061L91.008 57.9699L103.04 49.4233C103.364 49.1933 103.73 49.0293 104.117 48.9408C104.504 48.8522 104.905 48.8407 105.296 48.907C105.688 48.9734 106.062 49.1162 106.399 49.3273C106.735 49.5384 107.026 49.8138 107.256 50.1376L107.616 50.6432C107.846 50.9669 108.01 51.3328 108.099 51.7199C108.187 52.107 108.199 52.5078 108.132 52.8993C108.066 53.2908 107.923 53.6655 107.712 54.0018C107.501 54.3382 107.226 54.6296 106.902 54.8595L94.871 63.4061Z" fill="#D1E7FF"/>
<path d="M94.871 63.4061L91.008 57.9699L103.04 49.4233C103.364 49.1933 103.73 49.0293 104.117 48.9408C104.504 48.8522 104.905 48.8407 105.296 48.907C105.688 48.9734 106.062 49.1162 106.399 49.3273C106.735 49.5384 107.026 49.8138 107.256 50.1376L107.616 50.6432C107.846 50.9669 108.01 51.3328 108.099 51.7199C108.187 52.107 108.199 52.5078 108.132 52.8993C108.066 53.2908 107.923 53.6655 107.712 54.0018C107.501 54.3382 107.226 54.6296 106.902 54.8595L94.871 63.4061Z" stroke="#537599" stroke-width="1.28" stroke-linecap="round" stroke-linejoin="round"/>
<path d="M91.5341 54.871L99.991 48.864C100.227 48.6888 100.495 48.5632 100.781 48.4946C101.067 48.426 101.363 48.4159 101.653 48.4649C101.942 48.514 102.219 48.6211 102.466 48.7799C102.713 48.9387 102.925 49.1458 103.09 49.3888" stroke="#537599" stroke-width="1.28" stroke-linecap="round" stroke-linejoin="round"/>
<path d="M72.0909 73.2262L66.1504 77.4502C66.0192 77.5415 65.921 77.673 65.8707 77.8248C65.8204 77.9766 65.8207 78.1406 65.8714 78.2922C65.9222 78.4438 66.0207 78.575 66.1522 78.6659C66.2837 78.7569 66.4412 78.8028 66.601 78.7968C69.0918 78.6944 72.6515 78.2425 72.599 76.5043L73.8074 75.6467L72.0909 73.2262Z" fill="#D1E7FF" stroke="#537599" stroke-width="1.28" stroke-linecap="round" stroke-linejoin="round"/>
<path d="M74.24 76.247L72.0947 73.2262C71.9811 73.066 71.9357 72.8671 71.9686 72.6734C72.0014 72.4797 72.1099 72.307 72.2701 72.1933L75.2896 70.048L78.2938 74.272L75.264 76.416C75.1052 76.5275 74.909 76.5723 74.7175 76.5407C74.526 76.5091 74.3546 76.4036 74.24 76.247Z" fill="#F3F9FF"/>
<path d="M74.24 76.247L72.0947 73.2262C71.9811 73.066 71.9357 72.8671 71.9686 72.6734C72.0014 72.4797 72.1099 72.307 72.2701 72.1933L75.2896 70.048L78.2938 74.272L75.264 76.416C75.1052 76.5275 74.909 76.5723 74.7175 76.5407C74.526 76.5091 74.3546 76.4036 74.24 76.247Z" stroke="#537599" stroke-width="1.28" stroke-linecap="round" stroke-linejoin="round"/>
<path d="M77.8611 73.6717L75.7158 70.656C75.6031 70.4974 75.5226 70.3182 75.4791 70.1285C75.4357 69.9389 75.43 69.7425 75.4624 69.5506C75.4949 69.3588 75.5648 69.1752 75.6683 69.0104C75.7717 68.8455 75.9066 68.7027 76.0653 68.5901L91.008 57.9699L94.8698 63.4061L79.927 74.0224C79.7684 74.1351 79.5891 74.2155 79.3994 74.2588C79.2097 74.3022 79.0133 74.3078 78.8214 74.2752C78.6295 74.2426 78.446 74.1726 78.2812 74.069C78.1164 73.9654 77.9737 73.8304 77.8611 73.6717Z" fill="#D1E7FF"/>
<path d="M77.8611 73.6717L75.7158 70.656C75.6031 70.4974 75.5226 70.3182 75.4791 70.1285C75.4357 69.9389 75.43 69.7425 75.4624 69.5506C75.4949 69.3588 75.5648 69.1752 75.6683 69.0104C75.7717 68.8455 75.9066 68.7027 76.0653 68.5901L91.008 57.9699L94.8698 63.4061L79.927 74.0224C79.7684 74.1351 79.5891 74.2155 79.3994 74.2588C79.2097 74.3022 79.0133 74.3078 78.8214 74.2752C78.6295 74.2426 78.446 74.1726 78.2812 74.069C78.1164 73.9654 77.9737 73.8304 77.8611 73.6717Z" stroke="#537599" stroke-width="1.28" stroke-linecap="round" stroke-linejoin="round"/>
<path d="M97.4374 62.8172C96.4596 64.0004 95.0989 64.8046 93.5908 65.0907C92.0828 65.3768 90.5221 65.1268 89.1789 64.384L81.0765 60.672C80.7215 60.5031 80.3365 60.4064 79.9438 60.3877C79.5512 60.369 79.1587 60.4286 78.7893 60.5629C78.4198 60.6973 78.0808 60.9038 77.792 61.1705C77.5031 61.4371 77.2701 61.7585 77.1067 62.116C76.9432 62.4735 76.8525 62.86 76.8397 63.2529C76.827 63.6458 76.8926 64.0373 77.0326 64.4046C77.1726 64.772 77.3843 65.1078 77.6553 65.3926C77.9263 65.6773 78.2512 65.9053 78.6112 66.0633C90.217 74.8518 92.5632 75.9667 95.4022 77.0713" fill="#F3F9FF"/>
<path d="M97.4374 62.8172C96.4596 64.0004 95.0989 64.8046 93.5908 65.0907C92.0828 65.3768 90.5221 65.1268 89.1789 64.384L81.0765 60.672C80.7215 60.5031 80.3365 60.4064 79.9438 60.3877C79.5512 60.369 79.1587 60.4286 78.7893 60.5629C78.4198 60.6973 78.0808 60.9038 77.792 61.1705C77.5031 61.4371 77.2701 61.7585 77.1067 62.116C76.9432 62.4735 76.8525 62.86 76.8397 63.2529C76.827 63.6458 76.8926 64.0373 77.0326 64.4046C77.1726 64.772 77.3843 65.1078 77.6553 65.3926C77.9263 65.6773 78.2512 65.9053 78.6112 66.0633C90.217 74.8518 92.5632 75.9667 95.4022 77.0713" stroke="#537599" stroke-width="1.28" stroke-linecap="round" stroke-linejoin="round"/>
<path d="M97.4374 62.8172C96.4596 64.0004 95.0989 64.8046 93.5908 65.0907C92.0828 65.3768 90.5221 65.1268 89.1789 64.384L81.0765 60.672C80.7215 60.5031 80.3365 60.4064 79.9438 60.3877C79.5512 60.369 79.1587 60.4286 78.7893 60.5629C78.4198 60.6973 78.0808 60.9038 77.792 61.1705C77.5031 61.4371 77.2701 61.7585 77.1067 62.116C76.9432 62.4735 76.8525 62.86 76.8397 63.2529C76.827 63.6458 76.8926 64.0373 77.0326 64.4046C77.1726 64.772 77.3843 65.1078 77.6553 65.3926C77.9263 65.6773 78.2512 65.9053 78.6112 66.0633C90.217 74.8518 92.5632 75.9667 95.4022 77.0713" fill="#F3F9FF"/>
<path d="M97.4374 62.8172C96.4596 64.0004 95.0989 64.8046 93.5908 65.0907C92.0828 65.3768 90.5221 65.1268 89.1789 64.384L81.0765 60.672C80.7215 60.5031 80.3365 60.4064 79.9438 60.3877C79.5512 60.369 79.1587 60.4286 78.7893 60.5629C78.4198 60.6973 78.0808 60.9038 77.792 61.1705C77.5031 61.4371 77.2701 61.7585 77.1067 62.116C76.9432 62.4735 76.8525 62.86 76.8397 63.2529C76.827 63.6458 76.8926 64.0373 77.0326 64.4046C77.1726 64.772 77.3843 65.1078 77.6553 65.3926C77.9263 65.6773 78.2512 65.9053 78.6112 66.0633C90.217 74.8518 92.5632 75.9667 95.4022 77.0713" stroke="#537599" stroke-width="1.28" stroke-linecap="round" stroke-linejoin="round"/>
</svg>
