<svg width="216" height="206" viewBox="0 0 216 206" fill="none" xmlns="http://www.w3.org/2000/svg">
<path d="M31.2704 174.955C12.1867 155.872 1.46562 129.989 1.46562 103C1.46562 76.0117 12.1867 50.1286 31.2704 31.0449C50.3541 11.9612 76.2372 1.2401 103.226 1.2401C130.214 1.2401 156.097 11.9612 175.181 31.0449C194.265 50.1286 204.986 76.0117 204.986 103C204.986 129.989 194.265 155.872 175.181 174.955C156.097 194.039 130.214 204.76 103.226 204.76C76.2372 204.76 50.3541 194.039 31.2704 174.955Z" fill="#D1E7FF" stroke="#537599" stroke-width="1.28"/>
<path d="M151.52 167.783H56.032C54.3224 167.783 52.6828 167.104 51.474 165.895C50.2651 164.686 49.5859 163.047 49.5859 161.337V37.72C49.5859 35.9377 50.2939 34.2285 51.5542 32.9682C52.8144 31.708 54.5237 31 56.3059 31H151.231C153.013 31 154.722 31.708 155.982 32.9682C157.243 34.2285 157.951 35.9377 157.951 37.72V161.337C157.951 163.044 157.275 164.682 156.069 165.891C154.863 167.099 153.227 167.78 151.52 167.783Z" fill="#D1E7FF"/>
<path d="M151.52 167.783H56.032C54.3224 167.783 52.6828 167.104 51.474 165.895C50.2651 164.686 49.5859 163.047 49.5859 161.337V37.72C49.5859 35.9377 50.2939 34.2285 51.5542 32.9682C52.8144 31.708 54.5237 31 56.3059 31H151.231C153.013 31 154.722 31.708 155.982 32.9682C157.243 34.2285 157.951 35.9377 157.951 37.72V161.337C157.951 163.044 157.275 164.682 156.069 165.891C154.863 167.099 153.227 167.78 151.52 167.783Z" stroke="#537599" stroke-width="1.28" stroke-linecap="round" stroke-linejoin="round"/>
<path d="M60.2484 41.6548H147.293V157.124H60.2484V41.6548Z" fill="#F3F9FF"/>
<path d="M147.293 81.2119L122.016 108.604C120.422 110.336 119.58 112.63 119.676 114.982C119.772 117.334 120.798 119.552 122.528 121.148C123.614 122.149 124.934 122.858 126.368 123.211L118.15 131.431L119.407 132.688L108.307 143.786C107.81 144.281 107.471 144.911 107.331 145.599C107.191 146.286 107.257 146.999 107.522 147.648C107.786 148.298 108.236 148.855 108.816 149.25C109.396 149.644 110.079 149.859 110.78 149.866C111.038 149.865 111.295 149.839 111.548 149.787C121.276 147.718 126.225 144.731 126.281 140.896L126.952 140.222L129.466 142.736L135.648 136.536C136.086 136.887 136.556 137.196 137.051 137.46C138.686 138.33 140.552 138.668 142.388 138.426C144.224 138.183 145.938 137.373 147.291 136.109L147.293 81.2119Z" fill="#D1E7FF"/>
<path d="M60.2484 41.6548H147.293V157.124H60.2484V41.6548Z" stroke="#537599" stroke-width="1.28" stroke-linecap="round" stroke-linejoin="round"/>
<path d="M72.6567 70.0786H126.936" stroke="#537599" stroke-width="1.28" stroke-linecap="round" stroke-linejoin="round"/>
<path d="M72.6567 86.0657H126.936" stroke="#537599" stroke-width="1.28" stroke-linecap="round" stroke-linejoin="round"/>
<path d="M72.6567 103.832H110.488" stroke="#537599" stroke-width="1.28" stroke-linecap="round" stroke-linejoin="round"/>
<path d="M79.4586 25.6677H128.083C128.936 25.6704 129.753 26.0112 130.356 26.6153C130.958 27.2195 131.296 28.0377 131.296 28.8908V45.5308C131.296 46.3862 130.956 47.2067 130.351 47.8116C129.746 48.4165 128.926 48.7564 128.07 48.7564H79.4611C78.6057 48.7564 77.7852 48.4165 77.1803 47.8116C76.5754 47.2067 76.2355 46.3862 76.2355 45.5308V28.8908C76.2355 28.036 76.5751 27.2162 77.1795 26.6117C77.784 26.0073 78.6038 25.6677 79.4586 25.6677Z" fill="#F3F9FF"/>
<path d="M79.4586 25.6677H128.083C128.936 25.6704 129.753 26.0112 130.356 26.6153C130.958 27.2195 131.296 28.0377 131.296 28.8908V45.5308C131.296 46.3862 130.956 47.2067 130.351 47.8116C129.746 48.4165 128.926 48.7564 128.07 48.7564H79.4611C78.6057 48.7564 77.7852 48.4165 77.1803 47.8116C76.5754 47.2067 76.2355 46.3862 76.2355 45.5308V28.8908C76.2355 28.036 76.5751 27.2162 77.1795 26.6117C77.784 26.0073 78.6038 25.6677 79.4586 25.6677Z" stroke="#537599" stroke-width="1.28" stroke-linecap="round" stroke-linejoin="round"/>
<path d="M88.6695 41.6548H118.87" stroke="#537599" stroke-width="1.28" stroke-linecap="round" stroke-linejoin="round"/>
<path d="M95.776 23.891C95.776 25.0576 96.0058 26.2127 96.4522 27.2905C96.8986 28.3682 97.553 29.3475 98.3778 30.1724C99.2027 30.9973 100.182 31.6516 101.26 32.098C102.338 32.5444 103.493 32.7742 104.659 32.7742C105.826 32.7742 106.981 32.5444 108.059 32.098C109.136 31.6516 110.116 30.9973 110.941 30.1724C111.765 29.3475 112.42 28.3682 112.866 27.2905C113.313 26.2127 113.542 25.0576 113.542 23.891C113.542 22.7245 113.313 21.5693 112.866 20.4916C112.42 19.4138 111.765 18.4345 110.941 17.6096C110.116 16.7848 109.136 16.1304 108.059 15.684C106.981 15.2376 105.826 15.0078 104.659 15.0078C103.493 15.0078 102.338 15.2376 101.26 15.684C100.182 16.1304 99.2027 16.7848 98.3778 17.6096C97.553 18.4345 96.8986 19.4138 96.4522 20.4916C96.0058 21.5693 95.776 22.7245 95.776 23.891Z" fill="#F3F9FF"/>
<path d="M95.776 23.891C95.776 25.0576 96.0058 26.2127 96.4522 27.2905C96.8986 28.3682 97.553 29.3475 98.3778 30.1724C99.2027 30.9973 100.182 31.6516 101.26 32.098C102.338 32.5444 103.493 32.7742 104.659 32.7742C105.826 32.7742 106.981 32.5444 108.059 32.098C109.136 31.6516 110.116 30.9973 110.941 30.1724C111.765 29.3475 112.42 28.3682 112.866 27.2905C113.313 26.2127 113.542 25.0576 113.542 23.891C113.542 22.7245 113.313 21.5693 112.866 20.4916C112.42 19.4138 111.765 18.4345 110.941 17.6096C110.116 16.7848 109.136 16.1304 108.059 15.684C106.981 15.2376 105.826 15.0078 104.659 15.0078C103.493 15.0078 102.338 15.2376 101.26 15.684C100.182 16.1304 99.2027 16.7848 98.3778 17.6096C97.553 18.4345 96.8986 19.4138 96.4522 20.4916C96.0058 21.5693 95.776 22.7245 95.776 23.891Z" stroke="#537599" stroke-width="1.28" stroke-linecap="round" stroke-linejoin="round"/>
<path d="M141.17 102.726L172.287 114.333L185.376 93.3412L151.543 84.2046L141.17 102.726Z" fill="#D1E7FF"/>
<path d="M190.778 138.146L214.877 114.047C214.972 113.956 215.071 113.87 215.174 113.791C207.108 106.791 205.119 91.964 189.605 83.8641C169.184 73.1992 143.927 75.7438 121.742 103.448C121.234 104.051 120.852 104.749 120.617 105.502C120.382 106.255 120.3 107.046 120.375 107.831C120.45 108.616 120.681 109.378 121.055 110.072C121.428 110.767 121.936 111.38 122.549 111.875C123.162 112.371 123.868 112.739 124.625 112.959C125.382 113.178 126.176 113.244 126.959 113.153C127.742 113.062 128.499 112.816 129.186 112.428C129.872 112.041 130.475 111.521 130.958 110.898C132.429 109.078 133.907 107.385 135.392 105.816C135.914 106.373 136.539 106.824 137.233 107.142C160.444 124.717 165.137 126.949 170.815 129.158C179.596 132.571 183.471 134.219 189.928 140.064C189.967 139.342 190.269 138.66 190.778 138.146ZM174.875 100.635C172.919 103.001 170.198 104.609 167.182 105.182C164.166 105.754 161.044 105.254 158.358 103.768L144.631 97.491C152.641 91.6286 160.723 89.1812 168.772 90.2308C175.62 91.1115 177.204 97.1684 174.875 100.635Z" fill="#F3F9FF"/>
<path d="M64.6746 188.35C64.6746 189.529 68.7335 190.659 75.9584 191.493C83.1833 192.326 92.9824 192.795 103.2 192.795C113.418 192.795 123.217 192.326 130.442 191.493C137.667 190.659 141.725 189.529 141.725 188.35C141.725 187.172 137.667 186.041 130.442 185.208C123.217 184.374 113.418 183.906 103.2 183.906C92.9824 183.906 83.1833 184.374 75.9584 185.208C68.7335 186.041 64.6746 187.172 64.6746 188.35Z" fill="#D1E7FF"/>
<path d="M78.0787 122.292C77.1603 123.21 76.4823 124.34 76.1051 125.583C75.7278 126.825 75.6628 128.142 75.9159 129.415C76.1689 130.689 76.7322 131.88 77.5558 132.884C78.3794 133.888 79.4379 134.673 80.6375 135.17C81.8372 135.668 83.1409 135.861 84.4331 135.734C85.7254 135.607 86.9663 135.163 88.0459 134.441C89.1256 133.72 90.0106 132.743 90.6226 131.598C91.2347 130.453 91.5548 129.174 91.5546 127.876V129.453C91.5377 130.293 91.6885 131.128 91.9984 131.909C92.3082 132.69 92.7708 133.402 93.3591 134.002C93.9473 134.602 94.6494 135.079 95.4242 135.405C96.199 135.73 97.031 135.898 97.8714 135.898C98.7118 135.898 99.5437 135.73 100.319 135.405C101.093 135.079 101.795 134.602 102.384 134.002C102.972 133.402 103.434 132.69 103.744 131.909C104.054 131.128 104.205 130.293 104.188 129.453C104.188 131.128 104.854 132.734 106.038 133.918C107.222 135.103 108.829 135.768 110.504 135.768H115.24" stroke="#537599" stroke-width="1.28" stroke-linecap="round" stroke-linejoin="round"/>
<path d="M156.412 105.148C157.19 105.189 157.952 105.384 158.654 105.72C159.357 106.056 159.986 106.527 160.506 107.106C161.027 107.686 161.428 108.362 161.687 109.096C161.946 109.831 162.058 110.609 162.016 111.387L160.974 130.622C160.932 131.4 160.737 132.161 160.401 132.863C160.064 133.565 159.593 134.194 159.013 134.713C158.434 135.233 157.758 135.634 157.024 135.892C156.289 136.151 155.511 136.262 154.734 136.22C153.957 136.178 153.195 135.983 152.494 135.646C151.792 135.31 151.163 134.839 150.643 134.259C150.123 133.68 149.723 133.004 149.464 132.269C149.206 131.535 149.094 130.757 149.137 129.98L150.179 110.747C150.263 109.178 150.967 107.707 152.136 106.657C153.305 105.607 154.843 105.064 156.412 105.148Z" fill="#D1E7FF" stroke="#537599" stroke-width="1.28" stroke-linecap="round" stroke-linejoin="round"/>
<path d="M150.289 103.3C151.676 104.039 152.712 105.299 153.171 106.802C153.629 108.306 153.472 109.93 152.733 111.317L145.66 125.085C144.921 126.473 143.661 127.51 142.158 127.968C140.654 128.427 139.03 128.269 137.642 127.53C136.255 126.791 135.218 125.531 134.759 124.027C134.301 122.524 134.458 120.899 135.197 119.512L142.271 105.744C143.01 104.357 144.27 103.32 145.774 102.862C147.277 102.404 148.901 102.561 150.289 103.3Z" fill="#D1E7FF" stroke="#537599" stroke-width="1.28" stroke-linecap="round" stroke-linejoin="round"/>
<path d="M214.877 114.047C214.972 113.956 215.071 113.87 215.174 113.791C207.108 106.791 205.119 91.964 189.605 83.8641C169.184 73.1992 143.927 75.7438 121.742 103.448C121.234 104.051 120.852 104.749 120.617 105.502C120.382 106.255 120.3 107.046 120.375 107.831C120.45 108.616 120.681 109.378 121.055 110.072C121.428 110.767 121.936 111.38 122.549 111.875C123.162 112.371 123.868 112.739 124.625 112.959C125.382 113.178 126.176 113.244 126.959 113.153C127.742 113.062 128.499 112.816 129.186 112.428C129.872 112.041 130.475 111.521 130.958 110.898C132.429 109.078 133.907 107.385 135.392 105.816C135.914 106.373 136.539 106.824 137.233 107.142C160.444 124.717 165.137 126.949 170.815 129.158C179.596 132.571 183.471 134.219 189.928 140.064M174.885 100.64C172.928 103.008 170.205 104.617 167.186 105.188C164.168 105.759 161.045 105.257 158.358 103.768L144.631 97.491C152.641 91.6286 160.723 89.1812 168.772 90.2308C175.62 91.1115 177.204 97.1684 174.875 100.635L174.885 100.64Z" stroke="#537599" stroke-width="1.28" stroke-linecap="round" stroke-linejoin="round"/>
<path d="M169.742 101.812L162.016 90.9399L186.08 73.8468C186.727 73.3868 187.459 73.0588 188.233 72.8816C189.008 72.7045 189.809 72.6815 190.592 72.8142C191.375 72.9468 192.125 73.2325 192.797 73.6547C193.47 74.077 194.053 74.6277 194.513 75.2753L195.232 76.2865C195.692 76.9339 196.02 77.6657 196.197 78.4399C196.374 79.2141 196.397 80.0156 196.265 80.7987C196.132 81.5818 195.846 82.3311 195.424 83.0037C195.002 83.6764 194.451 84.2593 193.803 84.7191L169.742 101.812Z" fill="#D1E7FF"/>
<path d="M169.742 101.812L162.016 90.9399L186.08 73.8468C186.727 73.3868 187.459 73.0588 188.233 72.8816C189.008 72.7045 189.809 72.6815 190.592 72.8142C191.375 72.9468 192.125 73.2325 192.797 73.6547C193.47 74.077 194.053 74.6277 194.513 75.2753L195.232 76.2865C195.692 76.9339 196.02 77.6657 196.197 78.4399C196.374 79.2141 196.397 80.0156 196.265 80.7987C196.132 81.5818 195.846 82.3311 195.424 83.0037C195.002 83.6764 194.451 84.2593 193.803 84.7191L169.742 101.812Z" stroke="#537599" stroke-width="1.28" stroke-linecap="round" stroke-linejoin="round"/>
<path d="M163.068 84.7422L179.982 72.7281C180.453 72.3778 180.991 72.1264 181.562 71.9893C182.133 71.8521 182.726 71.8319 183.305 71.93C183.884 72.0281 184.437 72.2423 184.931 72.5599C185.425 72.8774 185.85 73.2917 186.18 73.7777" stroke="#537599" stroke-width="1.28" stroke-linecap="round" stroke-linejoin="round"/>
<path d="M124.182 121.453L112.301 129.901C112.038 130.083 111.842 130.346 111.741 130.65C111.641 130.953 111.641 131.281 111.743 131.585C111.844 131.888 112.041 132.15 112.304 132.332C112.567 132.514 112.882 132.606 113.202 132.594C118.184 132.389 125.303 131.485 125.198 128.009L127.615 126.294L124.182 121.453Z" fill="#D1E7FF" stroke="#537599" stroke-width="1.28" stroke-linecap="round" stroke-linejoin="round"/>
<path d="M128.48 127.494L124.189 121.453C123.962 121.132 123.871 120.735 123.937 120.347C124.003 119.96 124.22 119.614 124.54 119.387L130.579 115.096L136.588 123.544L130.528 127.832C130.21 128.055 129.818 128.145 129.435 128.082C129.052 128.018 128.709 127.808 128.48 127.494Z" fill="#F3F9FF"/>
<path d="M128.48 127.494L124.189 121.453C123.962 121.132 123.871 120.735 123.937 120.347C124.003 119.96 124.22 119.614 124.54 119.387L130.579 115.096L136.588 123.544L130.528 127.832C130.21 128.055 129.818 128.145 129.435 128.082C129.052 128.018 128.709 127.808 128.48 127.494Z" stroke="#537599" stroke-width="1.28" stroke-linecap="round" stroke-linejoin="round"/>
<path d="M135.722 122.343L131.432 116.312C131.206 115.995 131.045 115.636 130.958 115.257C130.871 114.878 130.86 114.485 130.925 114.101C130.99 113.718 131.13 113.35 131.337 113.021C131.543 112.691 131.813 112.406 132.131 112.18L162.016 90.9399L169.74 101.812L139.854 123.045C139.537 123.27 139.178 123.431 138.799 123.518C138.419 123.605 138.027 123.616 137.643 123.551C137.259 123.485 136.892 123.345 136.562 123.138C136.233 122.931 135.947 122.661 135.722 122.343Z" fill="#D1E7FF"/>
<path d="M135.722 122.343L131.432 116.312C131.206 115.995 131.045 115.636 130.958 115.257C130.871 114.878 130.86 114.485 130.925 114.101C130.99 113.718 131.13 113.35 131.337 113.021C131.543 112.691 131.813 112.406 132.131 112.18L162.016 90.9399L169.74 101.812L139.854 123.045C139.537 123.27 139.178 123.431 138.799 123.518C138.419 123.605 138.027 123.616 137.643 123.551C137.259 123.485 136.892 123.345 136.562 123.138C136.233 122.931 135.947 122.661 135.722 122.343Z" stroke="#537599" stroke-width="1.28" stroke-linecap="round" stroke-linejoin="round"/>
<path d="M174.875 100.635C172.919 103.001 170.198 104.609 167.182 105.182C164.166 105.754 161.044 105.254 158.358 103.768L142.153 96.3441C141.443 96.0062 140.673 95.813 139.888 95.7755C139.102 95.7381 138.317 95.8572 137.579 96.126C136.84 96.3948 136.162 96.8078 135.584 97.3411C135.006 97.8743 134.54 98.5172 134.213 99.2322C133.886 99.9472 133.705 100.72 133.679 101.506C133.654 102.292 133.785 103.075 134.065 103.809C134.345 104.544 134.769 105.216 135.311 105.785C135.853 106.355 136.502 106.811 137.222 107.127C160.434 124.704 165.126 126.933 170.804 129.143" fill="#F3F9FF"/>
<path d="M174.875 100.635C172.919 103.001 170.198 104.609 167.182 105.182C164.166 105.754 161.044 105.254 158.358 103.768L142.153 96.3441C141.443 96.0062 140.673 95.813 139.888 95.7755C139.102 95.7381 138.317 95.8572 137.579 96.126C136.84 96.3948 136.162 96.8078 135.584 97.3411C135.006 97.8743 134.54 98.5172 134.213 99.2322C133.886 99.9472 133.705 100.72 133.679 101.506C133.654 102.292 133.785 103.075 134.065 103.809C134.345 104.544 134.769 105.216 135.311 105.785C135.853 106.355 136.502 106.811 137.222 107.127C160.434 124.704 165.126 126.933 170.804 129.143" stroke="#537599" stroke-width="1.28" stroke-linecap="round" stroke-linejoin="round"/>
<path d="M174.875 100.635C172.919 103.001 170.198 104.609 167.182 105.182C164.166 105.754 161.044 105.254 158.358 103.768L142.153 96.3441C141.443 96.0062 140.673 95.813 139.888 95.7755C139.102 95.7381 138.317 95.8572 137.579 96.126C136.84 96.3948 136.162 96.8078 135.584 97.3411C135.006 97.8743 134.54 98.5172 134.213 99.2322C133.886 99.9472 133.705 100.72 133.679 101.506C133.654 102.292 133.785 103.075 134.065 103.809C134.345 104.544 134.769 105.216 135.311 105.785C135.853 106.355 136.502 106.811 137.222 107.127C160.434 124.704 165.126 126.933 170.804 129.143" fill="#F3F9FF"/>
<path d="M174.875 100.635C172.919 103.001 170.198 104.609 167.182 105.182C164.166 105.754 161.044 105.254 158.358 103.768L142.153 96.3441C141.443 96.0062 140.673 95.813 139.888 95.7755C139.102 95.7381 138.317 95.8572 137.579 96.126C136.84 96.3948 136.162 96.8078 135.584 97.3411C135.006 97.8743 134.54 98.5172 134.213 99.2322C133.886 99.9472 133.705 100.72 133.679 101.506C133.654 102.292 133.785 103.075 134.065 103.809C134.345 104.544 134.769 105.216 135.311 105.785C135.853 106.355 136.502 106.811 137.222 107.127C160.434 124.704 165.126 126.933 170.804 129.143" stroke="#537599" stroke-width="1.28" stroke-linecap="round" stroke-linejoin="round"/>
</svg>
