<svg width="206" height="206" viewBox="0 0 206 206" fill="none" xmlns="http://www.w3.org/2000/svg">
<path d="M31.0448 174.955C11.9611 155.872 1.24001 129.989 1.24001 103C1.24001 76.0117 11.9611 50.1286 31.0448 31.0449C50.1285 11.9612 76.0116 1.2401 103 1.2401C129.988 1.2401 155.871 11.9612 174.955 31.0449C194.039 50.1286 204.76 76.0117 204.76 103C204.76 129.989 194.039 155.872 174.955 174.955C155.871 194.039 129.988 204.76 103 204.76C76.0116 204.76 50.1285 194.039 31.0448 174.955Z" fill="#F3F9FF" stroke="#537599" stroke-width="1.28"/>
<path d="M23.8525 27.3368H182.145V39.4942H23.8525V27.3368Z" fill="#D1E7FF" stroke="#537599" stroke-width="1.28"/>
<path d="M23.2125 26.6968H182.785V40.1342H23.2125V26.6968Z" stroke="#1C2737" stroke-width="1.28" stroke-linecap="round" stroke-linejoin="round"/>
<path d="M176.444 141.833C176.444 142.58 176.147 143.296 175.619 143.824C175.091 144.352 174.375 144.649 173.628 144.649H32.3722C31.6253 144.649 30.9091 144.352 30.381 143.824C29.8529 143.296 29.5562 142.58 29.5562 141.833V40.1343H176.444V141.833Z" fill="white"/>
<path d="M176.444 141.833C176.444 142.58 176.147 143.296 175.619 143.824C175.091 144.352 174.375 144.649 173.628 144.649H32.3722C31.6253 144.649 30.9091 144.352 30.381 143.824C29.8529 143.296 29.5562 142.58 29.5562 141.833V40.1343H176.444V141.833Z" stroke="#1C2737" stroke-width="1.28" stroke-linecap="round" stroke-linejoin="round"/>
<path d="M103 144.649V159.11" stroke="#1C2737" stroke-width="1.28" stroke-linecap="round" stroke-linejoin="round"/>
<path d="M96.175 165.935C96.175 167.745 96.8941 169.481 98.174 170.761C99.454 172.041 101.19 172.76 103 172.76C104.81 172.76 106.546 172.041 107.826 170.761C109.106 169.481 109.825 167.745 109.825 165.935C109.825 164.125 109.106 162.389 107.826 161.109C106.546 159.829 104.81 159.11 103 159.11C101.19 159.11 99.454 159.829 98.174 161.109C96.8941 162.389 96.175 164.125 96.175 165.935Z" stroke="#1C2737" stroke-width="1.28" stroke-linecap="round" stroke-linejoin="round"/>
<path d="M63.3123 186.256C63.3123 187.544 67.4937 188.78 74.9366 189.69C82.3795 190.601 92.4742 191.113 103 191.113C113.526 191.113 123.621 190.601 131.063 189.69C138.506 188.78 142.688 187.544 142.688 186.256C142.688 184.968 138.506 183.733 131.063 182.823C123.621 181.912 113.526 181.4 103 181.4C92.4742 181.4 82.3795 181.912 74.9366 182.823C67.4937 183.733 63.3123 184.968 63.3123 186.256Z" fill="#D1E7FF"/>
<path d="M97.2859 127.598C106.624 129.113 116.181 126.857 123.855 121.326C131.529 115.794 136.692 107.441 138.207 98.1034C139.722 88.7657 137.466 79.2085 131.935 71.5343C126.403 63.8601 118.05 58.6975 108.712 57.1823C99.3745 55.667 89.8173 57.9233 82.1431 63.4546C74.4689 68.986 69.3064 77.3393 67.7911 86.6771C66.2759 96.0148 68.5322 105.572 74.0635 113.246C79.5948 120.92 87.9482 126.083 97.2859 127.598Z" fill="#D1E7FF" stroke="#1C2737" stroke-width="1.28" stroke-linecap="round" stroke-linejoin="round"/>
<path d="M98.7892 118.334C102.196 118.887 105.679 118.764 109.038 117.971C112.397 117.178 115.567 115.731 118.368 113.712C121.168 111.694 123.543 109.144 125.357 106.208C127.172 103.272 128.39 100.007 128.943 96.6002C129.496 93.1932 129.373 89.7106 128.579 86.3514C127.786 82.9921 126.339 79.8219 124.321 77.0219C122.303 74.2218 119.753 71.8467 116.817 70.0321C113.881 68.2175 110.616 66.999 107.209 66.4461C103.802 65.8933 100.319 66.0169 96.9602 66.8099C93.6009 67.603 90.4307 69.0499 87.6307 71.0681C84.8306 73.0863 82.4555 75.6363 80.6409 78.5724C78.8263 81.5085 77.6078 84.7733 77.0549 88.1803C76.5021 91.5874 76.6257 95.07 77.4187 98.4292C78.2118 101.788 79.6587 104.959 81.6769 107.759C83.6951 110.559 86.2451 112.934 89.1812 114.748C92.1174 116.563 95.3821 117.782 98.7892 118.334Z" fill="white"/>
<path d="M103 81.1274L103.069 92.3223H108.322" stroke="#1C2737" stroke-width="1.28" stroke-linecap="round" stroke-linejoin="round"/>
<path d="M103 112.498V109.147" stroke="#1C2737" stroke-width="1.28" stroke-linecap="round" stroke-linejoin="round"/>
<path d="M103 72.2852V75.6362" stroke="#1C2737" stroke-width="1.28" stroke-linecap="round" stroke-linejoin="round"/>
<path d="M117.218 78.1758L114.848 80.5438" stroke="#1C2737" stroke-width="1.28" stroke-linecap="round" stroke-linejoin="round"/>
<path d="M123.106 92.3914H119.755" stroke="#1C2737" stroke-width="1.28" stroke-linecap="round" stroke-linejoin="round"/>
<path d="M117.218 106.61L114.848 104.239" stroke="#1C2737" stroke-width="1.28" stroke-linecap="round" stroke-linejoin="round"/>
<path d="M88.7818 106.61L91.1523 104.239" stroke="#1C2737" stroke-width="1.28" stroke-linecap="round" stroke-linejoin="round"/>
<path d="M82.8938 92.3914H86.2448" stroke="#1C2737" stroke-width="1.28" stroke-linecap="round" stroke-linejoin="round"/>
<path d="M88.7818 78.1758L91.1523 80.5438" stroke="#1C2737" stroke-width="1.28" stroke-linecap="round" stroke-linejoin="round"/>
<path d="M98.7892 118.334C102.196 118.887 105.679 118.764 109.038 117.971C112.397 117.178 115.567 115.731 118.368 113.712C121.168 111.694 123.543 109.144 125.357 106.208C127.172 103.272 128.39 100.007 128.943 96.6002C129.496 93.1932 129.373 89.7106 128.579 86.3514C127.786 82.9921 126.339 79.8219 124.321 77.0219C122.303 74.2218 119.753 71.8467 116.817 70.0321C113.881 68.2175 110.616 66.999 107.209 66.4461C103.802 65.8933 100.319 66.0169 96.9602 66.8099C93.6009 67.603 90.4307 69.0499 87.6307 71.0681C84.8306 73.0863 82.4555 75.6363 80.6409 78.5724C78.8263 81.5085 77.6078 84.7733 77.0549 88.1803C76.5021 91.5874 76.6257 95.07 77.4187 98.4292C78.2118 101.788 79.6587 104.959 81.6769 107.759C83.6951 110.559 86.2451 112.934 89.1812 114.748C92.1174 116.563 95.3821 117.782 98.7892 118.334Z" stroke="#1C2737" stroke-width="1.28" stroke-linecap="round" stroke-linejoin="round"/>
</svg>
