<svg width="206" height="206" viewBox="0 0 206 206" fill="none" xmlns="http://www.w3.org/2000/svg">
<path d="M31.0448 174.955C11.9611 155.872 1.24001 129.989 1.24001 103C1.24001 76.0117 11.9611 50.1286 31.0448 31.0449C50.1285 11.9612 76.0116 1.2401 103 1.2401C129.988 1.2401 155.871 11.9612 174.955 31.0449C194.039 50.1286 204.76 76.0117 204.76 103C204.76 129.989 194.039 155.872 174.955 174.955C155.871 194.039 129.988 204.76 103 204.76C76.0116 204.76 50.1285 194.039 31.0448 174.955Z" fill="#F3F9FF" stroke="#537599" stroke-width="1.28"/>
<path d="M179.141 101.335L179.141 101.335C179.481 101.839 179.662 102.433 179.662 103.041C179.662 103.649 179.481 104.243 179.141 104.747L179.141 104.747C173.096 113.743 146.64 148.967 103.384 148.967C60.1288 148.967 33.6829 113.744 27.6271 104.747C27.2888 104.243 27.1081 103.649 27.1081 103.041C27.1081 102.433 27.2888 101.84 27.6271 101.335C33.6771 92.339 60.1334 57.1146 103.384 57.1146C146.635 57.1146 173.096 92.3391 179.141 101.335Z" fill="white" stroke="#537599" stroke-width="1.28"/>
<path d="M179.672 100.978C180.083 101.587 180.302 102.306 180.302 103.041C180.302 103.776 180.083 104.495 179.672 105.104C173.615 114.118 146.991 149.607 103.384 149.607C59.777 149.607 33.1632 114.118 27.096 105.104C26.6867 104.494 26.4681 103.776 26.4681 103.041C26.4681 102.306 26.6867 101.588 27.096 100.978C33.1581 91.9639 59.7821 56.4746 103.384 56.4746C146.986 56.4746 173.615 91.9639 179.672 100.978Z" stroke="#1C2737" stroke-width="1.28" stroke-linecap="round" stroke-linejoin="round"/>
<path d="M69.72 103C69.72 111.827 73.2263 120.292 79.4675 126.533C85.7087 132.774 94.1736 136.28 103 136.28C111.826 136.28 120.291 132.774 126.533 126.533C132.774 120.292 136.28 111.827 136.28 103C136.28 94.1738 132.774 85.7089 126.533 79.4677C120.291 73.2265 111.826 69.7202 103 69.7202C94.1736 69.7202 85.7087 73.2265 79.4675 79.4677C73.2263 85.7089 69.72 94.1738 69.72 103Z" fill="#D1E7FF"/>
<path d="M69.72 103C69.72 111.827 73.2263 120.292 79.4675 126.533C85.7087 132.774 94.1736 136.28 103 136.28C111.826 136.28 120.291 132.774 126.533 126.533C132.774 120.292 136.28 111.827 136.28 103C136.28 94.1738 132.774 85.7089 126.533 79.4677C120.291 73.2265 111.826 69.7202 103 69.7202C94.1736 69.7202 85.7087 73.2265 79.4675 79.4677C73.2263 85.7089 69.72 94.1738 69.72 103Z" stroke="#1C2737" stroke-width="1.28" stroke-linecap="round" stroke-linejoin="round"/>
<path d="M109.968 32.7768C109.968 36.4095 107.024 44.6322 103.392 44.6322C99.7591 44.6322 96.8125 36.4095 96.8125 32.7768C96.8465 31.0547 97.5544 29.4146 98.7843 28.2087C100.014 27.0029 101.668 26.3274 103.39 26.3274C105.113 26.3274 106.767 27.0029 107.997 28.2087C109.226 29.4146 109.934 31.0547 109.968 32.7768Z" fill="white" stroke="#1C2737" stroke-width="1.28" stroke-linecap="round" stroke-linejoin="round"/>
<path d="M59.3827 40.9328C62.529 42.7504 68.1763 49.4115 66.3613 52.5578C64.5462 55.704 55.9523 54.1424 52.7933 52.3248C51.2826 51.4527 50.1803 50.0162 49.7287 48.3313C49.2772 46.6464 49.5135 44.8512 50.3856 43.3405C51.2577 41.8298 52.6942 40.7275 54.3791 40.2759C56.064 39.8244 57.8593 40.0607 59.3699 40.9328H59.3827Z" fill="white" stroke="#1C2737" stroke-width="1.28" stroke-linecap="round" stroke-linejoin="round"/>
<path d="M53.2387 153.688C56.385 151.871 64.9789 150.309 66.7939 153.455C68.609 156.601 62.9539 163.263 59.8154 165.08C58.3047 165.952 56.5094 166.189 54.8246 165.737C53.1397 165.285 51.7032 164.183 50.831 162.672C49.9589 161.162 49.7226 159.367 50.1742 157.682C50.6257 155.997 51.728 154.56 53.2387 153.688Z" fill="white" stroke="#1C2737" stroke-width="1.28" stroke-linecap="round" stroke-linejoin="round"/>
<path d="M104.257 179.8C103.393 179.8 102.538 179.63 101.74 179.3C100.942 178.969 100.217 178.485 99.6066 177.874C98.9959 177.263 98.5115 176.538 98.1809 175.74C97.8504 174.942 97.6803 174.087 97.6803 173.224C97.6803 169.591 100.624 161.368 104.257 161.368C107.89 161.368 110.834 169.591 110.834 173.224C110.834 174.087 110.663 174.942 110.333 175.74C110.002 176.538 109.518 177.263 108.907 177.874C108.297 178.485 107.572 178.969 106.774 179.3C105.976 179.63 105.121 179.8 104.257 179.8Z" fill="white" stroke="#1C2737" stroke-width="1.28" stroke-linecap="round" stroke-linejoin="round"/>
<path d="M148.263 165.067C145.12 163.25 139.47 156.588 141.287 153.442C143.105 150.296 151.696 151.858 154.855 153.675C156.366 154.548 157.468 155.984 157.92 157.67C158.371 159.355 158.134 161.15 157.262 162.661C156.389 164.171 154.952 165.274 153.267 165.725C151.582 166.176 149.787 165.94 148.276 165.067H148.263Z" fill="white" stroke="#1C2737" stroke-width="1.28" stroke-linecap="round" stroke-linejoin="round"/>
<path d="M154.407 51.5748C151.264 53.3924 142.67 54.954 140.839 51.8078C139.009 48.6615 144.679 42.0004 147.818 40.1828C148.566 39.751 149.392 39.4707 150.248 39.358C151.104 39.2453 151.974 39.3024 152.809 39.5259C153.643 39.7495 154.425 40.1352 155.11 40.661C155.795 41.1868 156.37 41.8425 156.802 42.5905C157.234 43.3385 157.514 44.1642 157.627 45.0206C157.74 45.8769 157.683 46.747 157.459 47.5813C157.236 48.4156 156.85 49.1976 156.324 49.8828C155.798 50.568 155.143 51.143 154.395 51.5748H154.407Z" fill="white" stroke="#1C2737" stroke-width="1.28" stroke-linecap="round" stroke-linejoin="round"/>
</svg>
